<?xml version="1.0"?>
<svg xmlns:rdf="http://www.w3.org/1999/02/22-rdf-syntax-ns#" xmlns="http://www.w3.org/2000/svg" xmlns:cc="http://web.resource.org/cc/" xmlns:xlink="http://www.w3.org/1999/xlink" xmlns:dc="http://purl.org/dc/elements/1.1/" xmlns:svg="http://www.w3.org/2000/svg" id="svg2" viewBox="0 0 786.17 490.04" version="1.0">
  <defs id="defs4">
    <filter id="filter3441">
      <feGaussianBlur id="feGaussianBlur3443" stdDeviation="11.57678"/>
    </filter>
    <mask id="mask3447" maskUnits="userSpaceOnUse">
      <path id="path3449" opacity=".99" fill-rule="evenodd" fill="#d9f362" d="m622.23 589.24c-63.83 1.71-333.55 62.53-387.78-21.39-55.98-86.64 114.38-81.89 207.59-140.06 422.15-263.44 719.96 147.02 180.19 161.45z"/>
    </mask>
    <filter id="filter3683" y="-.29851" width="1.1345" x="-.067254" height="1.597">
      <feGaussianBlur id="feGaussianBlur3685" stdDeviation="20.256342"/>
    </filter>
    <filter id="filter3811" y="-.18231" width="1.2385" x="-.11925" height="1.3646">
      <feGaussianBlur id="feGaussianBlur3813" stdDeviation="14.877324"/>
    </filter>
    <filter id="filter3851" y="-.13526" width="1.177" x="-.088476" height="1.2705">
      <feGaussianBlur id="feGaussianBlur3853" stdDeviation="11.038015"/>
    </filter>
    <filter id="filter3899" y="-.28816" width="1.377" x="-.18849" height="1.5763">
      <feGaussianBlur id="feGaussianBlur3901" stdDeviation="23.515771"/>
    </filter>
    <radialGradient id="radialGradient2256" gradientUnits="userSpaceOnUse" cy="965.22" cx="-355.71" gradientTransform="matrix(.99881 -.040249 .023715 .40162 -23.313 611.95)" r="361.43">
      <stop id="stop3619" stop-color="#391c2b" offset="0"/>
      <stop id="stop3621" stop-opacity="0" offset="1"/>
    </radialGradient>
    <radialGradient id="radialGradient2258" gradientUnits="userSpaceOnUse" cy="1221.4" cx="-111.09" gradientTransform="matrix(.56782 -.82315 .431 .29731 205.57 322.65)" r="351.34">
      <stop id="stop3601" stop-color="#359735" offset="0"/>
      <stop id="stop3603" stop-color="#359735" stop-opacity="0" offset="1"/>
    </radialGradient>
    <radialGradient id="radialGradient2260" gradientUnits="userSpaceOnUse" cy="652.64" cx="-211.86" gradientTransform="matrix(.99977 -.021605 .019085 .88314 767.5 -117.87)" r="149.71">
      <stop id="stop3637" stop-color="#453114" offset="0"/>
      <stop id="stop3639" stop-color="#3d2c25" stop-opacity="0" offset="1"/>
    </radialGradient>
    <radialGradient id="radialGradient2262" gradientUnits="userSpaceOnUse" cy="510.05" cx="-294.08" gradientTransform="matrix(.13411 .43632 -1.4975 .46027 1265.7 248.06)" r="149.71">
      <stop id="stop3857" stop-color="#f0e1ca" offset="0"/>
      <stop id="stop3859" stop-color="#e2c79e" stop-opacity="0" offset="1"/>
    </radialGradient>
    <radialGradient id="radialGradient2264" gradientUnits="userSpaceOnUse" cy="574.01" cx="-406.35" gradientTransform="matrix(1.1527 0 0 1.0358 839.39 -182.92)" r="149.71">
      <stop id="stop3627" stop-color="#dab782" offset="0"/>
      <stop id="stop3629" stop-color="#e2c79e" stop-opacity="0" offset="1"/>
    </radialGradient>
    <radialGradient id="radialGradient2266" gradientUnits="userSpaceOnUse" cy="634.7" cx="-262.58" gradientTransform="matrix(1.1527 0 0 1.0358 839.39 -182.92)" r="149.71">
      <stop id="stop3865" stop-color="#503205" offset="0"/>
      <stop id="stop3867" stop-color="#2e210d" stop-opacity="0" offset="1"/>
    </radialGradient>
  </defs>
  <g id="layer1" transform="translate(892.15 -221.8)">
    <g id="g2243" transform="translate(-902.86 -97.143)">
      <path id="path3607" d="m-28.571 1028.1a361.43 81.429 0 1 1 -722.86 0 361.43 81.429 0 1 1 722.86 0z" fill-rule="evenodd" transform="matrix(1 0 0 1.6316 805.71 -1049.3)" filter="url(#filter3683)" fill="url(#radialGradient2256)"/>
      <path id="path3323" opacity=".99" fill-rule="evenodd" fill="#0c220c" d="m523.1 375.81c-96.03 1.83-191.34 6.39-272.2 65.05-55.61 41.19-114.56 27.92-174.43 58.35-26.017 6.34-67.588 16.58-48.198 70.85 25.661 71.83 109.39 97.91 243.7 112.95 148.27 16.61 249.49 47.66 375.29-44.74 69.05-50.71 107.29-150.17 52.89-227.88-45.29-52.9-109.79-34.51-177.05-34.58z"/>
      <path id="path3317" opacity=".99" fill-rule="evenodd" fill="#008000" d="m515.93 340.86c-96.03 1.55-188.48 37.1-269.34 87.09-55.61 35.11-123.13 43.29-183 69.22-17.444 7.84-37.097 20.19-39.626 40.91-1.564 20.1 10.22 39.11 24.813 51.93 26.79 21.72 62.653 26.79 96.033 29.72 69.77 5.02 139.57-4.27 208.6-13.14 33.81-4.95 67.8-8.88 102.02-9.51 65.93-4.06 133.28-13.18 193.24-42.26 30.54-15.18 60.38-38.38 70.76-72.18 8.31-28.58-3.02-60-23.59-80.66-32.84-34.68-80.26-50.95-126.59-57.84-17.63-2.55-35.5-3.51-53.32-3.28z"/>
      <path id="path3597" opacity=".99" fill-rule="evenodd" fill="url(#radialGradient2258)" d="m523.1 375.81c-96.03 1.83-191.34 6.39-272.2 65.05-55.61 41.19-114.56 27.92-174.43 58.35-26.017 6.34-67.588 16.58-48.198 70.85 25.661 71.83 109.39 97.91 243.7 112.95 148.27 16.61 249.49 47.66 375.29-44.74 69.05-50.71 107.29-150.17 52.89-227.88-45.29-52.9-109.79-34.51-177.05-34.58z"/>
      <path id="path2160" fill-rule="evenodd" fill="#d0e088" d="m426.57 594.28c-63.84 1.7-333.56 62.53-387.78-21.39-55.988-86.64 114.37-81.9 207.58-140.06 422.16-263.44 719.98 147.01 180.2 161.45z"/>
      <path id="path3331" stroke-linejoin="round" d="m622.23 592.1c-63.83 1.71-333.55 62.53-387.78-21.39-55.98-86.64 114.38-81.9 207.59-140.06 422.15-263.44 719.96 147.02 180.19 161.45z" mask="url(#mask3447)" transform="translate(-194.95 4.3197)" filter="url(#filter3441)" stroke="#00fd0a" stroke-linecap="round" stroke-width="16.359" fill="none"/>
      <path id="path2179" fill-rule="evenodd" fill="#755423" d="m394.01 348.7c72.13-39.57 206.5-16.37 218.13 100.65-48.61 83.89-211.53 102.96-299.36 40.43-1.73-45.78 36.5-116.55 81.23-141.08z"/>
      <path id="path3633" filter="url(#filter3811)" fill-rule="evenodd" fill="url(#radialGradient2260)" d="m394.01 348.7c72.13-39.57 206.5-16.37 218.13 100.65-48.61 83.89-211.53 102.96-299.36 40.43-1.73-45.78 36.5-116.55 81.23-141.08z"/>
      <path id="path3815" filter="url(#filter3851)" fill-rule="evenodd" fill="url(#radialGradient2262)" d="m394.01 348.7c72.13-39.57 206.5-16.37 218.13 100.65-48.61 83.89-211.53 102.96-299.36 40.43-1.73-45.78 36.5-116.55 81.23-141.08z"/>
      <path id="path3623" fill-rule="evenodd" fill="url(#radialGradient2264)" d="m394.01 348.7c72.13-39.57 206.5-16.37 218.13 100.65-48.61 83.89-211.53 102.96-299.36 40.43-1.73-45.78 36.5-116.55 81.23-141.08z"/>
      <path id="path3861" filter="url(#filter3899)" fill-rule="evenodd" fill="url(#radialGradient2266)" d="m394.01 348.7c72.13-39.57 206.5-16.37 218.13 100.65-48.61 83.89-211.53 102.96-299.36 40.43-1.73-45.78 36.5-116.55 81.23-141.08z"/>
    </g>
  </g>
  <metadata>
    <rdf:RDF>
      <cc:Work>
        <dc:format>image/svg+xml</dc:format>
        <dc:type rdf:resource="http://purl.org/dc/dcmitype/StillImage"/>
        <cc:license rdf:resource="http://creativecommons.org/licenses/publicdomain/"/>
        <dc:publisher>
          <cc:Agent rdf:about="http://openclipart.org/">
            <dc:title>Openclipart</dc:title>
          </cc:Agent>
        </dc:publisher>
        <dc:title>avocado</dc:title>
        <dc:date>2007-05-05T06:02:39</dc:date>
        <dc:description>avocado, avocado, clip art, clipart, food, food, fruit, fruit, image, media, png, public domain, svg, </dc:description>
        <dc:source>http://openclipart.org/detail/4359/avocado-by-pipo</dc:source>
        <dc:creator>
          <cc:Agent>
            <dc:title>pipo</dc:title>
          </cc:Agent>
        </dc:creator>
        <dc:subject>
          <rdf:Bag>
            <rdf:li>avocado</rdf:li>
            <rdf:li>clip art</rdf:li>
            <rdf:li>clipart</rdf:li>
            <rdf:li>food</rdf:li>
            <rdf:li>fruit</rdf:li>
            <rdf:li>image</rdf:li>
            <rdf:li>media</rdf:li>
            <rdf:li>png</rdf:li>
            <rdf:li>public domain</rdf:li>
            <rdf:li>svg</rdf:li>
          </rdf:Bag>
        </dc:subject>
      </cc:Work>
      <cc:License rdf:about="http://creativecommons.org/licenses/publicdomain/">
        <cc:permits rdf:resource="http://creativecommons.org/ns#Reproduction"/>
        <cc:permits rdf:resource="http://creativecommons.org/ns#Distribution"/>
        <cc:permits rdf:resource="http://creativecommons.org/ns#DerivativeWorks"/>
      </cc:License>
    </rdf:RDF>
  </metadata>
</svg>
