<?xml version="1.0" encoding="UTF-8" standalone="no"?>
<!-- Created with Inkscape (http://www.inkscape.org/) -->

<svg
   xmlns:dc="http://purl.org/dc/elements/1.1/"
   xmlns:cc="http://creativecommons.org/ns#"
   xmlns:rdf="http://www.w3.org/1999/02/22-rdf-syntax-ns#"
   xmlns:svg="http://www.w3.org/2000/svg"
   xmlns="http://www.w3.org/2000/svg"
   xmlns:sodipodi="http://sodipodi.sourceforge.net/DTD/sodipodi-0.dtd"
   xmlns:inkscape="http://www.inkscape.org/namespaces/inkscape"
   width="37.328133mm"
   height="45.917797mm"
   viewBox="0 0 37.328133 45.917797"
   version="1.1"
   id="svg4291"
   inkscape:version="0.91+devel r"
   sodipodi:docname="bell_pepper.svg">
  <title
     id="title5049">Red Sweet Pepper (Vegetable)</title>
  <defs
     id="defs4285" />
  <sodipodi:namedview
     id="base"
     pagecolor="#ffffff"
     bordercolor="#666666"
     borderopacity="1.0"
     inkscape:pageopacity="0.0"
     inkscape:pageshadow="2"
     inkscape:zoom="1"
     inkscape:cx="63.864772"
     inkscape:cy="86.925569"
     inkscape:document-units="mm"
     inkscape:current-layer="layer1"
     showgrid="false"
     inkscape:snap-global="false"
     fit-margin-top="0"
     fit-margin-left="0"
     fit-margin-right="0"
     fit-margin-bottom="0"
     inkscape:window-width="1855"
     inkscape:window-height="1056"
     inkscape:window-x="65"
     inkscape:window-y="24"
     inkscape:window-maximized="1" />
  <metadata
     id="metadata4288">
    <rdf:RDF>
      <cc:Work
         rdf:about="">
        <dc:format>image/svg+xml</dc:format>
        <dc:type
           rdf:resource="http://purl.org/dc/dcmitype/StillImage" />
        <dc:title>Red Sweet Pepper (Vegetable)</dc:title>
        <cc:license
           rdf:resource="http://creativecommons.org/publicdomain/zero/1.0/" />
        <dc:date>2015-10-12</dc:date>
        <dc:creator>
          <cc:Agent>
            <dc:title>Devonique Scolley &amp; Martin Owens</dc:title>
          </cc:Agent>
        </dc:creator>
        <dc:rights>
          <cc:Agent>
            <dc:title>None Retained</dc:title>
          </cc:Agent>
        </dc:rights>
        <dc:publisher>
          <cc:Agent>
            <dc:title>OpenClipart.org</dc:title>
          </cc:Agent>
        </dc:publisher>
        <dc:source>https://openclipart.org/detail/229772/vector-vegetables</dc:source>
        <dc:subject>
          <rdf:Bag>
            <rdf:li>sweet pepper</rdf:li>
            <rdf:li>red</rdf:li>
            <rdf:li>capsicum</rdf:li>
            <rdf:li>bell pepper</rdf:li>
            <rdf:li>vegetable</rdf:li>
            <rdf:li>greens</rdf:li>
            <rdf:li>hearty</rdf:li>
            <rdf:li>salad</rdf:li>
            <rdf:li>ingrediant</rdf:li>
          </rdf:Bag>
        </dc:subject>
        <dc:description>A modified bell pepper from Devonique</dc:description>
      </cc:Work>
      <cc:License
         rdf:about="http://creativecommons.org/publicdomain/zero/1.0/">
        <cc:permits
           rdf:resource="http://creativecommons.org/ns#Reproduction" />
        <cc:permits
           rdf:resource="http://creativecommons.org/ns#Distribution" />
        <cc:permits
           rdf:resource="http://creativecommons.org/ns#DerivativeWorks" />
      </cc:License>
    </rdf:RDF>
  </metadata>
  <g
     inkscape:label="Layer 1"
     inkscape:groupmode="layer"
     id="layer1"
     transform="translate(32.918563,-118.33876)">
    <path
       style="fill:#d40000;fill-rule:evenodd;stroke:none;stroke-width:0.32904759px;stroke-linecap:butt;stroke-linejoin:miter;stroke-opacity:1"
       d="m -32.893982,137.62813 c 0.17014,1.1059 4.253486,16.41846 5.614604,19.05562 2.538906,4.15677 4.542737,7.45309 10.888926,7.57121 1.083906,0.0469 3.574405,-0.9446 4.168422,-2.38195 0.407117,-0.98511 0,-1.95661 1.190975,-0.93577 1.1909772,1.02084 2.0416736,1.70139 3.7430701,1.78647 1.701394,0.0851 4.1684158,-0.25521 6.1250218,-2.63716 2.5532047,-2.69798 3.914626,-5.90688 3.5729297,-9.69796 0.1701368,-0.68055 1.7013928,-1.87153 1.9566023,-3.91321 0.2552095,-2.04168 -0.6840828,-15.031 -1.2760464,-17.18409 -0.7699117,-2.80033 -5.4511277,-4.85941 -6.3802296,-4.33856 -1.0360193,-2.01619 -7.7251729,-5.39286 -10.8038599,-2.38195 -0.850698,0.93577 -1.171536,2.20802 -2.041675,1.61633 -1.06337,-0.7231 -2.977441,-1.19098 -4.083346,-1.02084 -1.10591,0.17013 -4.338559,1.53125 -5.104186,2.12675 -2.612738,1.37876 -3.366803,2.58963 -4.08335,5.61459 -1.965815,1.26638 -3.743476,4.55248 -3.487858,6.72052 z"
       id="path4326"
       inkscape:connector-curvature="0"
       sodipodi:nodetypes="cccsssccssccssccc" />
    <path
       sodipodi:nodetypes="cscssscscscsssssssscsssssscscsssscssscsscssc"
       inkscape:connector-curvature="0"
       id="path4328"
       d="m -28.810634,132.18365 c 0.340279,0.17015 3.06251,0.5955 3.658,1.53127 0.595487,0.93576 1.786465,1.87153 1.786465,1.87153 0,0 3.913209,-1.78646 5.784742,-1.9566 1.871535,-0.17014 5.529534,0.85069 6.38023,1.19098 0.8507,0.34027 1.020838,-2.29689 2.6371656,-3.23266 1.616325,-0.93577 4.0833464,-1.02083 4.0833464,-1.02083 0,0 -0.9357654,-1.10591 -0.3402786,-2.89237 0.5954886,-1.78647 1.7013945,-2.29689 1.7013945,-2.29689 0,0 3.23265117,0.59548 3.91321075,1.02084 0.68055585,0.42535 2.38195235,3.99828 2.38195235,3.99828 0,0 -0.5104178,1.10591 -2.0416738,1.44618 -1.53125595,0.34027 -2.7222334,1.27605 -2.8073024,2.38195 -0.085065,1.10591 -1.0208369,1.7014 -1.7013964,1.87154 -0.6805559,0.17014 -2.2968814,0.42535 -2.8073004,1.70139 -0.5104178,1.27606 -2.2968833,2.5521 -3.7430703,1.95661 -1.4461847,-0.59549 -2.7222307,1.87154 -2.2118127,3.99828 0.510419,2.12674 0.255209,14.46186 0.255209,14.97228 0,0.51041 -0.595487,3.48786 -0.8507,3.82813 -0.255206,0.34028 -2.807299,1.44619 -2.807299,1.44619 0,0 1.020837,-5.3594 1.190975,-8.25177 0.170141,-2.89237 0.170141,-7.23092 -0.850697,-10.63372 -1.020837,-3.40278 -2.977439,-7.23092 -3.913209,-6.21009 -0.935767,1.02084 -0.850696,2.72224 -2.807302,1.19098 -1.956602,-1.53125 -1.446184,-2.63716 -4.168418,-2.04168 -2.722231,0.59549 -2.722231,-0.93577 -3.998277,-0.93577 -1.276046,0 -0.850696,3.4028 -0.850696,3.4028 0,0 -1.616328,-2.72224 -1.276047,-4.08335 0.340278,-1.36111 2.381953,-4.42363 2.381953,-4.42363 0,0 1.361115,-0.2552 1.871533,-1.19097 0.510419,-0.93577 1.701398,-2.5521 3.062512,-3.57293 1.361115,-1.02085 4.168419,-2.8073 5.444465,-2.46703 1.276047,0.34028 1.616324,0.42535 2.296883,1.19097 0.680556,0.76564 1.616325,1.27606 1.616325,1.27606 0,0 1.446185,-1.53126 2.467022,-2.04168 1.020837,-0.51042 0.255209,-1.9566 2.296883,-2.12674 2.0416751,-0.17015 4.9340465,-0.17015 5.4444656,1.19097 0.5104178,1.36112 -1.4461882,3.65801 -1.4461882,3.65801 0,0 -1.6163237,-1.78647 -1.9566023,-2.04168 -0.3402785,-0.25521 -2.7222331,-0.25521 -3.4027901,0.8507 -0.680559,1.1059 -3.40279,1.87154 -3.40279,1.87154 0,0 -0.765628,-1.61633 -2.722234,-0.5955 -1.956602,1.02084 -4.934045,3.99828 -5.869811,4.16841 -0.935769,0.17015 -4.678837,0 -4.678837,0 z"
       style="fill:#df0000;fill-opacity:1;fill-rule:evenodd;stroke:none;stroke-width:0.32904759px;stroke-linecap:butt;stroke-linejoin:miter;stroke-opacity:1" />
    <path
       style="fill:#000000;fill-rule:evenodd;stroke:none;stroke-width:0.26458332px;stroke-linecap:butt;stroke-linejoin:miter;stroke-opacity:1;font-variant-east_asian:normal;opacity:1;fill-opacity:0.11111109;stroke-miterlimit:4;stroke-dasharray:none;stroke-dashoffset:0"
       d="m -25.66541,133.16312 6.123564,-0.83233 -1.010685,-0.89178 2.913152,-0.65397 1.486301,-1.96192 4.696714,-0.65397 2.794248,1.4863 c 0,0 1.0701374,1.6052 0.8323289,1.6052 -0.2378083,0 -3.2698639,3.62658 -3.2698639,3.62658 l -3.864385,-0.77288 -2.794248,1.07014 -1.307945,-1.42685 -2.734796,1.01069 0.772877,-1.48631 z"
       id="path8307"
       inkscape:connector-curvature="0" />
    <path
       inkscape:connector-curvature="0"
       id="path4330"
       d="m -18.857473,133.45971 -1.105906,-0.25521 1.276047,-0.34029 -0.340281,-0.93576 h 1.190977 v -0.76563 l 0.935769,0.17014 0.765625,-1.19097 c 0,0 1.10591,0.59549 1.446187,0.51041 0.340278,-0.0851 1.616325,-1.10591 1.616325,-1.10591 0,0 2.296883,0.17015 2.637162,0.42535 0.340281,0.25521 1.2760461,0.25521 1.2760461,0.25521 v 1.10591 c 0,0 -0.4253463,0.51042 -0.6805559,1.27605 -0.2552092,0.76563 -1.1909772,2.21182 -1.1909772,2.21182 0,0 -2.552094,-1.36112 -4.423628,-1.27606 -1.871534,0.0851 -3.40279,-0.0851 -3.40279,-0.0851 z"
       style="fill:#668000;fill-rule:evenodd;stroke:none;stroke-width:0.32904759px;stroke-linecap:butt;stroke-linejoin:miter;stroke-opacity:1" />
    <path
       sodipodi:nodetypes="ccccsscssc"
       inkscape:connector-curvature="0"
       id="path4332"
       d="m -16.390452,131.50311 c 0,0 0.510419,-5.27434 1.190978,-6.89065 1.030067,-1.64232 2.674476,-4.88897 4.338559,-6.03996 3.7063557,-1.0003 4.8223774,1.37987 5.6996741,3.91321 0,0 -0.42535,0.68055 -1.7013965,1.02084 -1.2760476,0.34027 -3.4027906,0.59548 -4.2534866,2.29688 -0.850697,1.7014 -1.190979,6.38022 -1.190979,6.38022 0,0 0.25521,0.51043 -0.935765,0.68056 -1.190978,0.17015 -1.276047,0.42535 -2.296884,0.0851 -1.020836,-0.34029 -0.8507,-1.44619 -0.8507,-1.44619 z"
       style="fill:#338000;fill-rule:evenodd;stroke:none;stroke-width:0.32904759px;stroke-linecap:butt;stroke-linejoin:miter;stroke-opacity:1" />
    <path
       style="fill:#000000;fill-opacity:0.11111109;fill-rule:evenodd;stroke:none;stroke-width:0.26458332px;stroke-linecap:butt;stroke-linejoin:miter;stroke-opacity:1"
       d="m 0.43405081,137.44367 c 2.49459359,1.93818 2.17229129,8.8675 3.86438649,9.69069 -0.5501905,1.44563 -1.1977655,2.26392 -1.9024677,3.09151 0.00108,-3.29317 -1.0121524,-9.64751 -1.96191879,-12.7822 z"
       id="path8250"
       inkscape:connector-curvature="0"
       sodipodi:nodetypes="cccc" />
    <path
       style="opacity:1;fill:#000000;fill-opacity:0.11111109;fill-rule:evenodd;stroke:none;stroke-width:0.26458332px;stroke-linecap:butt;stroke-linejoin:miter;stroke-miterlimit:4;stroke-dasharray:none;stroke-dashoffset:0;stroke-opacity:1"
       d="m -11.694172,150.10696 c 2.6013583,2.17714 -0.609015,14.41732 9.4528801,11.05809 -2.177001,2.51935 -8.1787641,1.70763 -9.4528801,-0.71342 z"
       id="path8252"
       inkscape:connector-curvature="0"
       sodipodi:nodetypes="cccc" />
    <path
       style="fill:#ffffff;fill-opacity:0.39444442;fill-rule:evenodd;stroke:none;stroke-width:0.20842291px;stroke-linecap:butt;stroke-linejoin:miter;stroke-opacity:1"
       d="m -10.900579,138.77788 c 0.216742,-0.91954 0.556002,-1.64971 1.2568739,-1.82096 0.8994442,-0.24074 2.3480045,-1.27978 3.3275858,-2.94158 -1.3179936,0.0949 -2.6360794,0.19425 -3.9836937,1.69513 -0.818287,0.91204 -0.655336,1.99939 -0.600766,3.06741 z"
       id="path8268"
       inkscape:connector-curvature="0"
       sodipodi:nodetypes="ccccc" />
    <path
       style="opacity:1;fill:#ffffff;fill-opacity:0.39444444;fill-rule:evenodd;stroke:none;stroke-width:0.19176646px;stroke-linecap:butt;stroke-linejoin:miter;stroke-miterlimit:4;stroke-dasharray:none;stroke-dashoffset:0;stroke-opacity:1"
       d="m -30.367293,135.16462 c 1.477924,-0.4561 2.650786,-0.0412 2.930124,1.16343 -2.496089,0.44946 -2.282617,1.50282 -3.274845,1.20653 -0.543756,-0.69736 0.118746,-1.78257 0.344721,-2.36996 z"
       id="path8270"
       inkscape:connector-curvature="0"
       sodipodi:nodetypes="cccc" />
    <path
       style="opacity:1;fill:#000000;fill-opacity:0.11111109;fill-rule:evenodd;stroke:none;stroke-width:0.26458332px;stroke-linecap:butt;stroke-linejoin:miter;stroke-miterlimit:4;stroke-dasharray:none;stroke-dashoffset:0;stroke-opacity:1"
       d="m -30.362124,146.71819 c 0.797945,0.59245 6.523371,15.58792 14.684663,17.47891 -4.701779,1.8317 -11.529689,-5.7324 -11.295894,-7.07479 -1.410854,-3.35553 -2.757375,-6.7368 -3.388769,-10.40412 z"
       id="path8286"
       inkscape:connector-curvature="0"
       sodipodi:nodetypes="cccc" />
    <path
       style="opacity:1;fill:#000000;fill-opacity:0.11111109;fill-rule:evenodd;stroke:none;stroke-width:0.26458332px;stroke-linecap:butt;stroke-linejoin:miter;stroke-miterlimit:4;stroke-dasharray:none;stroke-dashoffset:0;stroke-opacity:1"
       d="m -9.9106095,132.03354 c -0.7246125,1.10289 -1.6858465,1.01853 -3.0320565,1.18903 -1.25984,-0.006 -2.974639,0.58081 -3.626576,-1.24849 0.971051,0.10038 1.942101,0.78383 2.913152,-0.11891 l 0.832328,-5.88575 c 0.935176,-1.43889 2.042894,-2.74838 5.4695917,-2.31863 -3.9359447,0.69834 -4.3781907,3.34606 -4.5778097,6.06411 l -1e-6,1.96192 z"
       id="path8314"
       inkscape:connector-curvature="0"
       sodipodi:nodetypes="ccccccccc" />
    <path
       style="opacity:1;fill:#ffffff;fill-opacity:0.39444442;fill-rule:evenodd;stroke:none;stroke-width:0.12979859px;stroke-linecap:butt;stroke-linejoin:miter;stroke-miterlimit:4;stroke-dasharray:none;stroke-dashoffset:0;stroke-opacity:1"
       d="m -23.120387,136.07507 c 1.141209,-0.27061 2.046858,-0.0245 2.262554,0.69027 -1.927405,0.26667 -1.762569,0.89164 -2.528737,0.71585 -0.419873,-0.41375 0.09169,-1.05762 0.266183,-1.40612 z"
       id="path8270-5"
       inkscape:connector-curvature="0"
       sodipodi:nodetypes="cccc" />
    <path
       style="opacity:1;fill:#ffffff;fill-opacity:0.39444442;fill-rule:evenodd;stroke:none;stroke-width:0.12979859px;stroke-linecap:butt;stroke-linejoin:miter;stroke-miterlimit:4;stroke-dasharray:none;stroke-dashoffset:0;stroke-opacity:1"
       d="m -3.9380955,126.55007 c 1.141209,-0.27061 2.046858,-0.0245 2.262554,0.69027 -1.927405,0.26667 -1.762569,0.89164 -2.528737,0.71585 -0.419873,-0.41375 0.09169,-1.05762 0.266183,-1.40612 z"
       id="path8270-5-4"
       inkscape:connector-curvature="0"
       sodipodi:nodetypes="cccc" />
    <path
       style="opacity:1;fill:#ffffff;fill-opacity:0.39444442;fill-rule:evenodd;stroke:none;stroke-width:0.16866092px;stroke-linecap:butt;stroke-linejoin:miter;stroke-miterlimit:4;stroke-dasharray:none;stroke-dashoffset:0;stroke-opacity:1"
       d="m -24.675453,126.26832 c 1.748551,-0.85361 3.278797,-1.09278 3.846303,-0.5258 -3.012066,1.26066 -2.554008,1.76882 -3.838546,2.00198 -0.802174,-0.17405 -0.180072,-1.05361 -0.0078,-1.47618 z"
       id="path8270-5-5"
       inkscape:connector-curvature="0"
       sodipodi:nodetypes="cccc" />
  </g>
</svg>
