<?xml version="1.0" encoding="UTF-8" standalone="no"?>
<!-- Created with Inkscape (http://www.inkscape.org/) -->
<svg xmlns:inkscape="http://www.inkscape.org/namespaces/inkscape" xmlns:rdf="http://www.w3.org/1999/02/22-rdf-syntax-ns#" xmlns="http://www.w3.org/2000/svg" xmlns:xlink="http://www.w3.org/1999/xlink" xmlns:ns1="http://sozi.baierouge.fr" xmlns:cc="http://creativecommons.org/ns#" xmlns:sodipodi="http://sodipodi.sourceforge.net/DTD/sodipodi-0.dtd" xmlns:dc="http://purl.org/dc/elements/1.1/" id="svg2" xml:space="preserve" viewBox="0 0 41.099 39.85" version="1.1" inkscape:version="0.91 r13725">
  <g id="g10" transform="matrix(1.25 0 0 -1.25 0 39.85)">
    <g id="g12">
      <path id="path14" style="fill-rule:evenodd;fill:#e7d06b" d="m32.238 12.681-0.238-0.199h-0.039l-0.199-0.161-0.602-0.363c-0.055-0.051-0.121-0.09-0.199-0.117-0.02-0.004-0.039-0.004-0.063 0-1.273-0.18-2.171 0.035-2.699 0.641-0.027 0.023-0.039 0.05-0.039 0.078-0.055 0.054-0.094 0.105-0.121 0.16-0.078 0.133-0.133 0.265-0.16 0.398-0.024 0.082-0.051 0.16-0.078 0.242v0.04c0.027 0.027 0.039 0.054 0.039 0.082l0.16 0.078c0.055 0.027 0.121 0.054 0.199 0.082-0.078-0.188-0.027-0.403 0.16-0.641 0.161-0.187 0.426-0.336 0.801-0.441 0.375-0.106 0.785-0.149 1.238-0.121 0.481 0.027 0.922 0.121 1.321 0.281 0.453 0.16 0.828 0.398 1.121 0.719h0.039l-0.199-0.278c-0.082-0.082-0.172-0.176-0.282-0.281-0.05-0.055-0.105-0.121-0.16-0.199zm-8.636 19.199 0.078-0.281c0-0.078 0.015-0.16 0.043-0.239v-0.082l0.039-0.277v-0.242c0.023-0.266 0.039-0.531 0.039-0.801 0-0.078-0.016-0.156-0.039-0.238l-0.121-1.199c-0.016-0.055-0.028-0.106-0.039-0.161-0.829-1.359-1.68-1.949-2.563-1.761-0.027 0.027-0.066 0.043-0.117 0.043-0.055 0.023-0.121 0.05-0.203 0.078-0.16 0.055-0.305 0.148-0.438 0.281-0.074 0.047-0.148 0.109-0.222 0.18l-0.02 0.019v0.039c-0.027 0.028-0.039 0.067-0.039 0.121v0.079l0.039 0.203c0.027 0.078 0.055 0.144 0.082 0.199 0.078-0.293 0.293-0.481 0.641-0.563 0.265-0.05 0.586 0.028 0.957 0.243 0.347 0.238 0.668 0.558 0.961 0.961 0.347 0.453 0.597 0.957 0.758 1.519 0.187 0.613 0.242 1.227 0.16 1.84v0.039h0.004zm-3.403-6.281c-0.027-0.051-0.054-0.106-0.078-0.16l-0.121-0.278c-0.078-0.027-0.172-0.043-0.281-0.043h-0.399c-0.215 0-0.414 0.055-0.601 0.16-0.024 0-0.051 0.016-0.078 0.043-0.746 0.399-1.055 1.348-0.922 2.84 0.019 0.067 0.047 0.133 0.082 0.199l0.679 1.161c0.028 0.027 0.051 0.066 0.079 0.121l0.441 0.597h0.039v0.039l0.281 0.321c0.078 0.054 0.149 0.109 0.2 0.16l0.242 0.242h0.019l-0.019-0.043c-0.403-0.453-0.707-0.973-0.922-1.558-0.215-0.532-0.32-1.079-0.32-1.641 0-0.531 0.082-0.984 0.242-1.359 0.16-0.399 0.359-0.653 0.597-0.758 0.055-0.028 0.094-0.043 0.121-0.043 0.079-0.024 0.161-0.039 0.239-0.039 0.16-0.028 0.293 0 0.402 0.082 0.024 0.023 0.051 0.05 0.078 0.078v-0.121zm-1.519-1.239-0.16-0.199c-0.051 0.078-0.094 0.16-0.122 0.239 0.11-0.028 0.204-0.04 0.282-0.04zm3.121-0.679c-1.469-0.586-2.496-0.547-3.082 0.121v0.039c0.027 0.051 0.054 0.094 0.082 0.117 0.105 0.137 0.211 0.27 0.32 0.402 0.16-0.105 0.387-0.175 0.68-0.199 0.426-0.054 0.879 0 1.359 0.16 0.559 0.161 1.067 0.399 1.52 0.719 0.508 0.371 0.918 0.828 1.242 1.36l0.039 0.039-0.121-0.239c-0.051-0.105-0.117-0.226-0.199-0.359l-0.2-0.32v-0.039l-0.043-0.043-0.398-0.559-0.078-0.078-0.32-0.402-0.723-0.641c-0.027-0.024-0.051-0.051-0.078-0.078zm-1.52-2.922c-0.019-0.004-0.031-0.012-0.043-0.02-0.023-0.007-0.05-0.011-0.078-0.019-1.453-0.352-2.43-0.164-2.922 0.558-0.078 0.11-0.144 0.243-0.199 0.403l0.359 0.48c0.028-0.082 0.067-0.148 0.122-0.203 0.16-0.238 0.441-0.398 0.839-0.476 0.426-0.082 0.895-0.082 1.403 0 0.531 0.105 1.05 0.304 1.558 0.597 0.559 0.293 1.028 0.696 1.399 1.199h0.043l-0.282-0.398c-0.117-0.152-0.234-0.313-0.359-0.48-0.055-0.063-0.109-0.129-0.16-0.2l-0.32-0.281c-0.028-0.051-0.055-0.094-0.082-0.117l-1.161-0.961c-0.039-0.027-0.082-0.055-0.117-0.082zm-1.883-4-0.32-0.277c-0.105-0.11-0.211-0.204-0.316-0.282l-0.883-0.601c-0.024-0.016-0.051-0.028-0.078-0.039l-0.039-0.039h-0.043c-1.524-0.313-2.508-0.086-2.957 0.679-0.137 0.239-0.215 0.508-0.242 0.801l0.441 0.559c-0.082-0.215-0.039-0.442 0.117-0.68 0.137-0.238 0.402-0.414 0.801-0.52 0.402-0.105 0.867-0.132 1.402-0.082 0.531 0.055 1.067 0.215 1.598 0.481 0.562 0.266 1.043 0.641 1.441 1.121h0.039l-0.281-0.398c-0.133-0.137-0.266-0.282-0.398-0.442l-0.282-0.281zm0.403 1.402c-0.082-0.054-0.149-0.094-0.199-0.121-1.547-0.32-2.547-0.094-3 0.68-0.137 0.187-0.215 0.414-0.243 0.68l0.403 0.558c-0.028-0.183 0.011-0.371 0.117-0.558 0.133-0.239 0.414-0.426 0.84-0.559 0.402-0.106 0.855-0.133 1.359-0.082 0.563 0.082 1.094 0.242 1.602 0.48 0.586 0.293 1.082 0.668 1.48 1.121l0.039 0.04-0.277-0.399c-0.137-0.133-0.27-0.281-0.402-0.441-0.079-0.078-0.145-0.16-0.2-0.239l-0.32-0.281c-0.055-0.027-0.105-0.066-0.16-0.121l-1.039-0.758zm0.64-6.402c0.348 0.082 0.692 0.148 1.039 0.199 0.106-0.023 0.227-0.051 0.36-0.078 0.293-0.027 0.558 0.039 0.801 0.199-0.082 0-0.161 0.016-0.243 0.039 0 0.028-0.011 0.043-0.039 0.043h-0.039v0.039c-0.265 0.106-0.48 0.254-0.64 0.442-0.5 0.574-0.407 1.367 0.281 2.379 0.012 0.019 0.027 0.043 0.039 0.058 0.078 0.055 0.172 0.106 0.281 0.16l0.239 0.161 0.601 0.281c0.051 0.027 0.106 0.054 0.16 0.078l0.321 0.082c0.078 0.027 0.16 0.051 0.238 0.078 0.16 0.047 0.32 0.086 0.48 0.121l0.403 0.039c-0.508-0.105-0.961-0.32-1.364-0.64-0.371-0.266-0.664-0.586-0.879-0.957-0.214-0.375-0.332-0.735-0.359-1.082-0.027-0.321 0.039-0.575 0.199-0.758 0.215-0.215 0.442-0.309 0.68-0.282-0.027-0.027-0.051-0.054-0.078-0.082l-0.082-0.078c0.187 0.028 0.375 0.055 0.558 0.078 0.082 0.028 0.176 0.043 0.282 0.043 0.109 0.028 0.215 0.039 0.32 0.039 0.105-0.054 0.238-0.093 0.398-0.121-0.132-0.027-0.304-0.054-0.519-0.078-0.238-0.054-0.504-0.109-0.801-0.16-0.266-0.055-0.558-0.121-0.879-0.199-0.105-0.027-0.211-0.055-0.32-0.082-0.078-0.028-0.16-0.039-0.238-0.039-0.293-0.082-0.575-0.16-0.84-0.242-1.039-0.266-2.055-0.571-3.039-0.918-1.496-0.536-3.067-1.2-4.723-2-0.078-0.028-0.16-0.067-0.238-0.121 0.054 0.054 0.094 0.093 0.121 0.121h-0.32l-0.161 0.039c-0.027 0-0.043 0.015-0.043 0.043l-0.16 0.039-0.039 0.039c-0.027 0-0.054 0.011-0.078 0.039l-0.043 0.039-0.68-0.32-0.117-0.039c-0.019-0.016-0.043-0.028-0.062-0.04h-0.02c-1.144-0.054-1.906 0.172-2.277 0.68 0.133 0.188 0.266 0.387 0.398 0.602v-0.043c0.078-0.106 0.227-0.211 0.442-0.321 0.316-0.132 0.691-0.211 1.117-0.238h0.359c0.188 0 0.375 0.027 0.563 0.078 0.16 0.028 0.332 0.071 0.519 0.121h0.078c0.321 0.106 0.629 0.266 0.922 0.481 0.055 0.027 0.106 0.055 0.16 0.082 0.079 0.051 0.145 0.105 0.2 0.156l0.039 0.043-0.16-0.199c-0.028-0.027-0.051-0.043-0.079-0.043-0.05-0.047-0.093-0.094-0.14-0.141l-0.02-0.019c-0.082-0.078-0.175-0.16-0.281-0.239-0.078-0.054-0.16-0.109-0.238-0.16l-0.281-0.199c0.027-0.027 0.054-0.043 0.082-0.043 0.078-0.078 0.171-0.117 0.277-0.117 0.109-0.027 0.199-0.016 0.281 0.039 0 0.027 0.012 0.066 0.039 0.121 0.242 0.106 0.481 0.211 0.723 0.316 0.211-0.078 0.437-0.089 0.68-0.039 0.265 0.082 0.492 0.215 0.679 0.403-0.082 0-0.187 0.011-0.32 0.039-0.055 0-0.106 0.012-0.16 0.039-0.106 0.027-0.199 0.055-0.281 0.082-0.051 0.027-0.106 0.066-0.161 0.117-0.238 0.16-0.386 0.402-0.437 0.723l-0.402-0.16c-0.055-0.028-0.094-0.043-0.122-0.043h-0.117c-0.32-0.024-0.613-0.012-0.883 0.043-0.21 0.027-0.398 0.066-0.558 0.117h-0.078c-0.508 0.187-0.84 0.496-1 0.922 0 0.023-0.008 0.054-0.024 0.097 0.125 0.207 0.254 0.399 0.383 0.582 0-0.027 0.012-0.054 0.039-0.082 0.078-0.265 0.293-0.476 0.641-0.636 0.133-0.055 0.277-0.11 0.437-0.161 0.137-0.027 0.27-0.054 0.403-0.082 0.132-0.027 0.281-0.039 0.437-0.039h0.844c0.211 0.051 0.437 0.106 0.68 0.161h0.039c0.371 0.105 0.718 0.253 1.039 0.441 0.16 0.105 0.308 0.211 0.441 0.316 0.024 0.028 0.051 0.043 0.078 0.043h-0.078c0.024 0.293 0.133 0.641 0.32 1.039l-0.281-0.16-0.238-0.16c-0.047-0.027-0.094-0.055-0.141-0.078-0.015-0.012-0.039-0.027-0.062-0.043h-0.039c-0.239-0.023-0.481-0.051-0.719-0.078-0.188-0.028-0.375-0.028-0.563 0-0.183 0-0.359 0.027-0.519 0.078-0.531 0.109-0.906 0.359-1.117 0.762-0.11 0.215-0.176 0.441-0.203 0.679-0.067-0.082-0.133-0.168-0.2-0.261 0.2 0.293 0.403 0.578 0.602 0.863-0.027-0.188 0.012-0.387 0.117-0.602 0.137-0.238 0.402-0.425 0.801-0.558 0.402-0.11 0.867-0.149 1.402-0.121v0.039h0.321c0.132 0.027 0.265 0.054 0.398 0.082 0.293 0.078 0.586 0.183 0.879 0.32 0.586 0.266 1.082 0.625 1.48 1.078l0.039 0.039c0-0.027-0.011-0.051-0.039-0.078l-0.281-0.359c-0.023 0-0.039-0.016-0.039-0.043l0.199 0.121c0.055 0.027 0.11 0.055 0.16 0.082 0.157 0.066 0.301 0.117 0.442 0.16l0.398 0.117h0.043c-0.508-0.183-0.949-0.465-1.32-0.84-0.348-0.343-0.613-0.734-0.801-1.16-0.187-0.398-0.293-0.773-0.32-1.117 0-0.348 0.082-0.617 0.238-0.801 0.137-0.133 0.281-0.215 0.442-0.242 0.082 0 0.16 0.016 0.242 0.043l-0.043-0.043c0.375 0.133 0.75 0.254 1.121 0.359 0.133-0.05 0.281-0.078 0.441-0.078 0.293 0 0.559 0.078 0.797 0.239-0.105 0-0.211 0.027-0.316 0.082-0.028 0-0.043 0.011-0.043 0.039-0.239 0.105-0.438 0.242-0.598 0.402-0.473 0.578-0.379 1.402 0.277 2.477-0.105-0.094-0.21-0.188-0.32-0.278 0.11 0.106 0.227 0.211 0.363 0.321 0.079 0.05 0.161 0.105 0.239 0.16l0.199 0.16 0.519 0.277c0.11 0.055 0.215 0.106 0.321 0.16l0.32 0.122h0.02c0.07 0.027 0.129 0.054 0.179 0.078 0.188 0.054 0.348 0.093 0.481 0.121l0.359 0.082c-0.484-0.141-0.926-0.383-1.316-0.723-0.348-0.293-0.629-0.641-0.84-1.039-0.215-0.371-0.336-0.734-0.36-1.078-0.027-0.348 0.04-0.617 0.2-0.801 0.211-0.215 0.437-0.305 0.679-0.281zm6.079 4.16h0.199c0.16 0.027 0.32 0.055 0.48 0.082h0.403c-0.52-0.062-1-0.223-1.442-0.48-0.375-0.215-0.68-0.496-0.922-0.84-0.238-0.321-0.383-0.656-0.437-1-0.055-0.321 0-0.574 0.16-0.762 0.105-0.16 0.238-0.266 0.398-0.32 0.082-0.024 0.161-0.039 0.243-0.039-0.028-0.028-0.067-0.055-0.122-0.078l-0.16-0.122c-0.027 0-0.066-0.015-0.121-0.039-0.051 0.028-0.121 0.051-0.199 0.079-0.027 0.027-0.066 0.054-0.121 0.082h-0.039v0.039l-0.52 0.398c0 0.027-0.011 0.055-0.039 0.082-0.027 0.024-0.054 0.066-0.082 0.117l0.602 2.184v0.019c0.078 0.051 0.172 0.094 0.277 0.118l0.281 0.16 0.52 0.16c0.109 0.027 0.215 0.055 0.32 0.082l0.321 0.078zm1.601-3.437c-0.027-0.028-0.055-0.04-0.082-0.043-0.027-0.028-0.051-0.039-0.078-0.039l-0.16-0.079h-0.121c-0.028 0-0.055 0.012-0.082 0.039-0.078 0.028-0.16 0.079-0.239 0.161-0.054 0.027-0.105 0.066-0.16 0.121-0.16 0.133-0.281 0.277-0.359 0.437-0.028 0.028-0.039 0.055-0.039 0.082-0.321 0.641-0.043 1.321 0.84 2.039 0.089 0.032 0.183 0.059 0.281 0.078l0.277 0.082 0.602 0.079c0.105 0.027 0.226 0.043 0.359 0.043l0.36 0.039h0.16c0.183-0.008 0.355-0.02 0.519-0.039l0.442-0.043h0.039l-0.039-0.039c-0.563 0.054-1.082-0.012-1.563-0.2-0.398-0.16-0.758-0.386-1.078-0.679-0.266-0.266-0.453-0.547-0.562-0.84-0.079-0.293-0.067-0.547 0.042-0.762 0.028-0.027 0.051-0.051 0.079-0.078 0.027-0.055 0.066-0.106 0.121-0.16 0.132-0.106 0.281-0.176 0.441-0.199zm-10.043 16.398 0.043 0.078v-0.039c-0.012-0.012-0.027-0.027-0.043-0.039zm-0.598-0.719c-0.027-0.027-0.039-0.054-0.039-0.082v0.039c0 0.028 0.012 0.043 0.039 0.043zm-1.742-1.543c-0.332-0.5-0.55-1.066-0.66-1.699-0.105-0.559-0.105-1.117 0-1.68 0.082-0.504 0.227-0.933 0.442-1.281 0.214-0.371 0.453-0.586 0.718-0.637 0.348-0.082 0.629-0.015 0.84 0.2 0-0.082-0.012-0.161-0.039-0.243 0.133 0.161 0.266 0.321 0.402 0.481 0.079 0.082 0.145 0.16 0.2 0.242 0.078 0.106 0.16 0.199 0.238 0.277 0.16 0.028 0.309 0.094 0.441 0.204h0.039c-0.105-0.137-0.238-0.297-0.398-0.481-0.16-0.215-0.359-0.48-0.602-0.801-0.238-0.32-0.519-0.695-0.839-1.121-0.051-0.078-0.106-0.172-0.161-0.277-0.187-0.242-0.386-0.508-0.597-0.801-0.348-0.426-0.707-0.906-1.082-1.441-0.055-0.078-0.106-0.16-0.16-0.239-0.188-0.269-0.387-0.546-0.598-0.839-0.137-0.161-0.254-0.321-0.363-0.481-1.438-1.976-2.68-3.68-3.719-5.121l0.039 0.121v0.039c-0.078-0.082-0.184-0.148-0.32-0.199-0.106-0.027-0.2-0.055-0.278-0.082h-0.121c-0.027-0.024-0.055-0.039-0.082-0.039h-0.238c-0.746 0.082-1.281 0.762-1.602 2.039v0.121l0.203 1.199c0.028 0.055 0.051 0.106 0.079 0.16l0.16 0.481c0 0.027 0.015 0.055 0.039 0.082 0 0.051 0.015 0.09 0.043 0.117v0.082h0.039l0.078 0.199c0.027 0.078 0.055 0.16 0.082 0.239l0.117 0.242v-0.039c-0.183-0.481-0.293-1-0.316-1.563 0-0.48 0.078-0.945 0.238-1.398 0.133-0.426 0.32-0.774 0.559-1.039 0.214-0.27 0.441-0.414 0.679-0.442 0.16 0 0.297 0.028 0.403 0.078 0.105 0.055 0.187 0.137 0.238 0.243v0.121c0.187 0.265 0.359 0.504 0.519 0.718l0.043 0.04c0.266 0.027 0.504 0.148 0.719 0.359 0.215 0.242 0.36 0.519 0.442 0.84-0.11-0.078-0.227-0.145-0.364-0.199-0.05-0.028-0.117-0.051-0.199-0.079-0.105-0.027-0.227-0.054-0.359-0.082h-0.239c-0.824 0.082-1.425 0.821-1.8 2.219v0.024c0.007 0.074 0.023 0.156 0.039 0.238l0.199 1.238c0.027 0.027 0.043 0.055 0.043 0.082l0.199 0.641v0.039c0.016 0.039 0.035 0.082 0.059 0.121 0.023 0.086 0.05 0.164 0.082 0.238l0.058 0.121v0.039c0.028 0.055 0.067 0.121 0.121 0.2l0.118 0.242v-0.039c-0.239-0.535-0.348-1.11-0.321-1.723 0-0.531 0.082-1.051 0.242-1.559 0.161-0.453 0.375-0.828 0.641-1.121s0.52-0.437 0.758-0.437h0.242c0.184 0.023 0.332 0.117 0.438 0.277 0.027 0 0.043 0.016 0.043 0.039 0.183 0.27 0.371 0.535 0.558 0.801 0.106 0.027 0.227 0.082 0.36 0.16 0.265 0.215 0.453 0.481 0.558 0.801-0.078-0.055-0.199-0.094-0.359-0.121h-0.039c-0.028-0.024-0.055-0.039-0.078-0.039-0.297-0.051-0.563-0.051-0.801 0-0.856 0.215-1.36 1.094-1.52 2.64v0.122l0.481 1.398c0 0.027 0.011 0.055 0.039 0.078l0.32 0.684 0.039 0.039v0.039l0.16 0.238c0.106 0.16 0.2 0.309 0.282 0.442l0.117 0.16v-0.039c-0.321-0.508-0.52-1.082-0.598-1.719-0.109-0.563-0.109-1.121 0-1.684 0.106-0.504 0.277-0.933 0.52-1.277 0.214-0.348 0.453-0.563 0.718-0.641 0.266-0.054 0.496-0.015 0.68 0.121 0.055 0.028 0.106 0.067 0.16 0.118v-0.039c0.293 0.402 0.563 0.773 0.801 1.121 0.16 0.027 0.32 0.093 0.48 0.199 0.266 0.215 0.465 0.48 0.598 0.801-0.105-0.055-0.238-0.106-0.398-0.161h-0.039c-0.293-0.054-0.575-0.054-0.84 0-0.879 0.239-1.375 1.145-1.481 2.719 0.012 0.039 0.028 0.082 0.039 0.121l0.282 0.918 0.199 0.442c0 0.027 0.015 0.054 0.039 0.082l0.32 0.636 0.039 0.043v0.02c0.016 0.012 0.028 0.031 0.043 0.059l0.199 0.32c0.051 0.082 0.106 0.148 0.161 0.199l0.199 0.32h0.039l-0.039-0.039c-0.32-0.535-0.535-1.105-0.641-1.718-0.105-0.563-0.121-1.122-0.039-1.68 0.106-0.508 0.266-0.949 0.481-1.32 0.214-0.348 0.453-0.563 0.718-0.641 0.348-0.082 0.629 0 0.84 0.238v-0.039c0.242 0.32 0.496 0.641 0.762 0.961 0.133 0.024 0.266 0.094 0.398 0.199 0.266 0.188 0.469 0.442 0.602 0.758-0.027 0-0.039-0.012-0.039-0.039h-0.043l-0.16-0.078h-0.16c-0.321-0.082-0.614-0.082-0.879 0-0.852 0.211-1.348 1.105-1.481 2.68 0.012 0.066 0.028 0.132 0.039 0.199l0.442 1.238c0.054 0.082 0.093 0.16 0.121 0.242l0.277 0.52c0.02 0.031 0.031 0.058 0.043 0.082l0.039 0.039 0.199 0.32c0.055 0.078 0.106 0.145 0.161 0.199l0.242 0.321v-0.039l-0.024-0.024zm-9.777-22.019c0.16 0.109 0.344 0.242 0.559 0.402 1.414 0.957 2.613 1.719 3.601 2.277 0.504 0.321 1.012 0.614 1.52 0.883h0.078c0.136-0.082 0.281-0.109 0.441-0.082-1.015-0.508-1.867-0.984-2.558-1.437-0.614-0.375-1.309-0.84-2.082-1.403-0.399-0.32-0.961-0.746-1.68-1.281-0.215-0.156-0.399-0.305-0.559-0.437 0.211 0.371 0.438 0.734 0.68 1.078zm6.398 5.722c-0.054-0.187-0.066-0.375-0.039-0.562-0.215 0.027-0.414 0.066-0.601 0.121 0 0.105 0.015 0.227 0.043 0.359l0.597 0.082zm2.563 2.239c-0.082-0.188-0.149-0.375-0.203-0.559-0.239 0.024-0.453 0.051-0.641 0.078 0.027 0.106 0.055 0.199 0.082 0.281l0.762 0.2zm11.199 0c0 0.082 0.012 0.16 0.039 0.242 0.051-0.082 0.117-0.149 0.199-0.203l-0.238-0.039zm5.039-1.879h0.039l-0.16-0.039c-0.133-0.028-0.277-0.055-0.437-0.082l-0.282-0.039c-0.027 0-0.043-0.016-0.043-0.039l-0.558-0.043h-0.078c-0.164-0.008-0.325-0.016-0.481-0.02l-0.48 0.02c-0.164 0.011-0.325 0.023-0.481 0.043-1.254 0.453-1.945 1-2.078 1.636l0.598 0.121c0.082-0.132 0.187-0.254 0.32-0.359 0.266-0.266 0.613-0.508 1.039-0.719 0.481-0.215 0.977-0.359 1.481-0.441 0.562-0.106 1.093-0.121 1.601-0.039zm-28.84-8.961c0.078 0.133 0.172 0.308 0.282 0.519 0.078 0.106 0.16 0.227 0.238 0.36 0.133 0.32 0.265 0.695 0.398 1.121 0.055 0.238 0.121 0.469 0.203 0.68 0.239 0.828 0.399 1.558 0.481 2.203 0.156 0.984 0.223 2.023 0.199 3.117-0.027 1.172-0.148 1.879-0.359 2.121-0.188 0.184-0.442 0.344-0.762 0.48-0.105 0.051-0.215 0.094-0.32 0.118 0.132 0.027 0.254 0.027 0.359 0 0.402-0.028 0.695-0.106 0.883-0.239 0.133-0.133 0.277-0.375 0.437-0.718 0.188-0.481 0.309-1.067 0.36-1.762 0.109-1.465-0.078-3.238-0.559-5.32l0.039 0.039c-0.265-0.321-0.519-0.637-0.758-0.957-0.187-0.243-0.375-0.508-0.562-0.801 0.027-0.133 0.133-0.188 0.32-0.16 0.133 0 0.613 0.558 1.442 1.679 0.664 0.879 1.625 2.227 2.879 4.039 0.425 0.614 0.828 1.188 1.199 1.719h0.082c0.187 0.027 0.359 0.094 0.519 0.203-0.773-1.094-1.441-2.027-2-2.801-0.398-0.585-0.922-1.375-1.558-2.359 0-0.027-0.016-0.043-0.043-0.043-0.184-0.316-0.36-0.598-0.52-0.84-0.293-0.449-0.519-0.797-0.679-1.039-0.051-0.078-0.106-0.144-0.161-0.199-0.078-0.105-0.16-0.227-0.238-0.359-0.187-0.243-0.359-0.454-0.519-0.641-0.137-0.133-0.254-0.254-0.364-0.359-0.05-0.055-0.117-0.106-0.199-0.161-0.23-0.152-0.434-0.191-0.617-0.121-0.02 0.039-0.039 0.078-0.063 0.121-0.027 0.079-0.039 0.172-0.039 0.282v0.078zm13.36 10c-0.078-0.051-0.16-0.106-0.239-0.16-0.082-0.055-0.148-0.106-0.203-0.16l-0.398-0.239c-0.028-0.027-0.067-0.054-0.121-0.082l-0.16-0.078c0-0.055 0.015-0.109 0.043-0.16 0.023-0.32 0.117-0.547 0.277-0.684 0.055-0.023 0.109-0.05 0.16-0.078 0.16-0.078 0.309-0.094 0.441-0.039 0.028 0.027 0.051 0.039 0.079 0.039 0.242 0.106 0.48 0.215 0.722 0.321 0.106-0.028 0.227-0.04 0.36-0.04 0.265 0.024 0.519 0.118 0.757 0.278-0.078 0.027-0.183 0.054-0.32 0.082-0.051 0.027-0.105 0.055-0.156 0.078-0.188 0.082-0.348 0.187-0.481 0.32-0.242 0.266-0.347 0.602-0.32 1l-0.242-0.238c-0.078-0.055-0.145-0.105-0.199-0.16zm1.121-1.762c-0.106-0.105-0.176-0.266-0.199-0.476-0.028-0.243 0.066-0.497 0.277-0.762 0.242-0.266 0.547-0.508 0.922-0.719 0.398-0.215 0.84-0.359 1.32-0.441 0.531-0.106 1.051-0.106 1.559 0h0.039c-0.184-0.051-0.414-0.106-0.68-0.16l-0.84-0.118c-0.504-0.054-0.984-0.066-1.437-0.043-1.203 0.508-1.762 1.149-1.684 1.922 0 0.184 0.055 0.371 0.16 0.559 0.188 0.082 0.375 0.16 0.563 0.238zm2.758 0.961c-0.161-0.105-0.254-0.277-0.278-0.519-0.027-0.239 0.067-0.493 0.278-0.758 0.242-0.27 0.562-0.508 0.961-0.723 0.402-0.238 0.839-0.398 1.32-0.48 0.558-0.106 1.094-0.118 1.601-0.039h0.039c-0.242-0.083-0.546-0.149-0.918-0.2l-0.601-0.082h-0.082-0.141-0.48c-0.262 0-0.52 0.016-0.778 0.043-0.027 0.012-0.05 0.024-0.082 0.039-1.171 0.52-1.73 1.149-1.679 1.879 0.027 0.215 0.105 0.43 0.242 0.641 0.105 0.027 0.211 0.055 0.316 0.082 0.082 0.051 0.176 0.09 0.282 0.117zm2.441 0.602c-0.105-0.106-0.172-0.243-0.199-0.403-0.028-0.238 0.078-0.492 0.32-0.758 0.211-0.265 0.52-0.519 0.918-0.761 0.426-0.239 0.883-0.426 1.359-0.559 0.563-0.105 1.094-0.133 1.602-0.082h0.078c-0.211-0.051-0.453-0.09-0.719-0.117l-0.238-0.039-0.601-0.043h-0.2l-1.32 0.121c-1.227 0.559-1.812 1.215-1.758 1.961 0.028 0.211 0.106 0.414 0.238 0.598h0.04l0.48 0.082zm5.762-1.922c-0.75-0.051-1.469-0.028-2.16 0.082-1.282 0.558-1.911 1.187-1.883 1.879 0 0.082 0.015 0.16 0.043 0.242l0.519 0.078v-0.039c-0.027-0.215 0.078-0.453 0.321-0.723 0.265-0.265 0.597-0.519 1-0.758 0.453-0.242 0.918-0.414 1.398-0.519 0.559-0.133 1.105-0.16 1.641-0.082l0.039-0.039c-0.188-0.028-0.399-0.055-0.641-0.082l-0.238-0.039h-0.039zm-10-3h0.039c-0.242-0.051-0.52-0.094-0.84-0.117h-0.082l-0.559-0.043-1.242 0.121h-0.039c-1.012 0.613-1.437 1.281-1.277 2 0.023 0.027 0.039 0.054 0.039 0.082h-0.039c0.183 0.078 0.371 0.172 0.558 0.277v-0.117c-0.054-0.215 0-0.453 0.16-0.723 0.161-0.293 0.399-0.558 0.719-0.797 0.321-0.242 0.696-0.429 1.121-0.562 0.481-0.133 0.961-0.172 1.442-0.121zm-2.762-0.52h0.039c-0.16-0.051-0.344-0.105-0.559-0.16h-0.199c-0.304-0.051-0.59-0.078-0.859-0.078-0.293-0.016-0.567 0-0.82 0.039-0.024 0.012-0.043 0.023-0.063 0.039-0.758 0.441-1.141 0.938-1.141 1.481 0.161 0.082 0.321 0.171 0.481 0.281 0.027-0.16 0.082-0.309 0.16-0.442 0.16-0.265 0.387-0.492 0.68-0.679 0.293-0.215 0.629-0.36 1-0.442 0.426-0.105 0.855-0.117 1.281-0.039zm-0.762-6.078c0.137 0.211 0.254 0.481 0.364 0.801 0.265 0.637 0.371 1.199 0.32 1.68-0.055 0.664-0.336 1.21-0.844 1.636-0.586 0.508-1.437 0.75-2.558 0.723-0.692 0-1.625-0.176-2.801-0.52-0.715-0.207-1.582-0.5-2.598-0.882 1.621 0.878 3.063 1.398 4.32 1.562 0.797 0.106 1.532 0.09 2.2-0.043 0.613-0.133 1.132-0.359 1.558-0.68 0.375-0.293 0.668-0.64 0.879-1.039 0.188-0.375 0.281-0.734 0.281-1.082-0.027-0.558-0.226-1.09-0.597-1.597-0.16-0.239-0.336-0.426-0.524-0.559z" inkscape:connector-curvature="0"/>
      <path id="path16" style="fill-rule:evenodd;fill:#f6e181" d="m32.68 13.161c-0.133-0.16-0.282-0.32-0.442-0.48 0.055 0.078 0.11 0.144 0.16 0.199 0.11 0.105 0.204 0.199 0.282 0.281zm-4.481 0.481c0.266 0.078 0.602 0.093 1 0.039 0.188-0.055 0.453-0.121 0.801-0.199 0.348-0.11 0.602-0.176 0.762-0.204 0.504-0.078 1.011-0.078 1.515 0 0.243 0.055 0.43 0.11 0.563 0.161-0.293-0.321-0.668-0.559-1.121-0.719-0.399-0.16-0.84-0.254-1.321-0.281-0.453-0.028-0.863 0.015-1.238 0.121-0.375 0.105-0.64 0.254-0.801 0.441-0.187 0.238-0.238 0.453-0.16 0.641zm-0.398-0.242c-0.028-0.106-0.055-0.2-0.082-0.282-0.078-0.16-0.172-0.293-0.281-0.398h-0.04c-0.078-0.106-0.171-0.188-0.277-0.238-0.16 0.023-0.309 0.093-0.441 0.199-0.055 0.054-0.094 0.105-0.121 0.16-0.028 0.027-0.051 0.051-0.082 0.078-0.106 0.215-0.118 0.469-0.039 0.762 0.109 0.293 0.292 0.574 0.562 0.84 0.32 0.293 0.68 0.519 1.078 0.679 0.481 0.188 1 0.254 1.559 0.2-0.184-0.028-0.371-0.094-0.559-0.2-0.426-0.242-0.734-0.535-0.918-0.879-0.055-0.136-0.133-0.336-0.242-0.601-0.027-0.078-0.051-0.16-0.078-0.238 0-0.028-0.012-0.055-0.039-0.082zm-7.68 14.441c0.16 0.32 0.414 0.625 0.758 0.918 0.133 0.109 0.375 0.266 0.723 0.48 0.32 0.215 0.546 0.375 0.679 0.481 0.426 0.347 0.774 0.812 1.039 1.398 0.106 0.188 0.188 0.364 0.242 0.524l0.04 0.238v-0.039c0.078-0.613 0.023-1.227-0.161-1.84-0.16-0.562-0.414-1.066-0.761-1.519-0.293-0.403-0.614-0.723-0.957-0.961-0.375-0.215-0.696-0.293-0.961-0.243-0.348 0.082-0.563 0.27-0.641 0.563zm0.117-1.641v-0.441l-0.039-0.039c-0.027-0.028-0.054-0.051-0.078-0.078-0.109-0.082-0.242-0.11-0.402-0.082-0.078 0-0.16 0.015-0.239 0.039-0.027 0-0.066 0.015-0.121 0.043-0.238 0.105-0.437 0.359-0.597 0.758-0.16 0.375-0.242 0.828-0.242 1.359 0 0.562 0.105 1.109 0.32 1.641 0.215 0.585 0.519 1.105 0.922 1.558l0.019 0.043 0.02 0.039v-0.039l-0.082-0.199c-0.078-0.188-0.133-0.375-0.16-0.563-0.133-0.613-0.118-1.199 0.043-1.757 0.023-0.161 0.105-0.43 0.238-0.801 0.055-0.106 0.105-0.215 0.16-0.321 0-0.054 0.012-0.093 0.039-0.121v-0.039l0.02-0.019c0.043-0.133 0.078-0.231 0.101-0.301 0.055-0.238 0.078-0.465 0.078-0.68zm3.684 0.2c-0.32-0.532-0.734-0.985-1.242-1.36-0.453-0.32-0.961-0.558-1.52-0.719-0.48-0.16-0.933-0.214-1.359-0.16-0.293 0.024-0.52 0.094-0.68 0.199 0.024 0.051 0.051 0.094 0.078 0.122 0.028 0 0.055 0.011 0.082 0.039 0.293 0.132 0.531 0.347 0.719 0.64l0.121 0.278c0.024 0.054 0.051 0.109 0.078 0.16 0.16 0 0.348-0.012 0.563-0.039 0.371-0.028 0.652-0.039 0.84-0.039 0.558 0.027 1.117 0.187 1.679 0.48 0.266 0.133 0.481 0.266 0.641 0.399zm-5.723-3.442c0.133 0 0.266-0.012 0.403-0.039 0.183 0 0.476-0.039 0.878-0.117 0.188-0.055 0.36-0.094 0.52-0.121 0.105 0 0.215-0.016 0.32-0.039 0.535-0.028 1.106 0.066 1.719 0.277 0.27 0.106 0.496 0.227 0.684 0.359-0.375-0.503-0.844-0.906-1.403-1.199-0.508-0.293-1.027-0.492-1.558-0.597-0.508-0.082-0.973-0.082-1.403 0-0.398 0.078-0.679 0.238-0.839 0.476-0.051 0.055-0.094 0.121-0.118 0.203l0.598 0.797h0.199zm-2.199-2.68c0.238 0.055 0.508 0.067 0.801 0.043 0.078 0 0.16-0.015 0.238-0.043 0.188-0.023 0.469-0.093 0.84-0.199 0.133-0.027 0.266-0.054 0.402-0.078 0.184-0.055 0.332-0.082 0.438-0.082 0.535-0.105 1.109-0.051 1.722 0.16 0.293 0.082 0.532 0.176 0.719 0.281-0.398-0.453-0.894-0.828-1.48-1.121-0.508-0.238-1.039-0.398-1.602-0.48-0.504-0.051-0.957-0.024-1.359 0.082-0.426 0.133-0.707 0.32-0.84 0.559-0.106 0.187-0.145 0.375-0.117 0.558l0.238 0.32zm4.32-0.957c0.055 0.079 0.121 0.161 0.2 0.239 0.132 0.16 0.265 0.308 0.402 0.441-0.188-0.215-0.387-0.441-0.602-0.68zm-1.519-1.16c-0.106-0.082-0.227-0.148-0.36-0.203 0.051 0.027 0.106 0.055 0.161 0.082 0.05 0.027 0.117 0.067 0.199 0.121zm-0.403-1.402 0.282 0.281c0.132 0.16 0.265 0.305 0.398 0.442-0.183-0.243-0.41-0.481-0.68-0.723zm-4.32 1c0.297 0.082 0.617 0.094 0.961 0.043h0.16c0.188-0.027 0.481-0.094 0.879-0.203 0.27-0.078 0.481-0.133 0.641-0.16 0.054 0 0.109-0.012 0.16-0.039 0.562-0.079 1.148-0.012 1.762 0.199 0.265 0.082 0.492 0.176 0.679 0.281-0.398-0.48-0.879-0.855-1.441-1.121-0.531-0.266-1.067-0.426-1.598-0.481-0.535-0.05-1-0.023-1.402 0.082-0.399 0.106-0.664 0.282-0.801 0.52-0.156 0.238-0.199 0.465-0.117 0.68l0.117 0.199zm-1.398-5.52c0.054-0.027 0.105-0.054 0.16-0.078 0.055-0.027 0.105-0.043 0.16-0.043 0.027 0 0.055-0.011 0.078-0.039 0.188-0.027 0.402-0.054 0.641-0.078 0.054 0.184 0.121 0.371 0.203 0.559l0.68 0.199c0.023 0 0.05 0.016 0.078 0.043-0.028-0.16-0.039-0.309-0.039-0.442v-0.281c0.187 0.028 0.347 0.067 0.48 0.121h0.078c-0.027 0-0.054-0.015-0.078-0.039-0.133-0.109-0.281-0.215-0.441-0.32-0.321-0.188-0.668-0.336-1.039-0.441h-0.039c-0.243-0.051-0.469-0.106-0.68-0.161h-0.844c-0.156 0-0.305 0.016-0.437 0.039-0.133 0.028-0.266 0.055-0.403 0.082-0.16 0.051-0.304 0.106-0.437 0.161-0.348 0.16-0.563 0.371-0.641 0.64-0.027 0.024-0.039 0.051-0.039 0.078l0.481 0.68c0.16 0 0.304-0.012 0.437-0.039 0.106-0.027 0.215-0.055 0.32-0.078 0.188-0.055 0.442-0.16 0.762-0.32 0.051-0.028 0.106-0.055 0.16-0.082 0.024-0.028 0.067-0.04 0.117-0.04 0.055-0.027 0.11-0.054 0.161-0.082 0.054-0.023 0.093-0.039 0.121-0.039zm-0.52 2.879c0.32 0.082 0.68 0.082 1.078 0 0.11-0.023 0.231-0.051 0.364-0.078 0.16-0.055 0.32-0.105 0.476-0.16h0.082c0.348-0.105 0.602-0.172 0.762-0.199 0.531-0.082 1.105-0.039 1.719 0.121 0.293 0.105 0.531 0.199 0.718 0.277-0.398-0.453-0.894-0.812-1.48-1.078-0.293-0.133-0.586-0.242-0.879-0.32-0.133-0.028-0.266-0.055-0.398-0.082h-0.321v-0.039c-0.535-0.028-1 0.015-1.402 0.121-0.399 0.133-0.664 0.32-0.801 0.558-0.105 0.215-0.144 0.414-0.117 0.602 0.078 0.078 0.144 0.172 0.199 0.277zm6.121 0c-0.16-0.133-0.308-0.293-0.441-0.476-0.32-0.43-0.52-0.867-0.602-1.321-0.023-0.136-0.05-0.347-0.078-0.64v-0.039c0-0.16-0.015-0.297-0.039-0.403v-0.32c-0.055-0.344-0.16-0.625-0.32-0.84l0.801 0.199c0.05 0.028 0.117 0.055 0.199 0.082l0.039-0.039c-0.371-0.109-0.746-0.226-1.121-0.363l0.043 0.043c-0.082-0.027-0.16-0.043-0.242-0.043-0.161 0.027-0.305 0.109-0.442 0.242-0.156 0.188-0.238 0.453-0.238 0.801 0.027 0.348 0.133 0.719 0.32 1.117 0.188 0.43 0.453 0.817 0.801 1.16 0.371 0.375 0.812 0.657 1.32 0.84zm-0.922-6.16c0.188-0.211 0.336-0.371 0.442-0.476 0.32-0.321 0.734-0.575 1.238-0.762 0.242-0.078 0.453-0.133 0.641-0.16-0.508-0.106-1.028-0.106-1.559 0-0.48 0.082-0.922 0.226-1.32 0.441-0.375 0.211-0.68 0.453-0.922 0.719-0.211 0.265-0.305 0.519-0.277 0.758 0.023 0.214 0.093 0.375 0.199 0.48 0.105 0.027 0.199 0.067 0.277 0.121 0.27-0.105 0.524-0.281 0.762-0.519 0.055-0.055 0.121-0.133 0.199-0.243 0.082-0.078 0.176-0.183 0.281-0.316l0.039-0.043zm2.082 2.801c-0.242-0.024-0.468 0.066-0.679 0.281-0.16 0.188-0.231 0.453-0.203 0.801 0.027 0.344 0.148 0.707 0.363 1.078 0.211 0.402 0.492 0.75 0.84 1.039 0.39 0.34 0.832 0.582 1.316 0.723-0.14-0.117-0.285-0.266-0.437-0.442-0.321-0.371-0.536-0.773-0.641-1.199v-0.039c-0.027-0.16-0.055-0.375-0.082-0.641-0.023-0.32-0.051-0.558-0.078-0.718-0.028-0.055-0.039-0.094-0.039-0.121-0.082-0.293-0.199-0.547-0.36-0.762zm3.079 2.402v-0.32c-0.055-0.293-0.094-0.52-0.122-0.68 0-0.054-0.011-0.109-0.039-0.16-0.082-0.266-0.199-0.48-0.359-0.641-0.238-0.027-0.465 0.067-0.68 0.282-0.16 0.183-0.226 0.437-0.199 0.758 0.024 0.347 0.145 0.707 0.359 1.082 0.211 0.371 0.508 0.691 0.879 0.957 0.403 0.32 0.852 0.535 1.36 0.64-0.133-0.105-0.281-0.238-0.442-0.398-0.343-0.348-0.57-0.735-0.679-1.16-0.024-0.082-0.051-0.2-0.078-0.36zm3.679 1.84c-0.16-0.027-0.32-0.055-0.48-0.082h-0.199c0.242 0.027 0.468 0.055 0.679 0.082zm-0.918-1.641c-0.027-0.105-0.054-0.242-0.082-0.402-0.051-0.293-0.094-0.504-0.121-0.637-0.023-0.082-0.051-0.148-0.078-0.203 0-0.023-0.012-0.051-0.039-0.078-0.082-0.187-0.199-0.348-0.359-0.48-0.082 0-0.161 0.015-0.243 0.039-0.16 0.054-0.293 0.16-0.398 0.32-0.16 0.188-0.215 0.441-0.16 0.762 0.051 0.344 0.199 0.679 0.437 1 0.242 0.344 0.551 0.625 0.922 0.84 0.442 0.257 0.922 0.418 1.442 0.48h0.039c-0.161-0.082-0.332-0.199-0.52-0.359-0.375-0.297-0.629-0.641-0.762-1.043-0.027-0.051-0.05-0.133-0.078-0.239zm-6.242 15.918v-0.039h-0.039c0.027 0 0.039 0.016 0.039 0.039zm-1.719-4.16c0.055-0.133 0.133-0.277 0.239-0.437 0.16-0.348 0.281-0.614 0.363-0.801 0.023-0.078 0.051-0.16 0.078-0.238 0.027-0.055 0.039-0.094 0.039-0.121 0.082-0.266 0.106-0.52 0.082-0.762-0.082-0.078-0.16-0.133-0.242-0.16-0.16-0.078-0.359-0.078-0.598 0-0.269 0.082-0.496 0.308-0.679 0.679-0.215 0.348-0.348 0.789-0.403 1.321-0.054 0.562-0.011 1.121 0.121 1.679 0.157 0.598 0.41 1.129 0.758 1.602l-0.039-0.121c-0.027-0.184-0.051-0.371-0.078-0.559-0.055-0.64 0.027-1.226 0.238-1.761 0.028-0.079 0.067-0.184 0.121-0.321zm-1.242-4.597c-0.211-0.215-0.492-0.282-0.84-0.2-0.265 0.051-0.504 0.266-0.718 0.637-0.215 0.348-0.36 0.777-0.442 1.281-0.105 0.563-0.105 1.121 0 1.68 0.11 0.633 0.328 1.199 0.66 1.699l-0.019-0.136c-0.024-0.215-0.051-0.415-0.078-0.602 0-0.641 0.105-1.215 0.32-1.719 0.051-0.109 0.133-0.242 0.238-0.402 0.055-0.106 0.121-0.211 0.199-0.32 0.188-0.348 0.321-0.614 0.403-0.797 0.054-0.055 0.094-0.121 0.121-0.203 0.105-0.321 0.156-0.625 0.156-0.918zm-5.437-13.36c-0.508-0.269-1.016-0.558-1.52-0.883-0.988-0.558-2.187-1.32-3.601-2.277-0.215-0.16-0.399-0.293-0.559-0.402 0.211 0.32 0.414 0.629 0.598 0.922 0.586 0.398 1.203 0.785 1.839 1.16 0.082 0.051 0.161 0.09 0.243 0.117l2.48 1.402h0.039v0.039l0.078 0.02 0.203 0.098c0.051-0.079 0.118-0.145 0.2-0.196zm-0.442 0.199h0.02c-0.067-0.035-0.141-0.058-0.219-0.082 0.078 0.028 0.145 0.055 0.199 0.082zm-1.277 2.161c0.105-0.028 0.211-0.055 0.316-0.082 0.16-0.051 0.387-0.145 0.684-0.282 0.238-0.105 0.426-0.172 0.558-0.199 0.028-0.023 0.067-0.039 0.122-0.039 0.023-0.027 0.066-0.039 0.117-0.039 0.187-0.055 0.386-0.094 0.601-0.121-0.027 0.187-0.015 0.375 0.039 0.558l0.922 0.122c0.028 0 0.067 0.015 0.117 0.039 0.028 0 0.067 0.015 0.122 0.043-0.055-0.032-0.094-0.055-0.122-0.082h-0.117v-0.039c0.024-0.215 0.039-0.387 0.039-0.52h0.121c0.079 0.027 0.161 0.051 0.239 0.078-0.055-0.051-0.121-0.105-0.2-0.156-0.054-0.027-0.105-0.055-0.16-0.082-0.293-0.215-0.601-0.375-0.922-0.481h-0.078c-0.187-0.054-0.359-0.093-0.519-0.121-0.188-0.051-0.375-0.078-0.563-0.078h-0.359c-0.426 0.027-0.801 0.106-1.117 0.238-0.215 0.11-0.364 0.215-0.442 0.321v0.043l0.602 0.879zm4.117 1.679c0.031 0.055 0.055 0.11 0.082 0.16h0.039c-0.051-0.05-0.09-0.105-0.121-0.16zm13.641 0.121h0.121l0.16 0.079c0.027 0 0.051 0.015 0.078 0.039h0.039c0.11-0.106 0.231-0.227 0.363-0.36 0.266-0.211 0.465-0.371 0.598-0.48 0.402-0.321 0.883-0.574 1.441-0.758 0.266-0.082 0.493-0.133 0.68-0.16-0.508-0.082-1.039-0.067-1.598 0.039-0.507 0.082-1 0.226-1.484 0.441-0.426 0.211-0.769 0.453-1.039 0.719-0.133 0.105-0.238 0.227-0.316 0.359l0.398 0.039c0.188-0.023 0.371-0.011 0.559 0.043zm-2.121-2.64h0.043c0.691-0.11 1.41-0.133 2.16-0.082-0.231-0.028-0.469-0.039-0.723-0.039-0.504 0-1 0.039-1.48 0.121zm0.839 1.238c0.082-0.078 0.149-0.133 0.204-0.16 0.371-0.348 0.824-0.613 1.359-0.801 0.266-0.105 0.492-0.172 0.68-0.199-0.536-0.078-1.082-0.051-1.641 0.082-0.48 0.105-0.945 0.281-1.398 0.519-0.403 0.243-0.735 0.493-1 0.762-0.243 0.266-0.348 0.504-0.321 0.719v0.039l1.039 0.121c0.082-0.055 0.149-0.109 0.2-0.16 0.132-0.106 0.32-0.293 0.558-0.563 0.137-0.132 0.242-0.253 0.32-0.359zm2.282-0.48c-0.192 0.007-0.379 0.019-0.559 0.043h0.078c0.156-0.02 0.317-0.032 0.481-0.043zm-14.719 7.082h0.039c-0.238-0.348-0.508-0.719-0.801-1.121v0.039c-0.054-0.051-0.105-0.094-0.16-0.118-0.184-0.136-0.414-0.175-0.68-0.121-0.265 0.078-0.504 0.293-0.718 0.641-0.243 0.344-0.414 0.773-0.52 1.277-0.109 0.563-0.109 1.121 0 1.684 0.078 0.637 0.277 1.211 0.598 1.719v-0.161c-0.024-0.187-0.039-0.386-0.039-0.601-0.028-0.641 0.082-1.199 0.32-1.68 0.078-0.16 0.215-0.387 0.398-0.679 0.028-0.028 0.043-0.051 0.043-0.079 0.106-0.16 0.2-0.296 0.278-0.402 0.082-0.133 0.136-0.25 0.16-0.359 0.187-0.375 0.293-0.735 0.32-1.078l0.762 1.039zm-2.84 3.121c0.024 0.027 0.039 0.05 0.039 0.078v-0.039l-0.039-0.039zm-0.84-2.16v-0.122l-0.043-0.039c0.028 0.051 0.039 0.102 0.043 0.161zm-0.722 0.16v-0.203c0-0.161 0.015-0.332 0.043-0.52 0.078-0.613 0.265-1.133 0.558-1.559 0.028-0.027 0.051-0.066 0.078-0.121 0.11-0.105 0.254-0.265 0.442-0.48 0.215-0.266 0.375-0.481 0.48-0.641 0.078-0.078 0.145-0.172 0.199-0.277 0.082-0.16 0.149-0.32 0.2-0.481l0.363 0.481c0.078 0.027 0.156 0.051 0.238 0.078-0.187-0.266-0.375-0.531-0.558-0.801 0-0.023-0.016-0.039-0.043-0.039-0.106-0.16-0.254-0.254-0.438-0.277h-0.242c-0.238 0-0.492 0.144-0.758 0.437s-0.48 0.668-0.641 1.121c-0.16 0.508-0.242 1.028-0.242 1.559-0.023 0.613 0.082 1.188 0.321 1.723zm0.839-6.282c-0.16-0.214-0.332-0.453-0.519-0.718v-0.121c-0.051-0.106-0.133-0.188-0.238-0.243-0.106-0.05-0.243-0.078-0.403-0.078-0.238 0.028-0.465 0.172-0.679 0.442-0.239 0.265-0.426 0.613-0.559 1.039-0.16 0.453-0.238 0.918-0.238 1.398 0.023 0.563 0.133 1.082 0.316 1.563v-0.16c0-0.161 0.016-0.336 0.043-0.524 0.078-0.531 0.254-1 0.52-1.398 0.078-0.106 0.226-0.293 0.437-0.559 0.215-0.242 0.363-0.426 0.442-0.562 0.105-0.161 0.187-0.321 0.242-0.481 0.105 0.137 0.211 0.27 0.316 0.402h0.32zm3.68 9.36v-0.039c0.082-0.16 0.215-0.403 0.402-0.723 0.215-0.316 0.36-0.57 0.442-0.758 0.023-0.054 0.051-0.105 0.078-0.16 0.133-0.348 0.199-0.668 0.199-0.961-0.211-0.238-0.492-0.32-0.84-0.238-0.265 0.078-0.504 0.293-0.718 0.641-0.215 0.371-0.375 0.812-0.481 1.32-0.082 0.558-0.066 1.117 0.039 1.68 0.106 0.613 0.321 1.183 0.641 1.718l-0.039-0.199c-0.028-0.187-0.039-0.375-0.039-0.562-0.028-0.637 0.078-1.211 0.316-1.719zm-0.879 1.558c0.016 0.016 0.028 0.036 0.039 0.063v-0.02l-0.039-0.043zm-4.48-13.32c-0.371-0.531-0.774-1.105-1.199-1.719-1.254-1.812-2.215-3.16-2.879-4.039-0.829-1.121-1.309-1.679-1.442-1.679-0.187-0.028-0.293 0.027-0.32 0.16 0.187 0.293 0.375 0.558 0.562 0.801 0.239 0.32 0.493 0.636 0.758 0.957l1.723 2.281c0.746 0.988 1.476 1.972 2.199 2.961 0.074 0.097 0.149 0.199 0.219 0.301 0.117-0.04 0.246-0.043 0.379-0.024zm7 0.762c-0.024-0.133-0.051-0.266-0.078-0.399l0.398 0.161c0.082-0.028 0.16-0.055 0.242-0.082-0.242-0.106-0.48-0.211-0.722-0.321-0.028 0-0.051-0.012-0.079-0.039-0.132-0.055-0.281-0.039-0.441 0.039-0.051 0.028-0.105 0.055-0.16 0.082-0.16 0.133-0.254 0.36-0.277 0.68-0.028 0.051-0.043 0.105-0.043 0.16l0.16 0.078c0.054 0.028 0.093 0.055 0.121 0.082l0.398 0.239c0.055 0.054 0.121 0.109 0.203 0.16 0.079 0.054 0.161 0.109 0.239 0.16v-0.039c0.027-0.293 0.039-0.52 0.039-0.68v-0.281zm3.48-3.442c-0.027-0.023-0.054-0.039-0.078-0.039-0.535-0.05-1.027-0.05-1.48 0h0.121c0.453-0.027 0.933-0.011 1.437 0.039zm0.52 3.68c0.242-0.078 0.469-0.223 0.679-0.437 0.055-0.028 0.094-0.055 0.122-0.082 0.105-0.106 0.281-0.293 0.519-0.559 0.188-0.238 0.336-0.414 0.441-0.52h0.04c0.011-0.011 0.023-0.027 0.039-0.039 0.312-0.328 0.726-0.582 1.242-0.761 0.238-0.078 0.453-0.133 0.64-0.16-0.507-0.079-1.043-0.067-1.601 0.042-0.481 0.079-0.918 0.239-1.32 0.477-0.399 0.215-0.719 0.453-0.961 0.723-0.211 0.265-0.305 0.519-0.278 0.758 0.024 0.242 0.117 0.414 0.278 0.519 0.054 0 0.109 0.016 0.16 0.039zm6.281-2c-0.508-0.051-1.039-0.023-1.602 0.082-0.476 0.133-0.933 0.32-1.359 0.563-0.398 0.238-0.707 0.492-0.918 0.757-0.242 0.266-0.348 0.52-0.32 0.762 0.027 0.16 0.094 0.293 0.199 0.399l0.402 0.082c0.16-0.11 0.332-0.227 0.52-0.364 0.051-0.05 0.105-0.105 0.156-0.16 0.11-0.105 0.27-0.293 0.484-0.558 0.079-0.079 0.145-0.161 0.2-0.239 0.133-0.136 0.226-0.242 0.277-0.32 0.348-0.32 0.789-0.586 1.32-0.801 0.243-0.109 0.453-0.176 0.641-0.203zm-12.66 0.66c0.047 0.047 0.094 0.094 0.14 0.141 0.028 0 0.051 0.016 0.079 0.043l0.16 0.199c-0.051-0.109-0.133-0.199-0.239-0.281-0.046-0.024-0.093-0.059-0.14-0.102zm1.66-0.418c0.078-0.054 0.172-0.133 0.281-0.242 0.051-0.051 0.106-0.117 0.16-0.199 0.079-0.106 0.2-0.293 0.36-0.559 0.105-0.187 0.199-0.347 0.277-0.48l0.082-0.082c0.238-0.348 0.586-0.625 1.039-0.84 0.215-0.078 0.403-0.145 0.563-0.199-0.481-0.055-0.961-0.012-1.442 0.121-0.425 0.133-0.8 0.32-1.121 0.558-0.32 0.239-0.558 0.508-0.719 0.801-0.16 0.266-0.214 0.508-0.16 0.719v0.121c0.239 0.082 0.465 0.176 0.68 0.281zm-1.32 0.282c0.054-0.055 0.132-0.11 0.242-0.161-0.242-0.109-0.481-0.214-0.723-0.32-0.027-0.055-0.039-0.094-0.039-0.121-0.082-0.051-0.172-0.066-0.281-0.039-0.106 0-0.199 0.039-0.277 0.117-0.028 0-0.055 0.016-0.082 0.043l0.281 0.199c0.078 0.055 0.16 0.106 0.238 0.16 0.106 0.082 0.199 0.161 0.281 0.243 0-0.11-0.015-0.215-0.039-0.321 0.133 0.051 0.266 0.118 0.399 0.2zm-1.801-1.801c0.293 0.133 0.574 0.277 0.84 0.437 0.082-0.051 0.148-0.117 0.203-0.199 0.078-0.105 0.183-0.266 0.316-0.48 0.137-0.239 0.242-0.414 0.321-0.52 0.242-0.293 0.562-0.519 0.961-0.68 0.187-0.082 0.347-0.132 0.48-0.16-0.426-0.078-0.855-0.066-1.281 0.039-0.371 0.082-0.707 0.227-1 0.442-0.293 0.187-0.52 0.414-0.68 0.679-0.078 0.133-0.133 0.282-0.16 0.442zm2.441-1.762c-0.187-0.051-0.386-0.078-0.601-0.078-0.106-0.008-0.203-0.008-0.297 0 0.269 0 0.555 0.027 0.859 0.078h0.039z" inkscape:connector-curvature="0"/>
      <path id="path18" style="fill-rule:evenodd;fill:#aa9740" d="m30.961 11.841c-0.055-0.027-0.094-0.039-0.121-0.039l-0.918-0.281c-0.215-0.055-0.442-0.094-0.684-0.121-0.398-0.028-0.746 0.039-1.039 0.199-0.293 0.136-0.508 0.32-0.64 0.562-0.051 0.106-0.094 0.211-0.121 0.321l-0.36-0.043h-0.039c0.027 0.003 0.055 0.015 0.082 0.043 0.106 0.05 0.199 0.132 0.281 0.238h0.039c0.106 0.105 0.2 0.238 0.282 0.398 0.023 0.082 0.05 0.176 0.078 0.282v-0.04c0.027-0.082 0.054-0.16 0.082-0.242 0.027-0.133 0.078-0.265 0.16-0.398 0.023-0.051 0.066-0.106 0.117-0.16 0-0.028 0.016-0.055 0.043-0.078 0.524-0.606 1.426-0.821 2.699-0.641 0.02-0.004 0.039-0.004 0.059 0zm-10.723 13.918v0.402l0.043 0.039h-0.043c0 0.215-0.023 0.442-0.078 0.68-0.023 0.07-0.058 0.168-0.101 0.301 0.074-0.071 0.148-0.133 0.222-0.18 0.133-0.133 0.278-0.226 0.438-0.281 0.082-0.028 0.148-0.051 0.203-0.078 0.051 0 0.09-0.016 0.117-0.043 0.883-0.184 1.734 0.402 2.559 1.761-0.012-0.054-0.024-0.105-0.039-0.16l-0.918-1.84c-0.266-0.375-0.575-0.613-0.918-0.718-0.321-0.082-0.629-0.055-0.922 0.078-0.133 0.082-0.266 0.172-0.399 0.281-0.054-0.082-0.109-0.16-0.164-0.242zm1.563-2.078c-0.082-0.074-0.16-0.141-0.242-0.199l-1.559-0.801c-0.16 0.027-0.332 0.066-0.52 0.121-0.402 0.078-0.695 0.117-0.878 0.117-0.137 0.027-0.27 0.039-0.403 0.039-0.027 0.027-0.054 0.067-0.078 0.121l-0.121-0.121-0.602-0.797-0.359-0.48c0.055-0.16 0.121-0.293 0.199-0.403 0.496-0.722 1.469-0.91 2.922-0.558 0.028 0.008 0.051 0.015 0.078 0.019 0.012 0.008 0.028 0.016 0.043 0.02-0.027-0.024-0.066-0.039-0.121-0.039l-1.801-0.719h-0.078c-0.136 0.024-0.269 0.051-0.402 0.078-0.371 0.106-0.652 0.176-0.84 0.199-0.078 0.028-0.16 0.043-0.238 0.043-0.16 0.133-0.266 0.293-0.321 0.481-0.027 0.023-0.039 0.051-0.039 0.078l-0.441-0.602-0.238-0.32-0.403-0.558c0.028-0.266 0.106-0.493 0.243-0.68 0.453-0.774 1.453-1 3-0.68-0.055-0.027-0.11-0.055-0.161-0.082l-1.722-0.519c-0.16 0.027-0.371 0.082-0.641 0.16-0.398 0.109-0.691 0.176-0.879 0.203h-0.16c-0.133 0.133-0.227 0.293-0.277 0.476-0.028 0.11-0.043 0.204-0.043 0.282l-0.641-0.801-0.117-0.199-0.441-0.559c0.027-0.293 0.105-0.562 0.242-0.801 0.449-0.765 1.433-0.992 2.957-0.679h0.043c-0.055-0.028-0.094-0.039-0.121-0.039l-1.961-0.602h-0.039c-0.161-0.027-0.321-0.027-0.481 0h-0.082c-0.156 0.055-0.316 0.105-0.476 0.16l-0.082 0.039c-0.293 0.16-0.481 0.403-0.559 0.723h-0.039c-0.027 0.105-0.043 0.211-0.043 0.316l-0.719-1c-0.055-0.105-0.121-0.199-0.199-0.277-0.199-0.285-0.402-0.57-0.602-0.859 0.067 0.089 0.133 0.175 0.2 0.257 0.027-0.238 0.093-0.464 0.203-0.679 0.211-0.399 0.586-0.653 1.117-0.758 0.16-0.055 0.336-0.082 0.519-0.082 0.188-0.028 0.375-0.028 0.563 0 0.238 0.027 0.48 0.055 0.719 0.082-0.028-0.027-0.055-0.043-0.078-0.043l-0.68-0.199-0.762-0.2h-0.039l-0.441-0.121c-0.028 0-0.067 0.016-0.121 0.039-0.051 0.028-0.106 0.055-0.161 0.082-0.05 0-0.093 0.012-0.117 0.04-0.054 0.027-0.109 0.054-0.16 0.082-0.32 0.16-0.574 0.265-0.762 0.32-0.105 0.023-0.214 0.051-0.32 0.078-0.051 0.078-0.094 0.172-0.117 0.281 0 0.051-0.016 0.106-0.043 0.16-0.09-0.136-0.184-0.269-0.277-0.402l-0.481-0.68c-0.129-0.179-0.258-0.375-0.383-0.578 0.016-0.047 0.024-0.078 0.024-0.101 0.16-0.426 0.492-0.735 1-0.918h0.078c0.16-0.055 0.348-0.094 0.558-0.121 0.27-0.055 0.563-0.067 0.883-0.039h0.117c-0.05-0.028-0.089-0.04-0.117-0.043l-0.922-0.118-0.597-0.082c-0.028-0.132-0.043-0.254-0.043-0.359-0.051 0-0.094 0.012-0.117 0.039-0.055 0-0.094 0.016-0.122 0.039l0.122 0.281-0.243-0.039c-0.425 0.028-0.773 0.16-1.039 0.403-0.082 0.05-0.148 0.117-0.199 0.199l-0.199-0.281-0.602-0.879c-0.132-0.215-0.265-0.414-0.398-0.602 0.371-0.508 1.133-0.734 2.277-0.68-0.054-0.027-0.121-0.054-0.199-0.082l-1.238-0.199h-0.403c-0.371 0.028-0.664 0.121-0.879 0.281-0.668-0.96-1.308-1.906-1.921-2.839-0.184-0.293-0.387-0.602-0.598-0.922-0.242-0.348-0.469-0.707-0.68-1.078 0.16 0.132 0.344 0.281 0.559 0.437 0.719 0.535 1.281 0.961 1.68 1.281 0.773 0.563 1.468 1.028 2.082 1.403 0.691 0.449 1.543 0.929 2.558 1.437-0.16-0.027-0.305 0-0.441 0.082h-0.078c-0.082 0.051-0.149 0.117-0.2 0.199l-0.203-0.101v0.019c0.055 0.055 0.11 0.094 0.16 0.122v0.039l0.68 0.32 0.043-0.039c0.024-0.028 0.051-0.039 0.078-0.039l0.039-0.039 0.16-0.043c0-0.028 0.016-0.039 0.043-0.039l0.161-0.039h0.32c-0.027-0.028-0.067-0.067-0.121-0.121 0.078 0.054 0.16 0.093 0.238 0.121 1.656 0.796 3.227 1.464 4.723 2 0.984 0.347 2 0.652 3.039 0.918 0.265 0.082 0.547 0.16 0.84 0.242 0.078 0 0.16 0.011 0.238 0.039 0.109 0.027 0.215 0.055 0.32 0.078 0.321 0.082 0.613 0.148 0.879 0.203 0.297 0.051 0.563 0.106 0.801 0.156 0.215 0.028 0.387 0.055 0.519 0.082-0.16 0.028-0.293 0.067-0.398 0.121-0.105 0-0.215-0.015-0.32-0.043-0.106 0-0.2-0.011-0.282-0.039 0.137 0.082 0.282 0.133 0.442 0.161l-0.16 0.16c-0.16 0.105-0.266 0.242-0.321 0.402 0.028 0.051 0.043 0.106 0.043 0.156 0.024 0.16 0.067 0.387 0.118 0.684v0.316l0.882 0.922c0.043 0.028 0.09 0.055 0.137 0.078 0.086 0.055 0.172 0.11 0.262 0.16v-0.019l-0.602-2.18c0.028-0.051 0.055-0.093 0.082-0.117 0.028-0.027 0.039-0.055 0.039-0.082l0.52-0.398v-0.039h0.039c0.055-0.028 0.094-0.055 0.121-0.082 0.078-0.028 0.148-0.051 0.199-0.079 0.055 0.028 0.094 0.039 0.121 0.039l0.16 0.122c0.051 0.023 0.094 0.05 0.118 0.078 0.16 0.132 0.281 0.293 0.363 0.48 0.023 0.027 0.039 0.051 0.039 0.078 0.027 0.055 0.051 0.121 0.078 0.203 0.027 0.133 0.067 0.348 0.121 0.637 0.028 0.16 0.055 0.297 0.078 0.402l0.961 0.68c0.129 0.063 0.262 0.117 0.403 0.16-0.883-0.718-1.161-1.398-0.84-2.039 0-0.027 0.011-0.054 0.039-0.082 0.082-0.16 0.199-0.304 0.359-0.437 0.055-0.055 0.106-0.094 0.16-0.121 0.079-0.082 0.161-0.133 0.239-0.161 0.027-0.027 0.054-0.039 0.082-0.039-0.188-0.054-0.375-0.066-0.559-0.043l-0.402-0.039-0.598-0.121c0.133-0.636 0.824-1.183 2.078-1.636h-0.078l-0.402 0.039c-0.453 0.105-0.891 0.238-1.321 0.398-0.078 0.106-0.183 0.227-0.32 0.359-0.238 0.27-0.426 0.457-0.558 0.563-0.051 0.051-0.118 0.105-0.2 0.16l-1.039-0.121-0.519-0.078c-0.028-0.082-0.039-0.16-0.039-0.242-0.028-0.692 0.597-1.321 1.879-1.879h-0.043l-0.36 0.078c-0.508 0.109-0.984 0.281-1.437 0.519-0.055 0.082-0.121 0.161-0.203 0.243-0.211 0.265-0.371 0.453-0.481 0.558-0.051 0.055-0.105 0.106-0.156 0.16-0.027 0.133-0.027 0.282 0 0.442l-0.524-0.082-0.398-0.078-0.48-0.082h-0.04c-0.132-0.184-0.214-0.387-0.242-0.598-0.05-0.75 0.535-1.402 1.762-1.961l-0.199 0.039-1.16 0.359c-0.028 0.016-0.055 0.028-0.082 0.043-0.016 0.012-0.028 0.028-0.039 0.039h-0.04c-0.105 0.106-0.253 0.282-0.441 0.52-0.238 0.266-0.414 0.453-0.519 0.559-0.028 0.027-0.067 0.054-0.122 0.082v0.039l0.043 0.359v0.039h0.039c0.028 0.082 0.051 0.16 0.079 0.242-0.266-0.082-0.547-0.16-0.84-0.242-0.051-0.023-0.106-0.039-0.16-0.039-0.106-0.027-0.2-0.066-0.278-0.117-0.109-0.027-0.215-0.055-0.32-0.082-0.133-0.215-0.215-0.426-0.242-0.641-0.051-0.73 0.508-1.359 1.679-1.879 0.032-0.015 0.059-0.031 0.082-0.043-0.054 0-0.093 0.016-0.121 0.043h-0.121c-0.558 0.106-1.078 0.282-1.558 0.52-0.133 0.082-0.239 0.16-0.321 0.238l-0.039 0.043c-0.105 0.133-0.199 0.238-0.281 0.316 0 0.028-0.012 0.071-0.039 0.122-0.105 0.242-0.121 0.48-0.039 0.718 0.027 0.11 0.066 0.188 0.117 0.243h-0.078l-0.922-0.321c-0.078-0.054-0.172-0.094-0.277-0.121-0.188-0.078-0.375-0.16-0.563-0.238-0.105-0.188-0.16-0.375-0.16-0.563-0.078-0.773 0.481-1.414 1.684-1.918h-0.121l-0.282 0.078c-0.48 0.083-0.906 0.215-1.281 0.403-0.078 0.133-0.172 0.293-0.277 0.48-0.16 0.266-0.281 0.453-0.36 0.559-0.054 0.082-0.109 0.148-0.16 0.199 0 0.082 0.012 0.176 0.039 0.281 0 0.055 0.012 0.094 0.039 0.121l-0.359-0.16c-0.215-0.109-0.441-0.199-0.68-0.281-0.187-0.105-0.375-0.199-0.558-0.281h0.039c0-0.024-0.016-0.051-0.039-0.078-0.16-0.719 0.265-1.387 1.277-2-0.586 0.132-1.094 0.371-1.519 0.718-0.266 0.215-0.426 0.454-0.481 0.719-0.027 0.082-0.039 0.16-0.039 0.242-0.078-0.027-0.172-0.066-0.281-0.121-0.266-0.16-0.547-0.304-0.84-0.441-0.16-0.106-0.32-0.199-0.481-0.277 0-0.547 0.383-1.04 1.141-1.481 0.02-0.016 0.039-0.031 0.063-0.043-0.028 0-0.055 0.016-0.082 0.043l-0.321 0.039c-0.344 0.109-0.664 0.27-0.961 0.484-0.211 0.161-0.359 0.36-0.437 0.598-1.602-0.961-3.094-2-4.481-3.121-0.379-0.301-0.773-0.641-1.179-1.016l0.078 0.059c0.07 0.027 0.129 0.051 0.179 0.078 0.247 0.145 0.489 0.277 0.723 0.402 1.016 0.379 1.883 0.676 2.598 0.879 1.176 0.348 2.109 0.52 2.801 0.52 1.121 0.027 1.972-0.215 2.558-0.719 0.508-0.426 0.789-0.972 0.844-1.64 0.051-0.481-0.055-1.04-0.32-1.68-0.11-0.32-0.227-0.586-0.364-0.801 0.11 0.215 0.203 0.481 0.282 0.801 0.16 0.613 0.214 1.133 0.16 1.558-0.215 1.122-0.879 1.774-2 1.961-0.907 0.161-2.106 0-3.602-0.48-0.719-0.238-1.465-0.535-2.238-0.883 0.082 0 0.16 0.016 0.238 0.043 1.656 0.348 2.895 0.293 3.723-0.16 0.824-0.426 1.387-0.813 1.679-1.16 0.161-0.188 0.227-0.321 0.2-0.399-0.078 0.133-0.227 0.278-0.442 0.438-0.398 0.32-0.879 0.574-1.437 0.762-1.496 0.507-3.281 0.437-5.36-0.2-0.613-0.32-1.121-0.601-1.519-0.84-0.082-0.187-0.176-0.347-0.281-0.484-0.082-0.051-0.172-0.09-0.282-0.117-0.238-0.082-0.464-0.066-0.679 0.039l-0.239 0.32c-0.027 0-0.043 0.016-0.043 0.039h0.024c0.183-0.07 0.387-0.031 0.617 0.121 0.082 0.055 0.149 0.106 0.199 0.161 0.11 0.105 0.231 0.226 0.364 0.359 0.16 0.187 0.332 0.398 0.519 0.641 0.078 0.132 0.16 0.254 0.238 0.359 0.055 0.055 0.106 0.121 0.161 0.199 0.16 0.242 0.386 0.586 0.679 1.039 0.16 0.242 0.336 0.524 0.52 0.84 0.027 0 0.043 0.016 0.043 0.043 0.636 0.984 1.16 1.774 1.558 2.359 0.559 0.774 1.227 1.707 2 2.801-0.16-0.109-0.332-0.176-0.519-0.203h-0.082c-0.133-0.019-0.262-0.016-0.379 0.024-0.07-0.102-0.145-0.204-0.219-0.301 0.024 0.051 0.051 0.094 0.078 0.121 0.028 0.074 0.059 0.133 0.102 0.18l0.019 0.019h-0.039l-0.16 0.078-0.043 0.039c-0.266 0.16-0.465 0.43-0.598 0.801v0.039l-0.242 1.684v0.117c0.321-1.277 0.856-1.957 1.602-2.039h0.238c0.027 0 0.055 0.015 0.082 0.039h0.121c0.078 0.027 0.172 0.055 0.278 0.082 0.136 0.051 0.242 0.117 0.32 0.199v-0.039l-0.039-0.121c1.039 1.441 2.281 3.145 3.719 5.121 0.109 0.16 0.226 0.32 0.363 0.481 0.211 0.293 0.41 0.57 0.598 0.839 0.054 0.079 0.105 0.161 0.16 0.239 0.375 0.535 0.734 1.015 1.082 1.441 0.211 0.293 0.41 0.559 0.597 0.801 0.055 0.105 0.106 0.199 0.161 0.277 0.32 0.426 0.601 0.801 0.839 1.121 0.243 0.321 0.442 0.586 0.602 0.801 0.16 0.184 0.293 0.348 0.398 0.481h-0.039c-0.132-0.11-0.281-0.176-0.441-0.204-0.078-0.078-0.16-0.171-0.238-0.277-0.055-0.082-0.121-0.16-0.2-0.242 0.051 0.187 0.145 0.348 0.278 0.48h-0.278c-0.187 0.028-0.363 0.094-0.519 0.2-0.027 0.082-0.067 0.148-0.121 0.203-0.082 0.183-0.215 0.449-0.403 0.797-0.078 0.109-0.144 0.214-0.199 0.32l0.16 2.043c0.051-1.5 0.489-2.383 1.321-2.641 0.265-0.109 0.558-0.136 0.879-0.082h0.043c0.023 0 0.066 0.016 0.117 0.039 0.109 0.028 0.187 0.055 0.242 0.082 0.027 0.028 0.051 0.067 0.078 0.121l0.039 0.2c0.027 0.078 0.043 0.16 0.043 0.238 0.024 0.242 0 0.496-0.082 0.762 0 0.027-0.012 0.066-0.039 0.121-0.027 0.078-0.055 0.16-0.078 0.238-0.082 0.187-0.203 0.453-0.363 0.801-0.106 0.16-0.184 0.304-0.239 0.437l0.36 1.922c0.011 0.039 0.023 0.078 0.039 0.121-0.133-1.496 0.176-2.441 0.922-2.84 0.027-0.027 0.054-0.043 0.078-0.043 0.187-0.105 0.386-0.16 0.601-0.16h0.399c0.109 0 0.203 0.016 0.281 0.043-0.188-0.293-0.426-0.508-0.719-0.64-0.027-0.028-0.054-0.039-0.082-0.039-0.027-0.028-0.054-0.067-0.078-0.122-0.109-0.132-0.215-0.265-0.32-0.402-0.028-0.023-0.055-0.066-0.082-0.117v-0.039c0.586-0.668 1.613-0.707 3.082-0.121zm-3.723-9.481c0.11 0.09 0.215 0.184 0.32 0.282-0.656-1.079-0.75-1.903-0.277-2.481 0.16-0.16 0.359-0.293 0.598-0.402 0-0.024 0.015-0.039 0.043-0.039 0.105-0.055 0.211-0.078 0.316-0.078-0.238-0.161-0.504-0.243-0.797-0.243-0.16 0-0.308 0.028-0.441 0.082l-0.039 0.039c-0.082 0.028-0.16 0.067-0.242 0.122-0.211 0.16-0.348 0.371-0.399 0.636 0 0.028-0.015 0.067-0.039 0.121 0.024 0.106 0.039 0.243 0.039 0.403v0.039c0.028 0.133 0.078 0.265 0.16 0.398l0.758 1.121zm2.922 0.879c-0.012-0.015-0.027-0.039-0.039-0.058-0.688-1.012-0.781-1.805-0.281-2.379 0.16-0.188 0.375-0.336 0.64-0.442v-0.039h0.039c0.028 0 0.039-0.015 0.039-0.043 0.082-0.023 0.161-0.039 0.243-0.039-0.243-0.16-0.508-0.226-0.801-0.199-0.133 0.027-0.254 0.055-0.36 0.078-0.082 0.027-0.148 0.055-0.199 0.082h-0.043l-0.078 0.078-0.039 0.043c-0.133 0.106-0.242 0.227-0.32 0.36 0 0.027 0.011 0.066 0.039 0.121 0.027 0.16 0.055 0.398 0.082 0.718 0.023 0.266 0.051 0.481 0.078 0.641l0.301 0.418c0.195 0.234 0.426 0.457 0.699 0.66zm-2.32 9.281c-0.078 0-0.172 0.012-0.282 0.04 0.028-0.079 0.067-0.161 0.122-0.239l0.16 0.199zm-16.239-19.96c-0.082-0.211-0.148-0.442-0.203-0.68-0.133-0.426-0.265-0.801-0.398-1.117-0.078-0.137-0.16-0.254-0.238-0.364-0.11-0.211-0.204-0.386-0.282-0.519 0.078 0.32 0.16 0.695 0.239 1.121 0.16 0.879 0.242 1.613 0.242 2.199-0.028 0.746-0.149 1.492-0.36 2.242-0.242 0.77-0.48 1.239-0.722 1.399-0.211 0.133-0.399 0.172-0.559 0.121-0.055 0-0.094-0.016-0.121-0.043l-0.039-0.039c0.055 0.082 0.121 0.148 0.199 0.199 0.188 0.133 0.387 0.148 0.602 0.039 0.187-0.051 0.371-0.199 0.558-0.437 0.266-0.293 0.496-0.68 0.68-1.161 0.293-0.8 0.426-1.789 0.402-2.96zm22.68 8.16 0.238 0.039c-0.082 0.054-0.148 0.121-0.199 0.203-0.027-0.082-0.039-0.16-0.039-0.242zm-13.402 5.359c-0.078 0.106-0.172 0.242-0.278 0.402 0 0.028-0.015 0.051-0.043 0.079-0.05 0.132-0.093 0.292-0.117 0.48-0.027 0.16-0.054 0.305-0.082 0.441l0.082 1.637c0.012 0.043 0.024 0.082 0.039 0.121 0.106-1.574 0.602-2.48 1.481-2.719 0.265-0.054 0.547-0.054 0.84 0h0.039c0.16 0.051 0.293 0.106 0.398 0.161-0.133-0.321-0.332-0.586-0.598-0.801-0.16-0.106-0.32-0.172-0.48-0.199h-0.039c-0.106-0.028-0.215-0.039-0.32-0.039-0.321 0-0.602 0.105-0.84 0.32-0.028 0.051-0.055 0.09-0.082 0.117zm-2.481-1.68v2.082l0.043 0.039c0.16-1.546 0.664-2.425 1.52-2.64 0.238-0.051 0.504-0.051 0.801 0 0.023 0 0.05 0.015 0.078 0.039h0.039c0.16 0.027 0.281 0.066 0.359 0.121-0.105-0.32-0.293-0.586-0.558-0.801-0.133-0.078-0.254-0.133-0.36-0.16-0.082-0.027-0.16-0.051-0.238-0.078-0.082-0.027-0.176-0.039-0.281-0.039-0.106 0-0.2 0.012-0.282 0.039-0.054 0.105-0.121 0.199-0.199 0.277-0.105 0.16-0.265 0.375-0.48 0.641-0.188 0.215-0.332 0.375-0.442 0.48zm-1.597-0.781c0.375-1.398 0.976-2.137 1.8-2.219h0.239c0.132 0.028 0.254 0.055 0.359 0.082 0.082 0.028 0.149 0.051 0.199 0.079 0.137 0.054 0.254 0.121 0.364 0.199-0.082-0.321-0.227-0.598-0.442-0.84-0.215-0.211-0.453-0.332-0.719-0.359l-0.043-0.04h-0.32c-0.156 0.028-0.316 0.094-0.476 0.2-0.27 0.187-0.481 0.48-0.641 0.879v0.043l-0.039 0.039-0.281 1.839v0.098zm7.32 4.543c-0.133-0.055-0.281-0.082-0.441-0.082-0.188 0-0.36 0.039-0.52 0.121-0.027 0.051-0.055 0.106-0.078 0.16-0.082 0.188-0.227 0.442-0.442 0.758-0.187 0.32-0.32 0.563-0.402 0.723v0.039c-0.043 0.59-0.004 1.191 0.121 1.801 0.133-1.575 0.629-2.469 1.481-2.68 0.265-0.082 0.558-0.082 0.879 0h0.16l0.16 0.078h0.043c0 0.027 0.012 0.039 0.039 0.039-0.133-0.316-0.336-0.57-0.602-0.758-0.132-0.105-0.265-0.175-0.398-0.199zm-1.801-7.641c-0.027-0.082-0.055-0.175-0.082-0.281-0.023 0.028-0.051 0.039-0.078 0.039l0.039 0.082c0.031 0.055 0.07 0.11 0.121 0.16zm1.961-0.16c-0.133-0.054-0.293-0.093-0.48-0.121v0.121l0.519 0.879 0.281 0.16c-0.187-0.398-0.296-0.746-0.32-1.039zm-0.441-0.48c0.054 0.055 0.121 0.105 0.199 0.16l0.242 0.238c-0.027-0.398 0.078-0.73 0.32-1 0.133-0.133 0.293-0.238 0.481-0.316 0.051-0.027 0.105-0.055 0.156-0.082 0.137-0.028 0.242-0.051 0.32-0.078-0.238-0.16-0.492-0.254-0.757-0.282-0.133 0-0.254 0.012-0.36 0.04-0.082 0.027-0.16 0.054-0.242 0.082-0.051 0.023-0.094 0.05-0.117 0.078-0.082 0.054-0.149 0.105-0.203 0.16v0.281c0 0.16-0.012 0.387-0.039 0.68v0.039zm-2-2.238c-0.078 0.078-0.149 0.16-0.2 0.238 0.106 0.082 0.188 0.172 0.239 0.281l-0.039-0.043c-0.078-0.023-0.16-0.051-0.239-0.078-0.054 0.187-0.066 0.375-0.043 0.559 0.028 0.027 0.067 0.05 0.122 0.082l0.402 0.16c0.051-0.321 0.199-0.563 0.437-0.723 0.055-0.051 0.106-0.09 0.161-0.117 0.082-0.027 0.175-0.055 0.281-0.082 0.054-0.024 0.105-0.039 0.16-0.039 0.133-0.028 0.238-0.039 0.32-0.039-0.187-0.188-0.414-0.321-0.679-0.403-0.243-0.05-0.469-0.039-0.68 0.043-0.11 0.051-0.188 0.106-0.242 0.161z" inkscape:connector-curvature="0"/>
    </g>
  </g>
<metadata><rdf:RDF><cc:Work><dc:format>image/svg+xml</dc:format><dc:type rdf:resource="http://purl.org/dc/dcmitype/StillImage"/><cc:license rdf:resource="http://creativecommons.org/licenses/publicdomain/"/><dc:publisher><cc:Agent rdf:about="http://openclipart.org/"><dc:title>Openclipart</dc:title></cc:Agent></dc:publisher></cc:Work><cc:License rdf:about="http://creativecommons.org/licenses/publicdomain/"><cc:permits rdf:resource="http://creativecommons.org/ns#Reproduction"/><cc:permits rdf:resource="http://creativecommons.org/ns#Distribution"/><cc:permits rdf:resource="http://creativecommons.org/ns#DerivativeWorks"/></cc:License></rdf:RDF></metadata></svg>
