<?xml version="1.0" encoding="UTF-8" standalone="no"?>
<!-- Created with Inkscape (http://www.inkscape.org/) -->
<svg xmlns:inkscape="http://www.inkscape.org/namespaces/inkscape" xmlns:rdf="http://www.w3.org/1999/02/22-rdf-syntax-ns#" xmlns="http://www.w3.org/2000/svg" xmlns:xlink="http://www.w3.org/1999/xlink" xmlns:ns1="http://sozi.baierouge.fr" xmlns:cc="http://creativecommons.org/ns#" xmlns:sodipodi="http://sodipodi.sourceforge.net/DTD/sodipodi-0.dtd" xmlns:dc="http://purl.org/dc/elements/1.1/" id="svg2" xml:space="preserve" viewBox="0 0 43.494 42.933" version="1.1" inkscape:version="0.91 r13725">
  <defs id="defs6">
    <linearGradient id="linearGradient24" y2="30.514" gradientUnits="userSpaceOnUse" x2="35.607" gradientTransform="matrix(.8 0 0 -.8 -.0085773 34.36)" y1="9.9644" x1="23.031">
      <stop id="stop26" style="stop-color:#1c4200" offset="0"/>
      <stop id="stop28" style="stop-color:#1e4400" offset=".43920"/>
      <stop id="stop30" style="stop-color:#244b01" offset=".59610"/>
      <stop id="stop32" style="stop-color:#305602" offset=".70590"/>
      <stop id="stop34" style="stop-color:#406704" offset=".79610"/>
      <stop id="stop36" style="stop-color:#557d06" offset=".87450"/>
      <stop id="stop38" style="stop-color:#6f9809" offset=".94510"/>
      <stop id="stop40" style="stop-color:#8bb50c" offset="1"/>
    </linearGradient>
    <linearGradient id="linearGradient54" y2="27.305" gradientUnits="userSpaceOnUse" x2="27.954" gradientTransform="matrix(.8 0 0 -.8 -.0085773 34.36)" y1="7.3032" x1="15.732">
      <stop id="stop56" style="stop-color:#255700" offset="0"/>
      <stop id="stop58" style="stop-color:#275900" offset=".44710"/>
      <stop id="stop60" style="stop-color:#2e5f01" offset=".60780"/>
      <stop id="stop62" style="stop-color:#396a02" offset=".72550"/>
      <stop id="stop64" style="stop-color:#4a7904" offset=".81570"/>
      <stop id="stop66" style="stop-color:#608e07" offset=".898"/>
      <stop id="stop68" style="stop-color:#7ba60a" offset=".96470"/>
      <stop id="stop70" style="stop-color:#8bb50c" offset="1"/>
    </linearGradient>
    <linearGradient id="linearGradient84" y2="19.176" gradientUnits="userSpaceOnUse" x2="33.825" gradientTransform="matrix(.8 0 0 -.8 -.0085773 34.36)" y1="1.6245" x1="23.077">
      <stop id="stop86" style="stop-color:#255700" offset="0"/>
      <stop id="stop88" style="stop-color:#275900" offset=".44710"/>
      <stop id="stop90" style="stop-color:#2e5f01" offset=".60780"/>
      <stop id="stop92" style="stop-color:#396a02" offset=".72550"/>
      <stop id="stop94" style="stop-color:#4a7904" offset=".81570"/>
      <stop id="stop96" style="stop-color:#608e07" offset=".898"/>
      <stop id="stop98" style="stop-color:#7ba60a" offset=".96470"/>
      <stop id="stop100" style="stop-color:#8bb50c" offset="1"/>
    </linearGradient>
    <linearGradient id="linearGradient114" y2="20.406" gradientUnits="userSpaceOnUse" x2="35.723" gradientTransform="matrix(.8 0 0 -.8 -.0085773 34.36)" y1="10.079" x1="29.402">
      <stop id="stop116" style="stop-color:#255700" offset="0"/>
      <stop id="stop118" style="stop-color:#275900" offset=".44710"/>
      <stop id="stop120" style="stop-color:#2e5f01" offset=".60780"/>
      <stop id="stop122" style="stop-color:#396a02" offset=".72550"/>
      <stop id="stop124" style="stop-color:#4a7904" offset=".81570"/>
      <stop id="stop126" style="stop-color:#608e07" offset=".898"/>
      <stop id="stop128" style="stop-color:#7ba60a" offset=".96470"/>
      <stop id="stop130" style="stop-color:#8bb50c" offset="1"/>
    </linearGradient>
    <linearGradient id="linearGradient144" y2="29.567" gradientUnits="userSpaceOnUse" x2="22.126" gradientTransform="matrix(.8 0 0 -.8 -.0085773 34.36)" y1="23.869" x1="26.253">
      <stop id="stop146" style="stop-color:#255700" offset="0"/>
      <stop id="stop148" style="stop-color:#275900" offset=".44710"/>
      <stop id="stop150" style="stop-color:#2e5f01" offset=".60780"/>
      <stop id="stop152" style="stop-color:#396a02" offset=".72550"/>
      <stop id="stop154" style="stop-color:#4a7904" offset=".81570"/>
      <stop id="stop156" style="stop-color:#608e07" offset=".898"/>
      <stop id="stop158" style="stop-color:#7ba60a" offset=".96470"/>
      <stop id="stop160" style="stop-color:#8bb50c" offset="1"/>
    </linearGradient>
    <linearGradient id="linearGradient174" y2="29.07" gradientUnits="userSpaceOnUse" x2="28.092" gradientTransform="matrix(.8 0 0 -.8 -.0085773 34.36)" y1="26.068" x1="26.246">
      <stop id="stop176" style="stop-color:#255700" offset="0"/>
      <stop id="stop178" style="stop-color:#275900" offset=".44710"/>
      <stop id="stop180" style="stop-color:#2e5f01" offset=".60780"/>
      <stop id="stop182" style="stop-color:#396a02" offset=".72550"/>
      <stop id="stop184" style="stop-color:#4a7904" offset=".81570"/>
      <stop id="stop186" style="stop-color:#608e07" offset=".898"/>
      <stop id="stop188" style="stop-color:#7ba60a" offset=".96470"/>
      <stop id="stop190" style="stop-color:#8bb50c" offset="1"/>
    </linearGradient>
    <linearGradient id="linearGradient204" y2="24.14" gradientUnits="userSpaceOnUse" x2="22.567" gradientTransform="matrix(.8 0 0 -.8 -.0085773 34.36)" y1="16.067" x1="17.63">
      <stop id="stop206" style="stop-color:#255700" offset="0"/>
      <stop id="stop208" style="stop-color:#275900" offset=".44710"/>
      <stop id="stop210" style="stop-color:#2e5f01" offset=".60780"/>
      <stop id="stop212" style="stop-color:#396a02" offset=".72550"/>
      <stop id="stop214" style="stop-color:#4a7904" offset=".81570"/>
      <stop id="stop216" style="stop-color:#608e07" offset=".898"/>
      <stop id="stop218" style="stop-color:#7ba60a" offset=".96470"/>
      <stop id="stop220" style="stop-color:#8bb50c" offset="1"/>
    </linearGradient>
    <linearGradient id="linearGradient234" y2="26.761" gradientUnits="userSpaceOnUse" x2="38.494" gradientTransform="matrix(.8 0 0 -.8 -.0085773 34.36)" y1="18.36" x1="33.346">
      <stop id="stop236" style="stop-color:#255700" offset="0"/>
      <stop id="stop238" style="stop-color:#275900" offset=".44710"/>
      <stop id="stop240" style="stop-color:#2e5f01" offset=".60780"/>
      <stop id="stop242" style="stop-color:#396a02" offset=".72550"/>
      <stop id="stop244" style="stop-color:#4a7904" offset=".81570"/>
      <stop id="stop246" style="stop-color:#608e07" offset=".898"/>
      <stop id="stop248" style="stop-color:#7ba60a" offset=".96470"/>
      <stop id="stop250" style="stop-color:#8bb50c" offset="1"/>
    </linearGradient>
    <linearGradient id="linearGradient264" y2="32.232" gradientUnits="userSpaceOnUse" x2="30.76" gradientTransform="matrix(.8 0 0 -.8 -.0085773 34.36)" y1="8.3809" x1="19.913">
      <stop id="stop266" style="stop-color:#2f7000" offset="0"/>
      <stop id="stop268" style="stop-color:#317100" offset=".45880"/>
      <stop id="stop270" style="stop-color:#387601" offset=".62350"/>
      <stop id="stop272" style="stop-color:#437f03" offset=".74120"/>
      <stop id="stop274" style="stop-color:#548c05" offset=".83530"/>
      <stop id="stop276" style="stop-color:#6a9d08" offset=".91760"/>
      <stop id="stop278" style="stop-color:#85b00b" offset=".98820"/>
      <stop id="stop280" style="stop-color:#8bb50c" offset="1"/>
    </linearGradient>
    <linearGradient id="linearGradient294" y2="32.527" gradientUnits="userSpaceOnUse" x2="36.663" gradientTransform="matrix(.8 0 0 -.8 -.0085773 34.36)" y1="10.954" x1="23.464">
      <stop id="stop296" style="stop-color:#376e00" offset="0"/>
      <stop id="stop298" style="stop-color:#396e00" offset=".73330"/>
      <stop id="stop302" style="stop-color:#407002" offset=".99220"/>
      <stop id="stop304" style="stop-color:#407002" offset="1"/>
    </linearGradient>
    <linearGradient id="linearGradient318" y2="41.376" gradientUnits="userSpaceOnUse" x2="41.266" gradientTransform="matrix(.8 0 0 -.8 -.0085773 34.36)" y1="11.482" x1="22.975">
      <stop id="stop320" style="stop-color:#8bb50c" offset="0"/>
      <stop id="stop322" style="stop-color:#89b30c" offset=".51370"/>
      <stop id="stop324" style="stop-color:#82ad0b" offset="0.702"/>
      <stop id="stop326" style="stop-color:#77a309" offset=".83140"/>
      <stop id="stop328" style="stop-color:#669307" offset=".93730"/>
      <stop id="stop330" style="stop-color:#588705" offset="1"/>
    </linearGradient>
    <linearGradient id="linearGradient344" y2="15.456" gradientUnits="userSpaceOnUse" x2="26.598" gradientTransform="matrix(.8 0 0 -.8 -.0085773 34.36)" y1="3.229" x1="19.126">
      <stop id="stop346" style="stop-color:#255700" offset="0"/>
      <stop id="stop348" style="stop-color:#275900" offset=".44710"/>
      <stop id="stop350" style="stop-color:#2e5f01" offset=".60780"/>
      <stop id="stop352" style="stop-color:#396a02" offset=".72550"/>
      <stop id="stop354" style="stop-color:#4a7904" offset=".81570"/>
      <stop id="stop356" style="stop-color:#608e07" offset=".898"/>
      <stop id="stop358" style="stop-color:#7ba60a" offset=".96470"/>
      <stop id="stop360" style="stop-color:#8bb50c" offset="1"/>
    </linearGradient>
    <linearGradient id="linearGradient374" y2="24.391" gradientUnits="userSpaceOnUse" x2="27.346" gradientTransform="matrix(.8 0 0 -.8 -.0085773 34.36)" y1="8.7139" x1="17.749">
      <stop id="stop376" style="stop-color:#2c6900" offset="0"/>
      <stop id="stop378" style="stop-color:#2e6a00" offset=".4549"/>
      <stop id="stop380" style="stop-color:#357001" offset=".6196"/>
      <stop id="stop382" style="stop-color:#407903" offset=".73330"/>
      <stop id="stop384" style="stop-color:#518705" offset=".82750"/>
      <stop id="stop386" style="stop-color:#679807" offset=".90980"/>
      <stop id="stop388" style="stop-color:#82ae0b" offset=".98040"/>
      <stop id="stop390" style="stop-color:#8bb50c" offset="1"/>
    </linearGradient>
    <linearGradient id="linearGradient404" y2="14.682" gradientUnits="userSpaceOnUse" x2="32.839" gradientTransform="matrix(.8 0 0 -.8 -.0085773 34.36)" y1="1.9287" x1="25.044">
      <stop id="stop406" style="stop-color:#2c6900" offset="0"/>
      <stop id="stop408" style="stop-color:#2e6a00" offset=".4549"/>
      <stop id="stop410" style="stop-color:#357001" offset=".6196"/>
      <stop id="stop412" style="stop-color:#407903" offset=".73330"/>
      <stop id="stop414" style="stop-color:#518705" offset=".82750"/>
      <stop id="stop416" style="stop-color:#679807" offset=".90980"/>
      <stop id="stop418" style="stop-color:#82ae0b" offset=".98040"/>
      <stop id="stop420" style="stop-color:#8bb50c" offset="1"/>
    </linearGradient>
    <linearGradient id="linearGradient434" y2="29.23" gradientUnits="userSpaceOnUse" x2="31.593" gradientTransform="matrix(.8 0 0 -.8 -.0085773 34.36)" y1="15.354" x1="24.744">
      <stop id="stop436" style="stop-color:#378200" offset="0"/>
      <stop id="stop438" style="stop-color:#398300" offset=".47060"/>
      <stop id="stop440" style="stop-color:#408701" offset=".63920"/>
      <stop id="stop442" style="stop-color:#4b8e03" offset=".75690"/>
      <stop id="stop444" style="stop-color:#5c9806" offset=".8549"/>
      <stop id="stop446" style="stop-color:#72a509" offset=".93730"/>
      <stop id="stop448" style="stop-color:#88b20c" offset="1"/>
    </linearGradient>
    <linearGradient id="linearGradient462" y2="42.193" gradientUnits="userSpaceOnUse" x2="41.85" gradientTransform="matrix(.8 0 0 -.8 -.0085773 34.36)" y1="13.589" x1="24.349">
      <stop id="stop464" style="stop-color:#a2cf1b" offset="0"/>
      <stop id="stop466" style="stop-color:#a3cf1d" offset=".41570"/>
      <stop id="stop468" style="stop-color:#a6d124" offset=".56470"/>
      <stop id="stop470" style="stop-color:#abd32f" offset=".6706"/>
      <stop id="stop472" style="stop-color:#b3d640" offset=".75690"/>
      <stop id="stop474" style="stop-color:#bcdb56" offset=".82750"/>
      <stop id="stop476" style="stop-color:#c8e072" offset=".89410"/>
      <stop id="stop478" style="stop-color:#d6e691" offset=".95290"/>
      <stop id="stop480" style="stop-color:#e5edb2" offset="1"/>
    </linearGradient>
    <linearGradient id="linearGradient494" y2="25.175" gradientUnits="userSpaceOnUse" x2="27.5" gradientTransform="matrix(.8 0 0 -.8 -.0085773 34.36)" y1="9.7588" x1="18.076">
      <stop id="stop496" style="stop-color:#4e8a00" offset="0"/>
      <stop id="stop498" style="stop-color:#508b00" offset=".498"/>
      <stop id="stop500" style="stop-color:#579002" offset=".67450"/>
      <stop id="stop502" style="stop-color:#629804" offset=".8039"/>
      <stop id="stop504" style="stop-color:#73a407" offset=".9059"/>
      <stop id="stop506" style="stop-color:#89b30c" offset=".99220"/>
      <stop id="stop508" style="stop-color:#8bb50c" offset="1"/>
    </linearGradient>
    <linearGradient id="linearGradient522" y2="21.826" gradientUnits="userSpaceOnUse" x2="33.724" gradientTransform="matrix(.8 0 0 -.8 -.0085773 34.36)" y1="6.9355" x1="24.61">
      <stop id="stop524" style="stop-color:#4e8a00" offset="0"/>
      <stop id="stop526" style="stop-color:#508b00" offset=".498"/>
      <stop id="stop528" style="stop-color:#579002" offset=".67450"/>
      <stop id="stop530" style="stop-color:#629804" offset=".8039"/>
      <stop id="stop532" style="stop-color:#73a407" offset=".9059"/>
      <stop id="stop534" style="stop-color:#89b30c" offset=".99220"/>
      <stop id="stop536" style="stop-color:#8bb50c" offset="1"/>
    </linearGradient>
    <linearGradient id="linearGradient550" y2="19.797" gradientUnits="userSpaceOnUse" x2="35.124" gradientTransform="matrix(.8 0 0 -.8 -.0085773 34.36)" y1="13.571" x1="31.327">
      <stop id="stop552" style="stop-color:#4e8a00" offset="0"/>
      <stop id="stop554" style="stop-color:#508b00" offset=".498"/>
      <stop id="stop556" style="stop-color:#579002" offset=".67450"/>
      <stop id="stop558" style="stop-color:#629804" offset=".8039"/>
      <stop id="stop560" style="stop-color:#73a407" offset=".9059"/>
      <stop id="stop562" style="stop-color:#89b30c" offset=".99220"/>
      <stop id="stop564" style="stop-color:#8bb50c" offset="1"/>
    </linearGradient>
    <linearGradient id="linearGradient578" y2="27.033" gradientUnits="userSpaceOnUse" x2="22.22" gradientTransform="matrix(.8 0 0 -.8 -.0085773 34.36)" y1="18.964" x1="17.286">
      <stop id="stop580" style="stop-color:#4e8a00" offset="0"/>
      <stop id="stop582" style="stop-color:#508b00" offset=".498"/>
      <stop id="stop584" style="stop-color:#579002" offset=".67450"/>
      <stop id="stop586" style="stop-color:#629804" offset=".8039"/>
      <stop id="stop588" style="stop-color:#73a407" offset=".9059"/>
      <stop id="stop590" style="stop-color:#89b30c" offset=".99220"/>
      <stop id="stop592" style="stop-color:#8bb50c" offset="1"/>
    </linearGradient>
    <linearGradient id="linearGradient606" y2="25.026" gradientUnits="userSpaceOnUse" x2="27.449" gradientTransform="matrix(.8 0 0 -.8 -.0085773 34.36)" y1="10.652" x1="18.653">
      <stop id="stop608" style="stop-color:#69ab00" offset="0"/>
      <stop id="stop610" style="stop-color:#6bac01" offset=".55690"/>
      <stop id="stop612" style="stop-color:#72ae03" offset=".7608"/>
      <stop id="stop614" style="stop-color:#7db107" offset="0.902"/>
      <stop id="stop616" style="stop-color:#8bb50c" offset="1"/>
    </linearGradient>
    <linearGradient id="linearGradient630" y2="21.378" gradientUnits="userSpaceOnUse" x2="33.312" gradientTransform="matrix(.8 0 0 -.8 -.0085773 34.36)" y1="8.0293" x1="25.136">
      <stop id="stop632" style="stop-color:#69ab00" offset="0"/>
      <stop id="stop634" style="stop-color:#6bac01" offset=".55690"/>
      <stop id="stop636" style="stop-color:#72ae03" offset=".7608"/>
      <stop id="stop638" style="stop-color:#7db107" offset="0.902"/>
      <stop id="stop640" style="stop-color:#8bb50c" offset="1"/>
    </linearGradient>
    <linearGradient id="linearGradient654" y2="26.934" gradientUnits="userSpaceOnUse" x2="22.436" gradientTransform="matrix(.8 0 0 -.8 -.0085773 34.36)" y1="19.51" x1="17.884">
      <stop id="stop656" style="stop-color:#4c7a00" offset="0"/>
      <stop id="stop658" style="stop-color:#4e7c00" offset=".498"/>
      <stop id="stop662" style="stop-color:#558202" offset=".67450"/>
      <stop id="stop664" style="stop-color:#608d04" offset="0.8"/>
      <stop id="stop666" style="stop-color:#719d07" offset="0.902"/>
      <stop id="stop668" style="stop-color:#87b10b" offset=".98820"/>
      <stop id="stop670" style="stop-color:#8bb50c" offset="1"/>
    </linearGradient>
    <linearGradient id="linearGradient684" y2="41.746" gradientUnits="userSpaceOnUse" x2="42.748" gradientTransform="matrix(.8 0 0 -.8 -.0085773 34.36)" y1="40.072" x1="41.72">
      <stop id="stop686" style="stop-color:#b58c22" offset="0"/>
      <stop id="stop688" style="stop-color:#b89028" offset=".1804"/>
      <stop id="stop692" style="stop-color:#c19d38" offset=".4039"/>
      <stop id="stop694" style="stop-color:#cfb253" offset=".65490"/>
      <stop id="stop696" style="stop-color:#e2ce79" offset=".92550"/>
      <stop id="stop698" style="stop-color:#e8d784" offset="1"/>
    </linearGradient>
    <clipPath id="clipPath706">
      <path id="path708" d="m13 0.34672h20v24h-20v-24z" inkscape:connector-curvature="0"/>
    </clipPath>
    <mask id="mask710">
      <g id="g712">
        <g id="g714" clip-path="url(#clipPath706)">
          <path id="path716" style="fill:#000000;fill-opacity:.62110" d="m13 0.34672h20v24h-20v-24z" inkscape:connector-curvature="0"/>
        </g>
      </g>
    </mask>
    <clipPath id="clipPath722">
      <path id="path724" d="m13 0.34672h20v24h-20v-24z" inkscape:connector-curvature="0"/>
    </clipPath>
    <clipPath id="clipPath726">
      <path id="path728" d="m13 1h20v24h-20v-24z" inkscape:connector-curvature="0"/>
    </clipPath>
    <linearGradient id="linearGradient756" y2="9.3228" gradientUnits="userSpaceOnUse" x2="42.356" gradientTransform="matrix(.65992 -.45224 -.45224 -.65992 -.0084093 34.36)" y1="9.3228" x1="17.323">
      <stop id="stop758" style="stop-color:#1c4200" offset="0"/>
      <stop id="stop760" style="stop-color:#1e4400" offset=".43920"/>
      <stop id="stop762" style="stop-color:#244b01" offset=".59610"/>
      <stop id="stop764" style="stop-color:#305602" offset=".70590"/>
      <stop id="stop766" style="stop-color:#406704" offset=".79610"/>
      <stop id="stop768" style="stop-color:#557d06" offset=".87450"/>
      <stop id="stop770" style="stop-color:#6f9809" offset=".94510"/>
      <stop id="stop772" style="stop-color:#8bb50c" offset="1"/>
    </linearGradient>
    <linearGradient id="linearGradient786" y2="3.8896" gradientUnits="userSpaceOnUse" x2="35.224" gradientTransform="matrix(.65992 -.45224 -.45224 -.65992 -.0085317 34.36)" y1="3.8896" x1="10.282">
      <stop id="stop788" style="stop-color:#255700" offset="0"/>
      <stop id="stop790" style="stop-color:#275900" offset=".44710"/>
      <stop id="stop792" style="stop-color:#2e5f01" offset=".60780"/>
      <stop id="stop794" style="stop-color:#396a02" offset=".72550"/>
      <stop id="stop796" style="stop-color:#4a7904" offset=".81570"/>
      <stop id="stop798" style="stop-color:#608e07" offset=".898"/>
      <stop id="stop800" style="stop-color:#7ba60a" offset=".96470"/>
      <stop id="stop802" style="stop-color:#8bb50c" offset="1"/>
    </linearGradient>
    <linearGradient id="linearGradient816" y2="12.996" gradientUnits="userSpaceOnUse" x2="31.396" gradientTransform="matrix(.65968 -.45256 -.45256 -.65968 -.0084613 34.36)" y1="12.996" x1="10.462">
      <stop id="stop818" style="stop-color:#255700" offset="0"/>
      <stop id="stop820" style="stop-color:#275900" offset=".44710"/>
      <stop id="stop822" style="stop-color:#2e5f01" offset=".60780"/>
      <stop id="stop824" style="stop-color:#396a02" offset=".72550"/>
      <stop id="stop826" style="stop-color:#4a7904" offset=".81570"/>
      <stop id="stop828" style="stop-color:#608e07" offset=".898"/>
      <stop id="stop830" style="stop-color:#7ba60a" offset=".96470"/>
      <stop id="stop832" style="stop-color:#8bb50c" offset="1"/>
    </linearGradient>
    <linearGradient id="linearGradient846" y2="14.644" gradientUnits="userSpaceOnUse" x2="33.79" gradientTransform="matrix(.65984 -.45232 -.45232 -.65984 -.0084493 34.36)" y1="14.644" x1="21.454">
      <stop id="stop848" style="stop-color:#255700" offset="0"/>
      <stop id="stop850" style="stop-color:#275900" offset=".44710"/>
      <stop id="stop852" style="stop-color:#2e5f01" offset=".60780"/>
      <stop id="stop854" style="stop-color:#396a02" offset=".72550"/>
      <stop id="stop856" style="stop-color:#4a7904" offset=".81570"/>
      <stop id="stop858" style="stop-color:#608e07" offset=".898"/>
      <stop id="stop860" style="stop-color:#7ba60a" offset=".96470"/>
      <stop id="stop862" style="stop-color:#8bb50c" offset="1"/>
    </linearGradient>
    <linearGradient id="linearGradient876" y2="-28.482" gradientUnits="userSpaceOnUse" x2="17.653" gradientTransform="matrix(-.16352 -.78312 -.78312 .16352 -.0090461 34.36)" y1="-28.482" x1="8.9692">
      <stop id="stop878" style="stop-color:#255700" offset="0"/>
      <stop id="stop880" style="stop-color:#275900" offset=".44710"/>
      <stop id="stop882" style="stop-color:#2e5f01" offset=".60780"/>
      <stop id="stop884" style="stop-color:#396a02" offset=".72550"/>
      <stop id="stop886" style="stop-color:#4a7904" offset=".81570"/>
      <stop id="stop888" style="stop-color:#608e07" offset=".898"/>
      <stop id="stop890" style="stop-color:#7ba60a" offset=".96470"/>
      <stop id="stop892" style="stop-color:#8bb50c" offset="1"/>
    </linearGradient>
    <linearGradient id="linearGradient906" y2="4.1567" gradientUnits="userSpaceOnUse" x2="36.849" gradientTransform="matrix(.6604 -.4516 -.4516 -.6604 -.0086437 34.36)" y1="4.1567" x1="32.73">
      <stop id="stop908" style="stop-color:#255700" offset="0"/>
      <stop id="stop910" style="stop-color:#275900" offset=".44710"/>
      <stop id="stop912" style="stop-color:#2e5f01" offset=".60780"/>
      <stop id="stop914" style="stop-color:#396a02" offset=".72550"/>
      <stop id="stop916" style="stop-color:#4a7904" offset=".81570"/>
      <stop id="stop918" style="stop-color:#608e07" offset=".898"/>
      <stop id="stop920" style="stop-color:#7ba60a" offset=".96470"/>
      <stop id="stop922" style="stop-color:#8bb50c" offset="1"/>
    </linearGradient>
    <linearGradient id="linearGradient936" y2=".79590" gradientUnits="userSpaceOnUse" x2="29.033" gradientTransform="matrix(.66032 -.45168 -.45168 -.66032 -.0087341 34.36)" y1=".79590" x1="18.583">
      <stop id="stop938" style="stop-color:#255700" offset="0"/>
      <stop id="stop940" style="stop-color:#275900" offset=".44710"/>
      <stop id="stop942" style="stop-color:#2e5f01" offset=".60780"/>
      <stop id="stop944" style="stop-color:#396a02" offset=".72550"/>
      <stop id="stop946" style="stop-color:#4a7904" offset=".81570"/>
      <stop id="stop948" style="stop-color:#608e07" offset=".898"/>
      <stop id="stop950" style="stop-color:#7ba60a" offset=".96470"/>
      <stop id="stop952" style="stop-color:#8bb50c" offset="1"/>
    </linearGradient>
    <linearGradient id="linearGradient966" y2="14.703" gradientUnits="userSpaceOnUse" x2="41.09" gradientTransform="matrix(.65984 -.4524 -.4524 -.65984 -.0085221 34.36)" y1="14.703" x1="30.966">
      <stop id="stop968" style="stop-color:#255700" offset="0"/>
      <stop id="stop970" style="stop-color:#275900" offset=".44710"/>
      <stop id="stop972" style="stop-color:#2e5f01" offset=".60780"/>
      <stop id="stop974" style="stop-color:#396a02" offset=".72550"/>
      <stop id="stop976" style="stop-color:#4a7904" offset=".81570"/>
      <stop id="stop978" style="stop-color:#608e07" offset=".898"/>
      <stop id="stop980" style="stop-color:#7ba60a" offset=".96470"/>
      <stop id="stop982" style="stop-color:#8bb50c" offset="1"/>
    </linearGradient>
    <linearGradient id="linearGradient996" y2="2.9063" gradientUnits="userSpaceOnUse" x2="42.408" gradientTransform="matrix(.59992 -.5292 -.5292 -.59992 -.0085005 34.36)" y1="2.9063" x1="14.972">
      <stop id="stop998" style="stop-color:#2f7000" offset="0"/>
      <stop id="stop1000" style="stop-color:#317100" offset=".45880"/>
      <stop id="stop1002" style="stop-color:#387601" offset=".62350"/>
      <stop id="stop1004" style="stop-color:#437f03" offset=".74120"/>
      <stop id="stop1006" style="stop-color:#548c05" offset=".83530"/>
      <stop id="stop1008" style="stop-color:#6a9d08" offset=".91760"/>
      <stop id="stop1010" style="stop-color:#85b00b" offset=".98820"/>
      <stop id="stop1012" style="stop-color:#8bb50c" offset="1"/>
    </linearGradient>
    <linearGradient id="linearGradient1026" y2="8.7949" gradientUnits="userSpaceOnUse" x2="44.802" gradientTransform="matrix(.65992 -.45224 -.45224 -.65992 -.0084637 34.36)" y1="8.7949" x1="18.127">
      <stop id="stop1028" style="stop-color:#376e00" offset="0"/>
      <stop id="stop1030" style="stop-color:#396e00" offset=".73330"/>
      <stop id="stop1034" style="stop-color:#407002" offset=".99220"/>
      <stop id="stop1036" style="stop-color:#407002" offset="1"/>
    </linearGradient>
    <linearGradient id="linearGradient1050" y2="8.8359" gradientUnits="userSpaceOnUse" x2="55.366" gradientTransform="matrix(.65976 -.45248 -.45248 -.65976 -.0084469 34.36)" y1="8.8359" x1="18.329">
      <stop id="stop1052" style="stop-color:#8bb50c" offset="0"/>
      <stop id="stop1054" style="stop-color:#89b30c" offset=".51370"/>
      <stop id="stop1056" style="stop-color:#82ad0b" offset="0.702"/>
      <stop id="stop1058" style="stop-color:#77a309" offset=".83140"/>
      <stop id="stop1060" style="stop-color:#669307" offset=".93730"/>
      <stop id="stop1062" style="stop-color:#588705" offset="1"/>
    </linearGradient>
    <linearGradient id="linearGradient1076" y2="7.9502" gradientUnits="userSpaceOnUse" x2="23.925" gradientTransform="matrix(.65976 -.4524 -.4524 -.65976 -.0086573 34.36)" y1="7.9502" x1="9.0703">
      <stop id="stop1078" style="stop-color:#255700" offset="0"/>
      <stop id="stop1080" style="stop-color:#275900" offset=".44710"/>
      <stop id="stop1082" style="stop-color:#2e5f01" offset=".60780"/>
      <stop id="stop1084" style="stop-color:#396a02" offset=".72550"/>
      <stop id="stop1086" style="stop-color:#4a7904" offset=".81570"/>
      <stop id="stop1088" style="stop-color:#608e07" offset=".898"/>
      <stop id="stop1090" style="stop-color:#7ba60a" offset=".96470"/>
      <stop id="stop1092" style="stop-color:#8bb50c" offset="1"/>
    </linearGradient>
    <linearGradient id="linearGradient1106" y2="4.3203" gradientUnits="userSpaceOnUse" x2="32.11" gradientTransform="matrix(.65984 -.45232 -.45232 -.65984 -.0085037 34.36)" y1="4.3203" x1="12.742">
      <stop id="stop1108" style="stop-color:#2c6900" offset="0"/>
      <stop id="stop1110" style="stop-color:#2e6a00" offset=".4549"/>
      <stop id="stop1112" style="stop-color:#357001" offset=".6196"/>
      <stop id="stop1114" style="stop-color:#407903" offset=".73330"/>
      <stop id="stop1116" style="stop-color:#518705" offset=".82750"/>
      <stop id="stop1118" style="stop-color:#679807" offset=".90980"/>
      <stop id="stop1120" style="stop-color:#82ae0b" offset=".98040"/>
      <stop id="stop1122" style="stop-color:#8bb50c" offset="1"/>
    </linearGradient>
    <linearGradient id="linearGradient1136" y2="14.649" gradientUnits="userSpaceOnUse" x2="27.02" gradientTransform="matrix(.65952 -.4528 -.4528 -.65952 -.0084093 34.36)" y1="14.649" x1="11.827">
      <stop id="stop1138" style="stop-color:#2c6900" offset="0"/>
      <stop id="stop1140" style="stop-color:#2e6a00" offset=".4549"/>
      <stop id="stop1142" style="stop-color:#357001" offset=".6196"/>
      <stop id="stop1144" style="stop-color:#407903" offset=".73330"/>
      <stop id="stop1146" style="stop-color:#518705" offset=".82750"/>
      <stop id="stop1148" style="stop-color:#679807" offset=".90980"/>
      <stop id="stop1150" style="stop-color:#82ae0b" offset=".98040"/>
      <stop id="stop1152" style="stop-color:#8bb50c" offset="1"/>
    </linearGradient>
    <linearGradient id="linearGradient1166" y2="4.5176" gradientUnits="userSpaceOnUse" x2="39.727" gradientTransform="matrix(.61656 -.50976 -.50976 -.61656 -.0083925 34.36)" y1="4.5176" x1="23.053">
      <stop id="stop1168" style="stop-color:#378200" offset="0"/>
      <stop id="stop1170" style="stop-color:#398300" offset=".47060"/>
      <stop id="stop1172" style="stop-color:#408701" offset=".63920"/>
      <stop id="stop1174" style="stop-color:#4b8e03" offset=".75690"/>
      <stop id="stop1176" style="stop-color:#5c9806" offset=".8549"/>
      <stop id="stop1178" style="stop-color:#72a509" offset=".93730"/>
      <stop id="stop1180" style="stop-color:#88b20c" offset="1"/>
    </linearGradient>
    <linearGradient id="linearGradient1194" y2="8.2402" gradientUnits="userSpaceOnUse" x2="56.429" gradientTransform="matrix(.66 -.45208 -.45208 -.66 -.0085461 34.36)" y1="8.2402" x1="20.569">
      <stop id="stop1196" style="stop-color:#a2cf1b" offset="0"/>
      <stop id="stop1198" style="stop-color:#a3cf1d" offset=".41570"/>
      <stop id="stop1200" style="stop-color:#a6d124" offset=".56470"/>
      <stop id="stop1202" style="stop-color:#abd32f" offset=".6706"/>
      <stop id="stop1204" style="stop-color:#b3d640" offset=".75690"/>
      <stop id="stop1206" style="stop-color:#bcdb56" offset=".82750"/>
      <stop id="stop1208" style="stop-color:#c8e072" offset=".89410"/>
      <stop id="stop1210" style="stop-color:#d6e691" offset=".95290"/>
      <stop id="stop1212" style="stop-color:#e5edb2" offset="1"/>
    </linearGradient>
    <linearGradient id="linearGradient1226" y2="4.1348" gradientUnits="userSpaceOnUse" x2="32.726" gradientTransform="matrix(.65992 -.45224 -.45224 -.65992 -.0084061 34.36)" y1="4.1348" x1="13.769">
      <stop id="stop1228" style="stop-color:#4e8a00" offset="0"/>
      <stop id="stop1230" style="stop-color:#508b00" offset=".498"/>
      <stop id="stop1232" style="stop-color:#579002" offset=".67450"/>
      <stop id="stop1234" style="stop-color:#629804" offset=".8039"/>
      <stop id="stop1236" style="stop-color:#73a407" offset=".9059"/>
      <stop id="stop1238" style="stop-color:#89b30c" offset=".99220"/>
      <stop id="stop1240" style="stop-color:#8bb50c" offset="1"/>
    </linearGradient>
    <linearGradient id="linearGradient1254" y2="11.963" gradientUnits="userSpaceOnUse" x2="33.703" gradientTransform="matrix(.65992 -.45224 -.45224 -.65992 -.0085341 34.36)" y1="11.963" x1="15.786">
      <stop id="stop1256" style="stop-color:#4e8a00" offset="0"/>
      <stop id="stop1258" style="stop-color:#508b00" offset=".498"/>
      <stop id="stop1260" style="stop-color:#579002" offset=".67450"/>
      <stop id="stop1262" style="stop-color:#629804" offset=".8039"/>
      <stop id="stop1264" style="stop-color:#73a407" offset=".9059"/>
      <stop id="stop1266" style="stop-color:#89b30c" offset=".99220"/>
      <stop id="stop1268" style="stop-color:#8bb50c" offset="1"/>
    </linearGradient>
    <linearGradient id="linearGradient1282" y2="14.85" gradientUnits="userSpaceOnUse" x2="32.946" gradientTransform="matrix(.6596 -.45264 -.45264 -.6596 -.0086501 34.36)" y1="14.85" x1="25.7">
      <stop id="stop1284" style="stop-color:#4e8a00" offset="0"/>
      <stop id="stop1286" style="stop-color:#508b00" offset=".498"/>
      <stop id="stop1288" style="stop-color:#579002" offset=".67450"/>
      <stop id="stop1290" style="stop-color:#629804" offset=".8039"/>
      <stop id="stop1292" style="stop-color:#73a407" offset=".9059"/>
      <stop id="stop1294" style="stop-color:#89b30c" offset=".99220"/>
      <stop id="stop1296" style="stop-color:#8bb50c" offset="1"/>
    </linearGradient>
    <linearGradient id="linearGradient1310" y2="-1.0986" gradientUnits="userSpaceOnUse" x2="31.244" gradientTransform="matrix(.66 -.45208 -.45208 -.66 -.0084437 34.36)" y1="-1.0986" x1="20.759">
      <stop id="stop1312" style="stop-color:#4e8a00" offset="0"/>
      <stop id="stop1314" style="stop-color:#508b00" offset=".498"/>
      <stop id="stop1316" style="stop-color:#579002" offset=".67450"/>
      <stop id="stop1318" style="stop-color:#629804" offset=".8039"/>
      <stop id="stop1320" style="stop-color:#73a407" offset=".9059"/>
      <stop id="stop1322" style="stop-color:#89b30c" offset=".99220"/>
      <stop id="stop1324" style="stop-color:#8bb50c" offset="1"/>
    </linearGradient>
    <linearGradient id="linearGradient1338" y2="4.1768" gradientUnits="userSpaceOnUse" x2="32.629" gradientTransform="matrix(.65968 -.45256 -.45256 -.65968 -.0085253 34.36)" y1="4.1768" x1="14.947">
      <stop id="stop1340" style="stop-color:#69ab00" offset="0"/>
      <stop id="stop1342" style="stop-color:#6bac01" offset=".55690"/>
      <stop id="stop1344" style="stop-color:#72ae03" offset=".7608"/>
      <stop id="stop1346" style="stop-color:#7db107" offset="0.902"/>
      <stop id="stop1348" style="stop-color:#8bb50c" offset="1"/>
    </linearGradient>
    <linearGradient id="linearGradient1362" y2="11.854" gradientUnits="userSpaceOnUse" x2="33.095" gradientTransform="matrix(.65944 -.45288 -.45288 -.65944 -.0083989 34.36)" y1="11.854" x1="17.021">
      <stop id="stop1364" style="stop-color:#69ab00" offset="0"/>
      <stop id="stop1366" style="stop-color:#6bac01" offset=".55690"/>
      <stop id="stop1368" style="stop-color:#72ae03" offset=".7608"/>
      <stop id="stop1370" style="stop-color:#7db107" offset="0.902"/>
      <stop id="stop1372" style="stop-color:#8bb50c" offset="1"/>
    </linearGradient>
    <linearGradient id="linearGradient1386" y2="-.72070" gradientUnits="userSpaceOnUse" x2="31.311" gradientTransform="matrix(.65984 -.45232 -.45232 -.65984 -.0085701 34.36)" y1="-.72070" x1="21.672">
      <stop id="stop1388" style="stop-color:#4c7a00" offset="0"/>
      <stop id="stop1390" style="stop-color:#4e7c00" offset=".498"/>
      <stop id="stop1394" style="stop-color:#558202" offset=".67450"/>
      <stop id="stop1396" style="stop-color:#608d04" offset="0.8"/>
      <stop id="stop1398" style="stop-color:#719d07" offset="0.902"/>
      <stop id="stop1400" style="stop-color:#87b10b" offset=".98820"/>
      <stop id="stop1402" style="stop-color:#8bb50c" offset="1"/>
    </linearGradient>
    <linearGradient id="linearGradient1416" y2="12.496" gradientUnits="userSpaceOnUse" x2="56.532" gradientTransform="matrix(.66096 -.45064 -.45064 -.66096 -.0087709 34.36)" y1="12.496" x1="54.535">
      <stop id="stop1418" style="stop-color:#b58c22" offset="0"/>
      <stop id="stop1420" style="stop-color:#b89028" offset=".1804"/>
      <stop id="stop1424" style="stop-color:#c19d38" offset=".4039"/>
      <stop id="stop1426" style="stop-color:#cfb253" offset=".65490"/>
      <stop id="stop1428" style="stop-color:#e2ce79" offset=".92550"/>
      <stop id="stop1430" style="stop-color:#e8d784" offset="1"/>
    </linearGradient>
  </defs>
  <g id="g10" transform="matrix(1.25 0 0 -1.25 0 42.933)">
    <g id="g12">
      <g id="g14">
        <g id="g16">
          <g id="g22">
            <path id="path42" style="fill-rule:evenodd;fill:url(#linearGradient24)" d="m18.75 21.319c-0.398 1.36-0.371 2.817 0.082 4.36 0.48 1.629 1.172 2.082 2.078 1.363 0.75-0.617 1.641-1.906 2.68-3.883 0.562-1.094 1.336-2.625 2.32-4.597 0.481-0.829 1-1.723 1.563-2.68 0.343-0.695 0.504-1.535 0.48-2.524-0.027-1.945-0.066-3.039-0.121-3.277-0.187-0.933-0.68-1.043-1.48-0.32-1.653 1.547-3.028 3.226-4.122 5.039-0.503 0.851-1.05 2.133-1.64 3.84-0.559 1.734-0.906 2.812-1.039 3.242l-0.801-0.563z" inkscape:connector-curvature="0"/>
          </g>
        </g>
      </g>
      <g id="g44">
        <g id="g46">
          <g id="g52">
            <path id="path72" style="fill-rule:evenodd;fill:url(#linearGradient54)" d="m19.473 21.319c3.359-4.398 5-6.879 4.918-7.437-0.079-0.535-0.493-0.121-1.239 1.238-2 1.387-3.64 2.32-4.922 2.801-1.011 0.398-2 1.039-2.96 1.918-1.067 0.988-1.879 2.082-2.438 3.281-0.641 1.332-0.789 2.762-0.441 4.281 0.32 1.547 0.972 2.028 1.961 1.438 0.824-0.481 1.773-1.664 2.839-3.559 1.36-2.425 2.121-3.746 2.282-3.961z" inkscape:connector-curvature="0"/>
          </g>
        </g>
      </g>
      <g id="g74">
        <g id="g76">
          <g id="g82">
            <path id="path102" style="fill-rule:evenodd;fill:url(#linearGradient84)" d="m23.352 27.839c0-0.934-0.016-2.117-0.04-3.559-0.027-1.121 0.04-2.027 0.2-2.718l0.16-0.762c0.426-1.813 0.64-2.879 0.64-3.199 0-0.801-0.574-0.336-1.722 1.398-0.559 0.883-0.985 1.734-1.278 2.563-0.292 0.824-0.546 1.906-0.761 3.238-0.133 0.773-0.227 2.105-0.281 4-0.024 1.629-0.145 2.719-0.36 3.281-0.293 0.801-0.238 1.414 0.16 1.84 0.375 0.426 0.961 0.531 1.762 0.32 0.664-0.215 1.106-1 1.32-2.359 0.133-0.828 0.2-2.176 0.2-4.043z" inkscape:connector-curvature="0"/>
          </g>
        </g>
      </g>
      <g id="g104">
        <g id="g106">
          <g id="g112">
            <path id="path132" style="fill-rule:evenodd;fill:url(#linearGradient114)" d="m24.109 26.601c1.282 1.011 2.215 0.691 2.801-0.961 0.293-0.852 0.375-1.692 0.242-2.52-0.082-0.426-0.187-0.762-0.32-1-0.187 0.078-0.348 0.051-0.48-0.082-0.293-0.293-0.348-0.957-0.161-2 0.161-0.824 0.332-1.703 0.52-2.637 0.082-0.48 0-0.613-0.238-0.402-0.43 0.375-0.977 1.066-1.641 2.082-0.828 1.254-1.309 2.254-1.441 3-0.106 0.719-0.012 1.692 0.281 2.918l0.437 1.602z" inkscape:connector-curvature="0"/>
          </g>
        </g>
      </g>
      <g id="g134">
        <g id="g136">
          <g id="g142">
            <path id="path162" style="fill-rule:evenodd;fill:url(#linearGradient144)" d="m20.07 16.12c0.696-0.293 1.922-1.293 3.68-3-1.039 0.32-1.773 0.531-2.199 0.641-0.692 0.16-1.239 0.148-1.641-0.039-0.586-0.27-0.945-0.453-1.078-0.563-0.348-0.211-0.641-0.547-0.879-1-0.402-0.664-0.469-1.48-0.203-2.437-0.184-0.028-0.387 0.023-0.598 0.16-0.453 0.266-0.773 0.84-0.961 1.719-0.398 2-0.039 3.414 1.079 4.238 0.8 0.668 1.734 0.762 2.8 0.281z" inkscape:connector-curvature="0"/>
          </g>
        </g>
      </g>
      <g id="g164">
        <g id="g166">
          <g id="g172">
            <path id="path192" style="fill-rule:evenodd;fill:url(#linearGradient174)" d="m24.672 12.44c-0.934 0.161-1.586 0.266-1.961 0.321-0.586 0.051-1.066-0.082-1.441-0.403-0.372-0.371-0.653-0.757-0.84-1.156-0.16-0.375-0.211-0.64-0.16-0.801-0.797 0.481-1.133 0.973-1 1.481 0.082 0.32 0.507 0.758 1.281 1.32 0.695 0.504 1.187 0.797 1.48 0.879 0.293 0.055 1.172-0.496 2.641-1.641z" inkscape:connector-curvature="0"/>
          </g>
        </g>
      </g>
      <g id="g194">
        <g id="g196">
          <g id="g202">
            <path id="path222" style="fill-rule:evenodd;fill:url(#linearGradient204)" d="m13.672 17.44c-1.36 2.106-1.402 3.321-0.121 3.641 0.773 0.211 1.695 0.039 2.761-0.519 0.958-0.481 1.719-1.094 2.278-1.84 1.308-1.707 1.68-2.574 1.121-2.602-0.852-0.105-1.641-0.172-2.359-0.199-1.786-0.082-3.016 0.426-3.68 1.519z" inkscape:connector-curvature="0"/>
          </g>
        </g>
      </g>
      <g id="g224">
        <g id="g226">
          <g id="g232">
            <path id="path252" style="fill-rule:evenodd;fill:url(#linearGradient234)" d="m27.43 19.999c1.308-0.184 2.027-0.73 2.16-1.641 0.082-0.503 0.043-0.945-0.117-1.316-0.215-0.562-0.336-0.906-0.364-1.043-0.156-1.226 0-2.199 0.481-2.918 0.375-0.558 0.348-0.855-0.078-0.879-0.403-0.027-0.907 0.504-1.52 1.598-0.695 1.281-1.121 2.64-1.281 4.082-0.133 1.465 0.105 2.172 0.719 2.117z" inkscape:connector-curvature="0"/>
          </g>
        </g>
      </g>
      <g id="g254">
        <g id="g256">
          <g id="g262">
            <path id="path282" style="fill-rule:evenodd;fill:url(#linearGradient264)" d="m25.109 28.081c0.883-1.707 1.309-3.066 1.282-4.082 0-0.531-0.094-1.117-0.282-1.758-0.211-0.695-0.332-1.281-0.359-1.761-0.027-0.532-0.051-1.426-0.078-2.68-0.133-0.961-0.442-1.36-0.922-1.199-0.641 0.214-1.277 0.226-1.918 0.039-0.668-0.188-0.906-0.52-0.723-1 0.297-0.692-1.398-1.039-5.078-1.039-1.785-0.106-3.066-0.055-3.84 0.16l-0.961 0.32c-0.027 0.211 0.016 0.481 0.122 0.801 0.214 0.613 0.652 1.133 1.32 1.558l1.801 1.161c0.504 0.214 1.039 0.148 1.597-0.2 1.016-0.586 0.789-0.429-0.679 0.481-1.172 0.719-1.985 1.172-2.438 1.359-0.43 0.184-0.91 0.532-1.441 1.039l-0.68 0.68c0.16 0.16 0.371 0.32 0.641 0.48 0.504 0.321 1.011 0.481 1.519 0.481 0.774-0.027 1.774-0.348 3-0.961l1.68-0.719c0.984-0.269 1.121 0.145 0.398 1.239-0.851 1.281-1.347 2.519-1.48 3.718-0.16 1.149 0.015 2.067 0.519 2.762 0.641 0.879 1 1.695 1.082 2.441l2.121-2.64c0.692-0.879 1.133-1.574 1.321-2.082 0-0.024 0.117-0.625 0.359-1.797 0.106-0.59 0.227-1.59 0.36-3l0.039-0.684c0.027 0 0.027 0.297 0 0.883-0.028 1.039 0.093 1.906 0.359 2.598 0.348 0.613 0.586 1.121 0.723 1.519l0.636 1.883z" inkscape:connector-curvature="0"/>
          </g>
        </g>
      </g>
      <g id="g284">
        <g id="g286">
          <g id="g292">
            <path id="path306" style="fill-rule:evenodd;fill:url(#linearGradient294)" d="m19.391 24.921c0.293-0.16 0.679-0.641 1.16-1.441 0.508-0.852 0.988-1.454 1.441-1.801 0.426-0.321 0.68-0.305 0.758 0.043 0.082 0.265 0.359 0.078 0.84-0.563 0.242-0.32 0.469-0.664 0.68-1.039 0.617 1.625 1.121 2.762 1.523 3.399 0.719 1.175 1.293 1.269 1.719 0.281 0.398-0.879 0.492-1.852 0.281-2.918-0.215-1.149-0.281-1.867-0.203-2.16 0.883-3.176 1-4.961 0.363-5.364-0.457-0.265-0.656-0.785-0.601-1.558 0.05-0.719 0.265-1.387 0.64-2 0.371-0.586 0.547-1.149 0.52-1.68-0.028-0.535-0.293-0.601-0.801-0.199l-1.399 1.121c-0.082 0.934-0.535 1.852-1.359 2.758-0.801 0.851-1.363 1.387-1.683 1.601-0.477 0.348-0.68 0.25-0.598-0.281 0.133-0.906 0.199-1.398 0.199-1.48 0-0.371-0.148-0.508-0.441-0.399-0.532 0.184-0.864 0.344-1 0.481-0.371 0.293-0.598 0.758-0.68 1.398-0.051 0.508 0.027 0.988 0.242 1.442 0.16 0.371 0.172 0.691 0.039 0.957-0.027 0.054-0.066 0.402-0.121 1.043-0.023 0.265-0.265 0.32-0.719 0.16-0.586-0.453-1-0.75-1.238-0.883-0.375-0.215-0.883 0.082-1.523 0.883-0.321 0.371-0.918 0.906-1.797 1.597-0.375 0.266-0.496 0.696-0.363 1.282 0.136 0.691 0.363 1.199 0.683 1.519 0.266 0.238 0.531 0.332 0.797 0.281 0.27-0.054 0.562 0 0.883 0.161 0.371 0.183 0.547 0.453 0.519 0.796-0.214 0.723-0.359 1.27-0.441 1.641-0.188 0.723-0.039 1.066 0.441 1.043 0.692-0.027 1.106-0.066 1.239-0.121z" inkscape:connector-curvature="0"/>
          </g>
        </g>
      </g>
      <g id="g308">
        <g id="g310">
          <g id="g316">
            <path id="path332" style="fill-rule:evenodd;fill:url(#linearGradient318)" d="m33.43 1.519-1.68 0.48-1.398 0.641c0.105-0.239 0.105-0.305 0-0.2-0.243 0.161-0.895 1.028-1.961 2.602-0.852 1.25-1.84 2.891-2.961 4.918-0.957 1.707-1.719 2.906-2.278 3.602-0.668 0.824-1.48 1.558-2.441 2.199-0.934 0.558-1.547 0.945-1.84 1.16-0.375 0.238-0.746 0.625-1.121 1.16l-0.438 0.719 0.559 0.922 0.68-0.961c0.586-0.696 1.172-1.188 1.761-1.481 0.985-0.48 1.692-0.879 2.118-1.199 0.773-0.562 1.429-1.293 1.961-2.199 0.8-1.387 2.414-4 4.839-7.844 0.641-1.066 1.11-1.797 1.403-2.199 0.426-0.531 0.879-0.918 1.359-1.16 0.664-0.344 1.028-0.52 1.078-0.52 0.188-0.023 0.11 0.266-0.238 0.883-0.266 0.426-1.879 2.68-4.84 6.758-0.746 1.066-1.48 2.226-2.199 3.48-0.695 1.254-1.215 2.172-1.563 2.762-0.398 0.691-1.027 1.504-1.878 2.438-0.961 1.015-1.668 1.789-2.122 2.32-0.558 0.64-1.078 1.547-1.558 2.719l-0.52 1.523 0.598 0.359 0.723-1.839c0.613-1.309 1.211-2.215 1.797-2.723 2.109-1.863 3.628-3.664 4.562-5.399 1.973-3.601 3.492-5.972 4.559-7.121 0.746-0.796 1.453-1.48 2.121-2.039 0.613-0.531 0.879-0.718 0.8-0.558-3.441 4.64-5.429 7.453-5.96 8.437-0.266 0.508-0.856 1.43-1.762 2.762-0.934 1.359-1.52 2.266-1.758 2.719-0.293 0.535-0.613 1.254-0.961 2.16-0.426 1.203-0.668 1.867-0.719 2-0.187 0.453-0.281 0.988-0.281 1.601l0.039 0.758 0.723 0.16 0.16-1.117c0.184-0.933 0.543-1.949 1.078-3.043 0.852-1.73 2.602-4.863 5.238-9.398 0.508-0.906 1.508-2.332 3-4.281 1.203-1.547 1.868-2.641 2-3.278 0.215-1.226-0.011-2.457-0.679-3.683z" inkscape:connector-curvature="0"/>
          </g>
        </g>
      </g>
      <g id="g334">
        <g id="g336">
          <g id="g342">
            <path id="path362" style="fill-rule:evenodd;fill:url(#linearGradient344)" d="m20.031 22.28c0.321-0.507 0.399-0.812 0.239-0.922-0.161-0.105-0.36-0.023-0.598 0.243-1.36 1.226-2.563 2.691-3.602 4.398-1.492 2.402-1.707 4.293-0.64 5.68 0.508 0.64 1.109 0.816 1.8 0.523 0.563-0.269 1.055-0.773 1.481-1.523 0.266-0.504 0.348-1.211 0.242-2.117-0.137-1.254-0.187-2.016-0.16-2.282 0.051-0.851 0.16-1.535 0.316-2.039 0.188-0.613 0.496-1.265 0.922-1.961z" inkscape:connector-curvature="0"/>
          </g>
        </g>
      </g>
      <g id="g364">
        <g id="g366">
          <g id="g372">
            <path id="path392" style="fill-rule:evenodd;fill:url(#linearGradient374)" d="m21.031 15.519-1.922 0.961c-0.586 0.32-1.066 0.679-1.437 1.082-0.481 0.453-0.961 1.105-1.442 1.957-0.48 0.882-0.812 1.695-1 2.441-0.398 1.734-0.867 3.027-1.398 3.879-0.402 0.641-0.16 1.242 0.719 1.801 0.906 0.535 1.625 0.535 2.16 0 0.535-0.532 1.176-1.707 1.922-3.52 0.691-1.762 1.16-3.238 1.398-4.441 0.215-0.985 0.559-1.946 1.039-2.879 0.16-0.293 0.496-0.813 1-1.559 0.293-0.429-0.05-0.332-1.039 0.278z" inkscape:connector-curvature="0"/>
          </g>
        </g>
      </g>
      <g id="g394">
        <g id="g396">
          <g id="g402">
            <path id="path422" style="fill-rule:evenodd;fill:url(#linearGradient404)" d="m24.27 31.96c0.64-1.121 0.882-2.359 0.722-3.719-0.105-0.773-0.347-1.801-0.722-3.082-0.133-0.586-0.317-1.211-0.559-1.879-0.133-0.48-0.121-0.894 0.039-1.242 0.293-0.558 0.293-0.863 0-0.918-0.266-0.082-0.641 0.414-1.117 1.481-0.297 0.64-0.508 1.281-0.641 1.918-0.16 0.988-0.32 1.921-0.48 2.8-0.055 0.348-0.375 1.496-0.961 3.442-0.321 1.094-0.348 1.801-0.078 2.121 0.453 0.558 0.984 0.84 1.597 0.84 0.828 0 1.563-0.59 2.2-1.762z" inkscape:connector-curvature="0"/>
          </g>
        </g>
      </g>
      <g id="g424">
        <g id="g426">
          <g id="g432">
            <path id="path450" style="fill-rule:evenodd;fill:url(#linearGradient434)" d="m22.59 20.839c0.668-0.453 1.176-1.024 1.519-1.719 0.215-0.426 0.602-1.254 1.161-2.48 0.8-1.414 1.496-2.239 2.082-2.481-1.493 2.028-2.133 3.453-1.922 4.281 0.16 0.586 0.457 0.961 0.882 1.118 0.426 0.16 0.708 0.066 0.84-0.278 0.024-0.082 0.051-0.519 0.078-1.32 0-0.695 0.161-1.336 0.481-1.922 0.535-0.984 0.746-2.105 0.641-3.359l-0.602 0.543c0.086-0.231 0.062-0.528-0.078-0.903-0.215-0.558-0.36-0.879-0.442-0.961-0.132-0.105-0.359-0.05-0.679 0.161-0.293 0.187-0.559 0.308-0.801 0.363l-0.32 0.039c0.75-0.906 0.855-1.441 0.32-1.602-0.348-0.105-0.664 0-0.957 0.321l-0.363 0.48c-0.239 0.16-0.746 0.68-1.52 1.559-0.504 0.613-1.051 0.894-1.64 0.84-0.692-0.024-1.184-0.133-1.477-0.317-0.215-0.109-0.414-0.347-0.602-0.722l-0.32-0.68c-0.508 1.066-0.652 1.894-0.441 2.48 0.187 0.586 0.48 1.094 0.882 1.52 0.532 0.558 1.118 0.785 1.758 0.68 0.723-0.106 1.2-0.254 1.442-0.438 0.152-0.098 0.375-0.344 0.66-0.742-0.297 0.574-0.52 1.098-0.66 1.582-0.242 0.797-0.641 1.465-1.2 2-0.453 0.426-0.882 0.691-1.281 0.797l-0.558 0.203 0.957 0.879c0.8 0.508 1.523 0.531 2.16 0.078z" inkscape:connector-curvature="0"/>
          </g>
        </g>
      </g>
      <g id="g452">
        <g id="g454">
          <g id="g460">
            <path id="path482" style="fill-rule:evenodd;fill:url(#linearGradient462)" d="m34.391 1.519c-0.321-0.559-0.664-0.852-1.039-0.879-0.508 0.082-0.934 0.148-1.282 0.199-0.558 0.055-1.465 0.601-2.718 1.641-1.309 1.093-2.2 2.093-2.68 3-0.453 0.828-1.067 1.64-1.84 2.441-0.402 0.426-1.16 1.117-2.281 2.078-0.719 0.668-1.653 1.723-2.801 3.16-1.039 1.336-1.664 2.227-1.879 2.68-0.133 0.32-0.133 0.574 0 0.762 0.082 0.082 0.16 0.132 0.238 0.16l0.602-1.039c0.773-1.414 2.105-3.055 4-4.922 0.641-0.613 1.227-1.16 1.762-1.641 0.343-0.347 0.863-0.933 1.558-1.758 2.106-2.453 3.36-3.839 3.762-4.16 0.531-0.402 1.066-0.547 1.598-0.441l-0.879 1.601c-0.348 0.614-1.293 1.586-2.84 2.918-2.055 1.762-3.293 2.856-3.719 3.282-0.988 1.011-1.668 1.8-2.043 2.359-0.344 0.48-0.945 1.547-1.801 3.199-0.718 1.36-1.519 2.453-2.398 3.281l-1.078 0.879 0.078 1.481 1.32-1.442c1.012-1.222 1.867-2.476 2.559-3.757 0.828-1.52 1.547-2.653 2.16-3.399 0.562-0.64 1.562-1.601 3-2.883 0.934-0.851 1.816-1.625 2.641-2.32 0.586-0.531 1.375-1.348 2.359-2.437 0.961-1.043 1.586-1.789 1.883-2.243 0.105-0.183 0.172-0.281 0.199-0.281 0.188 0 0.32 0.188 0.398 0.563 0.11 0.453-0.011 1.011-0.359 1.679-0.215 0.399-0.773 1.16-1.68 2.282-0.961 1.144-1.746 2.265-2.359 3.359-1.629 2.824-2.945 5.812-3.961 8.961-0.32 1.094-0.519 2.266-0.601 3.519l-0.04 1.52 0.641 0.039 0.16-1.918c0.078-0.934 0.442-2.32 1.078-4.16 0.618-1.707 1.336-3.457 2.161-5.242 0.617-1.227 1.546-2.641 2.8-4.239 1.387-1.707 2.282-2.906 2.684-3.601 0.664-1.149 1.012-2.078 1.039-2.801 0.023-0.453-0.109-0.945-0.402-1.48z" inkscape:connector-curvature="0"/>
          </g>
        </g>
      </g>
      <g id="g484">
        <g id="g486">
          <g id="g492">
            <path id="path510" style="fill-rule:evenodd;fill:url(#linearGradient494)" d="m19.27 16.761c-0.614 0.984-1.266 1.664-1.958 2.039-0.96 0.508-1.667 1.066-2.121 1.68-0.535 0.695-0.867 1.585-1 2.679-0.16 1.36-0.187 2.281-0.082 2.762 0.188 0.664 0.668 0.973 1.442 0.918 0.933-0.051 1.812-0.598 2.64-1.637 0.907-1.094 1.508-2.469 1.801-4.121 0.586-3.387 1.078-5.453 1.481-6.199 0.238-0.43 0.304-0.707 0.199-0.844-0.106-0.156-0.414 0.027-0.922 0.563-0.16 0.16-0.652 0.879-1.48 2.16z" inkscape:connector-curvature="0"/>
          </g>
        </g>
      </g>
      <g id="g512">
        <g id="g514">
          <g id="g520">
            <path id="path538" style="fill-rule:evenodd;fill:url(#linearGradient522)" d="m24.07 26.358c0.453-1.543 0.707-3.011 0.762-4.398 0.027-0.668 0.027-1.84 0-3.52 0-1.226 0.039-1.921 0.121-2.082 0.156-0.32 0.184-0.546 0.078-0.679-0.133-0.16-0.426 0.054-0.879 0.64-0.293 0.348-0.496 0.614-0.601 0.801-0.16 0.215-0.481 0.84-0.961 1.879-1.254 2.828-1.934 4.32-2.039 4.481-0.293 0.558-0.453 1.265-0.481 2.121 0.028 0.906 0.016 1.558-0.039 1.961-0.078 0.664 0.078 1.211 0.481 1.636 0.453 0.508 1.027 0.59 1.718 0.242 0.668-0.292 1.282-1.32 1.84-3.082z" inkscape:connector-curvature="0"/>
          </g>
        </g>
      </g>
      <g id="g540">
        <g id="g542">
          <g id="g548">
            <path id="path566" style="fill-rule:evenodd;fill:url(#linearGradient550)" d="m25.75 18.12c-0.348 0.695-0.52 1.653-0.52 2.879 0 1.309 0.188 2.254 0.563 2.84 0.371 0.613 0.863 0.652 1.477 0.121 0.589-0.535 0.707-1.027 0.363-1.48-0.695-0.961-1.094-1.852-1.203-2.68-0.024-0.293-0.024-0.934 0-1.918-0.051-0.668-0.278-0.59-0.68 0.238z" inkscape:connector-curvature="0"/>
          </g>
        </g>
      </g>
      <g id="g568">
        <g id="g570">
          <g id="g576">
            <path id="path594" style="fill-rule:evenodd;fill:url(#linearGradient578)" d="m13.832 15.839c-0.801-0.238-1.309-0.156-1.52 0.242-0.402 0.719-0.601 1.16-0.601 1.32 0 0.426 0.398 0.84 1.199 1.239 0.934 0.48 2 0.547 3.199 0.199 1.282-0.371 2.137-1.066 2.563-2.078 0.453-1.094 0.707-1.988 0.758-2.68 0.054-0.695-0.172-0.574-0.68 0.359-0.453 0.829-0.918 1.372-1.398 1.641-0.375 0.211-0.879 0.305-1.52 0.277-0.16 0-0.828-0.171-2-0.519z" inkscape:connector-curvature="0"/>
          </g>
        </g>
      </g>
      <g id="g596">
        <g id="g598">
          <g id="g604">
            <path id="path618" style="fill-rule:evenodd;fill:url(#linearGradient606)" d="m17.793 24.601c0.078-0.321 0.094-0.68 0.039-1.082-0.105-0.637-0.242-1.118-0.402-1.438l1.441-2.48c0.188 0.238 0.281 0.64 0.281 1.199l0.16 1.601 0.079-0.64c0.027-0.508 0.027-0.946 0-1.321-0.055-0.613-0.145-1.082-0.282-1.398l0.282-0.723c0.242-0.586 0.507-1.117 0.8-1.597 0.454-0.75 0.918-1.614 1.399-2.602-0.184-0.082-0.371 0.055-0.559 0.399l-0.32 0.562c-0.668 1.254-1.133 2.094-1.399 2.52l-0.519 0.957c-0.16 0.109-0.402 0.203-0.723 0.281l-0.718 0.281 0.8 0.121 0.239 0.078c-0.215 0.586-0.426 1.055-0.641 1.399l-0.598 1.043c-0.293-0.11-0.613-0.137-0.961-0.082-0.265 0.027-0.546 0.105-0.839 0.242-0.266 0.105-0.426 0.184-0.481 0.238l-0.199 0.399 0.918-0.477c0.215-0.055 0.613 0.039 1.203 0.277l-1.684 3.602 1.282-2.121c0.402-0.559 0.668-0.973 0.8-1.238 0.239 0.347 0.387 0.785 0.442 1.32l0.039 1.039 0.121-0.359z" inkscape:connector-curvature="0"/>
          </g>
        </g>
      </g>
      <g id="g620">
        <g id="g622">
          <g id="g628">
            <path id="path642" style="fill-rule:evenodd;fill:url(#linearGradient630)" d="m23.031 27.28c0.106-0.48 0.149-0.851 0.121-1.121-0.027-0.426-0.187-0.879-0.48-1.359l0.238-0.559c0.188-0.426 0.309-0.828 0.36-1.203l0.242-1.476c0.215 0.503 0.347 0.945 0.398 1.32l0.199 1.078 0.043-0.559c0-0.429-0.027-0.789-0.082-1.082l-0.277-1.398 0.238-2.359c0.293-1.364 0.508-2.188 0.641-2.481-0.348 0.293-0.586 0.664-0.719 1.117-0.109 0.266-0.23 0.828-0.363 1.68-0.106 0.75-0.16 1.187-0.16 1.32l-0.039 0.442c-0.239-0.055-0.504 0.011-0.801 0.199-0.184 0.105-0.399 0.281-0.637 0.519l-0.281 0.364 0.801-0.481c0.183-0.054 0.398-0.027 0.636 0.078-0.05 0.536-0.156 1.106-0.316 1.719l-0.602 1.563c-0.773-0.028-1.238 0.039-1.398 0.199l-0.281 0.199 0.398-0.039c0.266-0.027 0.469 0 0.602 0.078l0.48 0.203c-0.105 0.481-0.265 0.973-0.48 1.481l-0.719 1.636 0.277-0.359c0.242-0.32 0.442-0.664 0.602-1.039l0.758-1.641c0.215 0.161 0.347 0.469 0.402 0.922l0.078 1.719 0.121-0.68z" inkscape:connector-curvature="0"/>
          </g>
        </g>
      </g>
      <g id="g644">
        <g id="g646">
          <g id="g652">
            <path id="path672" style="fill-rule:evenodd;fill:url(#linearGradient654)" d="m16.871 17.921 0.32-0.242c0.239-0.184 0.387-0.371 0.442-0.559l0.32-0.84c0.024-0.054 0.024-0.082 0-0.082 0-0.05 0.133-0.238 0.399-0.558 0.425-0.532 0.851-1.133 1.281-1.801-0.27 0.109-0.469 0.269-0.602 0.48l-1.039 1.321c-0.187 0.242-0.375 0.386-0.562 0.441l-0.52 0.121 0.36 0.117c-0.317 0.481-0.731 0.817-1.239 1-0.32 0.133-0.586 0.2-0.801 0.2l-0.238-0.039c-0.105-0.454-0.242-0.747-0.402-0.879l-0.36-0.321c0.321 0.426 0.469 0.707 0.442 0.84l-0.16 0.399c-0.266-0.079-0.547-0.161-0.84-0.239-0.281-0.105-0.5-0.199-0.66-0.281l0.66 0.441 0.64 0.239c-0.054 0.269-0.226 0.414-0.519 0.441l-0.481 0.039 0.438 0.121c0.32 0.055 0.562 0.028 0.723-0.078l0.398-0.281h0.399c0.32-0.027 0.64-0.121 0.96-0.281 0.508-0.266 0.907-0.575 1.2-0.918 0.027 0.023-0.039 0.199-0.2 0.519l-0.359 0.68z" inkscape:connector-curvature="0"/>
          </g>
        </g>
      </g>
      <g id="g674">
        <g id="g676">
          <g id="g682">
            <path id="path700" style="fill-rule:evenodd;fill:url(#linearGradient684)" d="m33.352 0.601c-0.321 0.027-0.547 0.16-0.68 0.398-0.16 0.27-0.082 0.563 0.238 0.883 0.375 0.398 0.774 0.664 1.199 0.801 0.453 0.105 0.668-0.028 0.641-0.403-0.023-0.32-0.145-0.652-0.359-1-0.293-0.453-0.641-0.679-1.039-0.679z" inkscape:connector-curvature="0"/>
          </g>
        </g>
      </g>
      <g id="g702">
        <g id="g718" mask="url(#mask710)">
          <g id="g730">
            <g id="g732" clip-path="url(#clipPath722)">
              <g id="g734" transform="translate(0 -.65328)">
                <g id="g738">
                  <g id="g740" clip-path="url(#clipPath726)">
                    <g id="g742">
                      <path id="path744" style="fill-rule:evenodd;fill:#255700" d="m31.59 5.172c0.348-0.641 0.562-1.145 0.64-1.52 0.133-0.691 0.149-1.386 0.04-2.078-0.293-0.215-0.571-0.199-0.84 0.039-0.664 0.535-3.731 3.547-9.2 9.039-5.972 5.973-9 9.254-9.078 9.84-0.054 0.563 0.52 1.442 1.719 2.641 0.613 0.586 1.227 1.121 1.84 1.601 2.668-0.507 4.187-1.414 4.559-2.722 0.109-0.348 0.375-0.426 0.8-0.239 0.508 0.239 0.856 0.305 1.043 0.2 0.449-0.239 0.864-0.547 1.239-0.918l0.121-0.641c-0.293 0.027-0.668-0.039-1.121-0.199-0.348-0.137-0.653-0.363-0.922-0.684-0.266-0.316-0.305-0.558-0.118-0.719 0.133-0.132 0.293-0.199 0.481-0.199 0.211-0.027 0.41-0.093 0.598-0.199 0.375-0.215 0.828-0.602 1.359-1.16-0.211-0.027-0.398-0.106-0.559-0.242-0.293-0.239-0.253-0.637 0.121-1.2 0.106-0.16 0.532-0.734 1.278-1.718 0.457-0.614 0.773-1.106 0.961-1.481 0.187-0.347 0.453-0.718 0.801-1.121 0.507-0.531 0.867-0.945 1.078-1.238 0.297-0.375 0.789-1.016 1.48-1.922 0.586-0.773 0.934-1.359 1.043-1.758 0.078-0.293 0.293-0.762 0.637-1.402z" inkscape:connector-curvature="0"/>
                    </g>
                  </g>
                </g>
              </g>
            </g>
          </g>
        </g>
      </g>
      <g id="g746">
        <g id="g748">
          <g id="g754">
            <path id="path774" style="fill-rule:evenodd;fill:url(#linearGradient756)" d="m12.43 20.358-0.52-0.839c0.402-0.211 1.426-0.731 3.082-1.559 1.625-0.824 2.84-1.574 3.641-2.238 1.625-1.364 3.211-3.121 4.758-5.282 0.695-0.988 0.586-1.535-0.321-1.64-0.183-0.027-1.226 0.027-3.117 0.16-0.933 0.078-1.734 0.332-2.402 0.758-0.906 0.75-1.746 1.441-2.52 2.082-1.867 1.359-3.32 2.414-4.359 3.16-1.895 1.387-3.121 2.559-3.68 3.52-0.668 1.093-0.226 1.839 1.32 2.238 1.465 0.347 2.84 0.23 4.118-0.36z" inkscape:connector-curvature="0"/>
          </g>
        </g>
      </g>
      <g id="g776">
        <g id="g778">
          <g id="g784">
            <path id="path804" style="fill-rule:evenodd;fill:url(#linearGradient786)" d="m13.871 24.241c0.828-1.199 1.426-2.402 1.801-3.601 0.398-1.332 1.281-3.321 2.64-5.961 1.305-0.985 1.708-1.504 1.2-1.559-0.321-0.027-1.387 0.828-3.2 2.559-1.308 1.254-2.585 2.547-3.839 3.883-0.137 0.132-1.387 1.132-3.762 3-1.813 1.414-2.945 2.613-3.399 3.597-0.535 1.199-0.054 1.922 1.438 2.16 1.414 0.243 2.762-0.066 4.043-0.918 1.145-0.773 2.172-1.828 3.078-3.16z" inkscape:connector-curvature="0"/>
          </g>
        </g>
      </g>
      <g id="g806">
        <g id="g808">
          <g id="g814">
            <path id="path834" style="fill-rule:evenodd;fill:url(#linearGradient816)" d="m2.352 16.319c-1.305 0.403-2.055 1-2.239 1.801-0.215 0.906-0.121 1.574 0.278 2 0.402 0.426 0.988 0.426 1.761 0 0.559-0.293 1.598-0.547 3.118-0.762 1.867-0.265 3.16-0.503 3.882-0.718 1.25-0.399 2.266-0.801 3.039-1.2 0.801-0.425 1.614-1.015 2.442-1.761 1.625-1.465 2.051-2.16 1.277-2.078-0.344 0.023-1.359 0.371-3.039 1.039l-0.68 0.281c-0.668 0.238-1.535 0.414-2.601 0.519-1.36 0.083-2.477 0.172-3.36 0.282-1.867 0.211-3.16 0.414-3.878 0.597z" inkscape:connector-curvature="0"/>
          </g>
        </g>
      </g>
      <g id="g836">
        <g id="g838">
          <g id="g844">
            <path id="path864" style="fill-rule:evenodd;fill:url(#linearGradient846)" d="m7.352 14.722 1.558 0.359c1.149 0.188 2.067 0.188 2.762 0 0.746-0.215 1.691-0.855 2.84-1.922 0.961-0.879 1.613-1.586 1.961-2.117 0.211-0.32 0.093-0.414-0.36-0.281-0.883 0.32-1.722 0.613-2.523 0.879-0.985 0.32-1.613 0.336-1.879 0.043-0.133-0.16-0.172-0.348-0.121-0.563-0.211-0.133-0.52-0.226-0.918-0.281-0.774-0.078-1.574 0.094-2.402 0.519-1.598 0.856-1.907 1.977-0.918 3.364z" inkscape:connector-curvature="0"/>
          </g>
        </g>
      </g>
      <g id="g866">
        <g id="g868">
          <g id="g874">
            <path id="path894" style="fill-rule:evenodd;fill:url(#linearGradient876)" d="m19.672 18.241c-0.16-0.402-0.176-1.015-0.039-1.84 0.105-0.48 0.305-1.347 0.597-2.601-1.597 2.187-2.546 3.707-2.839 4.558-0.426 1.227-0.332 2.297 0.281 3.204 0.824 1.144 2.187 1.398 4.078 0.757 0.828-0.265 1.359-0.679 1.602-1.238 0.132-0.266 0.187-0.508 0.16-0.723-0.907 0.403-1.68 0.415-2.321 0.043-0.425-0.242-0.746-0.546-0.961-0.921-0.105-0.161-0.292-0.575-0.558-1.239z" inkscape:connector-curvature="0"/>
          </g>
        </g>
      </g>
      <g id="g896">
        <g id="g898">
          <g id="g904">
            <path id="path924" style="fill-rule:evenodd;fill:url(#linearGradient906)" d="m20.832 12.64c-1.066 1.812-1.562 2.894-1.48 3.242 0.05 0.293 0.332 0.824 0.839 1.598 0.536 0.828 0.961 1.281 1.282 1.363 0.453 0.105 0.906-0.32 1.359-1.281-0.187 0.054-0.426 0.011-0.723-0.122-0.398-0.187-0.773-0.48-1.117-0.878-0.32-0.375-0.453-0.922-0.402-1.641 0.027-0.426 0.109-1.188 0.242-2.281z" inkscape:connector-curvature="0"/>
          </g>
        </g>
      </g>
      <g id="g926">
        <g id="g928">
          <g id="g934">
            <path id="path954" style="fill-rule:evenodd;fill:url(#linearGradient936)" d="m16.191 25.882c0.961-0.856 1.442-2.336 1.442-4.442-0.028-0.828-0.11-1.734-0.242-2.718-0.028-0.614-0.84-0.094-2.438 1.558-0.723 0.746-1.308 1.696-1.762 2.84-0.507 1.281-0.668 2.36-0.48 3.238 0.187 0.829 0.652 1.122 1.398 0.883 0.508-0.16 1.203-0.613 2.082-1.359z" inkscape:connector-curvature="0"/>
          </g>
        </g>
      </g>
      <g id="g956">
        <g id="g958">
          <g id="g964">
            <path id="path984" style="fill-rule:evenodd;fill:url(#linearGradient966)" d="m13.633 10.241c-0.055 0.719 0.613 0.918 2 0.598 1.387-0.344 2.679-0.984 3.879-1.918 1.039-0.801 1.547-1.426 1.519-1.879-0.027-0.48-0.304-0.48-0.84 0-0.695 0.613-1.613 0.891-2.761 0.84-0.16 0-0.492-0.109-1-0.32-0.371-0.133-0.785-0.133-1.239 0-0.933 0.265-1.453 1.16-1.558 2.679z" inkscape:connector-curvature="0"/>
          </g>
        </g>
      </g>
      <g id="g986">
        <g id="g988">
          <g id="g994">
            <path id="path1014" style="fill-rule:evenodd;fill:url(#linearGradient996)" d="m18.871 21.679c-0.027-4.239-0.375-6.16-1.039-5.758-0.48 0.293-0.812 0.051-1-0.719-0.16-0.722-0.148-1.469 0.039-2.242 0.16-0.586-0.215-0.891-1.121-0.918-1.199 0.078-2.051 0.133-2.559 0.16-0.48 0-1.039-0.066-1.679-0.203-0.614-0.16-1.176-0.226-1.68-0.199-0.961 0.055-2.254 0.68-3.879 1.883l1.797 0.558c0.375 0.106 0.867 0.332 1.48 0.68 0.614 0.266 1.43 0.32 2.442 0.16l0.84-0.121c0 0.027-0.215 0.082-0.641 0.16-1.387 0.293-2.332 0.535-2.84 0.719-1.066 0.348-1.64 0.547-1.719 0.601-0.48 0.243-1.136 0.813-1.96 1.719l-2.52 2.723c0.719 0 1.504 0.332 2.359 1 0.668 0.504 1.536 0.613 2.602 0.32 1.145-0.297 2.332-0.988 3.559-2.082 1.039-0.933 1.441-0.828 1.199 0.32l-0.68 2.04c-0.586 1.468-0.879 2.656-0.879 3.562 0 0.559 0.16 1.117 0.481 1.68 0.132 0.293 0.277 0.519 0.437 0.679l0.641-0.839c0.48-0.668 0.801-1.254 0.961-1.762 0.16-0.531 0.586-1.52 1.281-2.961 1.145-2.399 1.293-2.68 0.437-0.84-0.32 0.695-0.371 1.32-0.16 1.883 0.426 0.746 0.801 1.41 1.121 2 0.426 0.719 0.934 1.172 1.52 1.359 0.293 0.078 0.547 0.094 0.762 0.039l0.277-1.16c0.215-0.801 0.254-2.281 0.121-4.441z" inkscape:connector-curvature="0"/>
          </g>
        </g>
      </g>
      <g id="g1016">
        <g id="g1018">
          <g id="g1024">
            <path id="path1038" style="fill-rule:evenodd;fill:url(#linearGradient1026)" d="m16.871 21.44c0.719-0.828 0.973-1.441 0.762-1.839-0.137-0.266-0.414-0.707-0.84-1.321-0.137-0.535-0.082-0.828 0.16-0.879 0.586-0.109 0.918-0.187 1-0.242 0.266-0.16 0.57-0.172 0.918-0.039 0.426 0.188 0.879 0.227 1.359 0.121 0.614-0.133 1.067-0.426 1.36-0.883 0.137-0.238 0.281-0.652 0.441-1.238 0.078-0.347-0.054-0.492-0.398-0.441-0.082 0-0.547 0.121-1.403 0.359-0.503 0.137-0.597-0.09-0.277-0.68 0.211-0.371 0.719-1.066 1.52-2.078 0.851-1.066 1.718-1.679 2.597-1.84l1.082-1.757c0.344-0.614 0.266-0.922-0.242-0.922-0.504 0.027-1.039 0.281-1.598 0.762-0.585 0.503-1.203 0.824-1.839 0.957-0.75 0.16-1.254-0.012-1.52-0.52-0.375-0.691-2.082-0.371-5.121 0.961-0.266 0.105-0.961 0.094-2.082-0.039-0.984-0.133-1.906 0.066-2.758 0.598-0.961 0.613-0.855 1.281 0.32 2 0.614 0.402 1.692 0.867 3.239 1.402-0.348 0.293-0.68 0.598-1 0.918-0.586 0.613-0.758 0.949-0.52 1 0.321 0.055 0.332 0.348 0.039 0.883-0.32 0.558-0.879 1.16-1.679 1.797-0.746 0.64-1.2 1.148-1.36 1.523-0.054 0.133-0.093 0.613-0.121 1.437-0.023 0.563 0.309 0.696 1 0.403 0.375-0.137 0.895-0.363 1.563-0.684 0.32-0.051 0.57 0.121 0.757 0.524 0.161 0.343 0.215 0.679 0.161 1-0.055 0.32 0.039 0.613 0.281 0.879 0.32 0.347 0.801 0.558 1.437 0.64 0.563 0.078 0.977-0.094 1.243-0.519 0.668-1.098 1.171-1.844 1.519-2.243z" inkscape:connector-curvature="0"/>
          </g>
        </g>
      </g>
      <g id="g1040">
        <g id="g1042">
          <g id="g1048">
            <path id="path1064" style="fill-rule:evenodd;fill:url(#linearGradient1050)" d="m17.43 15.601c-0.266 0.453-0.653 1.304-1.16 2.558-0.266 0.723-0.719 1.453-1.36 2.199l-0.918 0.883 0.879 0.52 0.68-0.602c0.508-0.48 0.879-0.933 1.121-1.359 0.187-0.371 0.531-1.133 1.039-2.281 0.586-1.145 1.293-2.145 2.121-3 0.664-0.719 1.801-1.707 3.398-2.957 1.922-1.52 3.454-2.829 4.602-3.922 1.492-1.414 2.332-2.254 2.52-2.52 0.078-0.133 0.011-0.133-0.2 0l0.598-1.68 0.402-1.96c-0.293-0.161-0.652-0.305-1.082-0.438-0.879-0.242-1.679-0.242-2.398 0-0.934 0.293-2.188 1.027-3.762 2.199-1.652 1.227-2.785 2.305-3.398 3.239-0.586 0.906-1.922 2.269-4 4.082-1.895 1.679-3.535 3-4.922 3.961-1.039 0.718-2.012 1.238-2.918 1.558l-1.043 0.281 0.203 0.797h0.719c0.558-0.051 1.066-0.211 1.519-0.476 0.028 0 0.653-0.348 1.879-1.043 0.856-0.481 1.535-0.918 2.043-1.321 0.453-0.343 1.305-1.105 2.559-2.277 1.304-1.203 2.187-1.973 2.64-2.32 0.934-0.719 3.598-3.282 8-7.68 0.161-0.133-0.027 0.184-0.562 0.957-0.559 0.856-1.199 1.734-1.918 2.641-1.039 1.336-3.293 3.32-6.762 5.961-1.625 1.281-3.304 3.214-5.039 5.8-0.48 0.719-1.348 1.493-2.601 2.321l-1.758 1.039 0.359 0.679 1.481-0.761c1.093-0.664 1.933-1.36 2.519-2.078 0.508-0.586 1.242-1.481 2.199-2.68 0.883-1.066 1.657-1.867 2.321-2.402 0.562-0.45 1.441-1.145 2.64-2.079 1.149-0.933 2.227-1.906 3.242-2.921 0.852-0.825 2.079-2.039 3.68-3.637 1.332-1.281 2.254-2.137 2.758-2.563 0.562-0.48 0.828-0.613 0.801-0.398 0 0.051-0.16 0.492-0.481 1.32-0.215 0.586-0.574 1.145-1.078 1.68-0.402 0.398-1.094 1-2.082 1.801-3.625 3.199-6.094 5.332-7.398 6.398-0.856 0.692-1.547 1.52-2.082 2.481z" inkscape:connector-curvature="0"/>
          </g>
        </g>
      </g>
      <g id="g1066">
        <g id="g1068">
          <g id="g1074">
            <path id="path1094" style="fill-rule:evenodd;fill:url(#linearGradient1076)" d="m5.07 25.64c0.934-0.239 1.922-0.813 2.961-1.719 1.281-1.094 2.668-2.613 4.16-4.563 0.239-0.343 0.305-0.585 0.2-0.718-0.106-0.188-0.399-0.067-0.879 0.359-0.641 0.563-1.242 0.977-1.801 1.242-0.508 0.211-1.16 0.399-1.961 0.559-0.293 0.055-1.039 0.066-2.238 0.039-0.852-0.024-1.52 0.148-2 0.519-0.696 0.536-1.16 1.149-1.399 1.844-0.297 0.824-0.136 1.504 0.477 2.039 0.668 0.532 1.496 0.664 2.48 0.399z" inkscape:connector-curvature="0"/>
          </g>
        </g>
      </g>
      <g id="g1096">
        <g id="g1098">
          <g id="g1104">
            <path id="path1124" style="fill-rule:evenodd;fill:url(#linearGradient1106)" d="m17.953 17.159c0.559-1.199 0.652-1.613 0.277-1.238-1.464 1.387-2.878 2.32-4.238 2.801-1.148 0.398-2.547 1.093-4.199 2.078-1.734 1.066-2.84 1.922-3.32 2.558-0.508 0.668-0.496 1.497 0.039 2.481 0.531 0.961 1.093 1.187 1.679 0.68 0.559-0.477 1.133-0.879 1.719-1.2 0.426-0.238 1.082-0.519 1.961-0.839 0.719-0.266 1.508-0.735 2.359-1.399 0.747-0.613 1.36-1.226 1.84-1.84 0.348-0.48 0.68-1.082 1-1.801 0.188-0.425 0.481-1.187 0.883-2.281z" inkscape:connector-curvature="0"/>
          </g>
        </g>
      </g>
      <g id="g1126">
        <g id="g1128">
          <g id="g1134">
            <path id="path1154" style="fill-rule:evenodd;fill:url(#linearGradient1136)" d="m11.191 16.042c1.012-0.695 1.481-1.187 1.399-1.48-0.051-0.293-0.344-0.27-0.879 0.078-0.348 0.242-0.734 0.308-1.16 0.199-1.149-0.293-1.746-0.438-1.801-0.438-1.227-0.32-2.211-0.492-2.957-0.519-1.309-0.082-2.496 0.305-3.563 1.16-1.121 0.879-1.679 1.797-1.679 2.758 0.027 0.719 0.308 1.308 0.84 1.762 0.293 0.265 0.961 0.16 2-0.321 1.812-0.828 2.921-1.308 3.32-1.441 0.828-0.266 1.707-0.547 2.641-0.84 0.613-0.215 1.226-0.52 1.839-0.918z" inkscape:connector-curvature="0"/>
          </g>
        </g>
      </g>
      <g id="g1156">
        <g id="g1158">
          <g id="g1164">
            <path id="path1182" style="fill-rule:evenodd;fill:url(#linearGradient1166)" d="m16.633 15.601c0.461-0.219 0.969-0.543 1.519-0.961-0.382 0.41-0.621 0.703-0.722 0.883-0.16 0.292-0.293 0.851-0.399 1.679-0.078 0.746 0.149 1.399 0.68 1.957 0.398 0.43 0.879 0.735 1.441 0.922 0.559 0.16 1.344-0.105 2.36-0.801l-0.641-0.277c-0.348-0.188-0.574-0.402-0.68-0.641-0.187-0.32-0.304-0.867-0.359-1.64-0.055-0.668 0.211-1.336 0.801-2 0.824-0.961 1.32-1.614 1.476-1.961l0.481-0.442c0.297-0.343 0.387-0.718 0.281-1.117-0.16-0.613-0.668-0.441-1.519 0.52l0.039-0.36c0.054-0.293 0.16-0.613 0.32-0.961 0.187-0.398 0.242-0.668 0.16-0.8-0.055-0.078-0.359-0.215-0.918-0.399-0.398-0.148-0.691-0.148-0.883 0l0.52-0.762c-1.199 0-2.266 0.348-3.199 1.043-0.559 0.426-1.172 0.68-1.84 0.758-0.774 0.106-1.188 0.172-1.239 0.199-0.32 0.188-0.402 0.52-0.242 1 0.16 0.508 0.52 0.813 1.082 0.922 0.774 0.184 2.118-0.695 4.039-2.64-0.214 0.718-1 1.597-2.359 2.64-1.148 0.774-1.922 1.321-2.32 1.641-0.668 0.449-1.215 1.078-1.641 1.879s-0.398 1.625 0.082 2.48l0.879 1.039 0.16-0.679c0.106-0.481 0.36-1 0.758-1.559 0.508-0.695 1.137-1.215 1.883-1.562z" inkscape:connector-curvature="0"/>
          </g>
        </g>
      </g>
      <g id="g1184">
        <g id="g1186">
          <g id="g1192">
            <path id="path1214" style="fill-rule:evenodd;fill:url(#linearGradient1194)" d="m23.191 14.882c0.907-1.387 1.559-2.336 1.961-2.844 0.746-0.984 1.52-1.769 2.321-2.359 0.851-0.664 1.785-1.813 2.797-3.438 0.988-1.547 1.507-2.64 1.562-3.281 0.027-0.402 0.078-0.895 0.16-1.48-0.027-0.454-0.308-0.829-0.84-1.122-0.48-0.293-0.949-0.398-1.402-0.32-0.691 0.11-1.586 0.586-2.68 1.442-0.613 0.507-1.746 1.668-3.398 3.48-1.469 1.602-2.801 2.813-4 3.641-1.652 1.148-3.309 2.16-4.961 3.039-1.758 0.906-3.078 1.453-3.961 1.64l-1.84 0.403 0.082 0.718 1.438-0.16c1.175-0.215 2.281-0.574 3.32-1.082 2.934-1.465 5.773-3.277 8.52-5.437 1.042-0.828 2.109-1.84 3.203-3.043 1.039-1.172 1.757-1.906 2.16-2.199 0.613-0.481 1.144-0.68 1.597-0.598 0.348 0.051 0.52 0.199 0.52 0.437 0 0.028-0.078 0.106-0.238 0.243-0.453 0.371-1.176 1.16-2.16 2.359-1.04 1.254-1.801 2.254-2.282 3-0.664 1.039-1.398 2.133-2.199 3.281-1.226 1.813-2.148 3.067-2.762 3.758-0.691 0.801-1.746 1.734-3.156 2.801-1.23 0.933-2.414 2.039-3.562 3.32l-1.399 1.68 1.438-0.039 0.8-1.364c0.801-1.089 1.84-2.105 3.122-3.039 1.574-1.144 2.586-1.945 3.039-2.398 0.507-0.481 1.254-1.348 2.242-2.602 0.426-0.558 1.453-2.105 3.078-4.64 1.254-1.918 2.16-3.106 2.719-3.559l1.523-1.16c0.133 0.586 0 1.199-0.402 1.84-0.293 0.508-1.598 2.094-3.918 4.762-0.774 0.851-1.321 1.519-1.641 2-0.453 0.664-0.972 1.398-1.562 2.199-1.731 2.375-3.278 4.078-4.637 5.121l-1 0.758 0.16 0.281c0.184 0.133 0.426 0.105 0.719-0.082 0.398-0.266 1.238-1.078 2.519-2.438 1.36-1.441 2.36-2.613 3-3.519z" inkscape:connector-curvature="0"/>
          </g>
        </g>
      </g>
      <g id="g1216">
        <g id="g1218">
          <g id="g1224">
            <path id="path1242" style="fill-rule:evenodd;fill:url(#linearGradient1226)" d="m18.832 17.401c0.504-0.64 0.68-1.015 0.52-1.121-0.133-0.105-0.399 0-0.801 0.321-0.746 0.535-2.707 1.304-5.879 2.32-1.574 0.48-2.879 1.293-3.922 2.437-0.957 1.094-1.465 2.176-1.52 3.243-0.027 0.933 0.266 1.453 0.879 1.558 0.43 0.082 1.309-0.039 2.641-0.359 1.043-0.266 1.895-0.746 2.562-1.442 0.559-0.585 1.079-1.453 1.559-2.597 0.348-0.828 0.988-1.653 1.922-2.481 1.199-1.011 1.879-1.64 2.039-1.879z" inkscape:connector-curvature="0"/>
          </g>
        </g>
      </g>
      <g id="g1244">
        <g id="g1246">
          <g id="g1252">
            <path id="path1270" style="fill-rule:evenodd;fill:url(#linearGradient1254)" d="m10.391 18.48c0.879-0.665 2.293-1.598 4.242-2.801 0.957-0.641 1.547-1.051 1.758-1.239 0.16-0.16 0.414-0.425 0.761-0.8 0.559-0.586 0.758-0.946 0.598-1.082-0.105-0.106-0.32-0.051-0.641 0.16-0.132 0.109-0.785 0.215-1.957 0.32-1.629 0.133-2.75 0.254-3.359 0.36-1.336 0.214-2.723 0.667-4.16 1.359-1.68 0.801-2.68 1.601-3 2.402-0.297 0.824-0.203 1.481 0.277 1.961 0.426 0.453 0.961 0.586 1.602 0.399 0.375-0.106 1-0.188 1.879-0.239 0.8-0.105 1.468-0.375 2-0.8z" inkscape:connector-curvature="0"/>
          </g>
        </g>
      </g>
      <g id="g1272">
        <g id="g1274">
          <g id="g1280">
            <path id="path1298" style="fill-rule:evenodd;fill:url(#linearGradient1282)" d="m15.43 11.96c0.8-0.559 0.882-0.824 0.242-0.801-0.934 0.133-1.547 0.199-1.84 0.199-0.855-0.023-1.707-0.41-2.562-1.156-0.426-0.347-0.891-0.148-1.399 0.598-0.48 0.746-0.441 1.308 0.121 1.68 0.586 0.375 1.492 0.496 2.719 0.359 1.176-0.133 2.082-0.426 2.719-0.879z" inkscape:connector-curvature="0"/>
          </g>
        </g>
      </g>
      <g id="g1300">
        <g id="g1302">
          <g id="g1308">
            <path id="path1326" style="fill-rule:evenodd;fill:url(#linearGradient1310)" d="m18.992 19.679c0.879-0.664 1-0.934 0.36-0.797-0.668 0.133-1.52 0.519-2.559 1.16-0.934 0.586-1.574 1.625-1.922 3.117-0.32 1.442-0.254 2.668 0.199 3.68 0.403 0.883 0.789 1.297 1.16 1.242 0.188-0.027 0.614-0.293 1.282-0.801 0.375-0.293 0.441-0.879 0.199-1.761-0.348-1.278-0.52-2.028-0.52-2.239 0-0.8 0.094-1.414 0.282-1.84 0.238-0.585 0.746-1.171 1.519-1.761z" inkscape:connector-curvature="0"/>
          </g>
        </g>
      </g>
      <g id="g1328">
        <g id="g1330">
          <g id="g1336">
            <path id="path1350" style="fill-rule:evenodd;fill:url(#linearGradient1338)" d="m18.871 17.081c0.375-0.266 0.508-0.508 0.399-0.723-0.907 0.668-1.731 1.309-2.477 1.922-0.457 0.375-0.949 0.719-1.481 1.039l-0.679 0.403c-0.321-0.11-0.774-0.16-1.363-0.16-0.372-0.028-0.786 0.011-1.239 0.117l-0.601 0.121 0.48 0.082c0.375 0.023 0.723 0.012 1.043-0.043 0.531-0.051 0.918 0.027 1.156 0.242l-2.359 1.918c-0.32-0.184-0.785-0.293-1.398-0.32-0.375-0.024-0.707 0.015-1 0.121l-0.36 0.16 1-0.078c0.504 0.051 0.934 0.183 1.278 0.398-0.266 0.188-0.665 0.547-1.2 1.078l-2 1.684 3.403-2.32c0.238 0.664 0.332 1.133 0.277 1.398l-0.438 1.082 0.36-0.281c0.187-0.106 0.332-0.629 0.437-1.563 0.055-0.425 0.043-0.785-0.039-1.078l0.961-0.8c0.321-0.293 0.774-0.586 1.36-0.879l0.199 1.16 0.242-0.879c0.078-0.375 0.16-0.641 0.238-0.801l3.801-3z" inkscape:connector-curvature="0"/>
          </g>
        </g>
      </g>
      <g id="g1352">
        <g id="g1354">
          <g id="g1360">
            <path id="path1374" style="fill-rule:evenodd;fill:url(#linearGradient1362)" d="m5.75 18.722 1.52-1c0.48-0.297 0.96-0.535 1.441-0.723l0.16 0.563c0.082 0.16 0.106 0.398 0.082 0.718l-0.043 0.442 0.203-0.364c0.133-0.21 0.199-0.757 0.199-1.636l0.399-0.282c0.348-0.214 0.707-0.402 1.082-0.558 0.559-0.242 1.094-0.43 1.598-0.563 0.132 0.266 0.16 0.52 0.082 0.762l-0.442 0.961 0.321-0.402c0.238-0.293 0.414-0.547 0.519-0.758 0.16-0.348 0.227-0.668 0.199-0.961l0.403-0.082c0.105 0 0.519-0.106 1.238-0.316 0.801-0.243 1.336-0.43 1.601-0.563 0.426-0.184 0.786-0.508 1.079-0.957-0.371 0.238-1.161 0.57-2.36 1l-2.238 0.516-1.32-0.2c-0.293-0.027-0.641-0.011-1.043 0.039l-0.52 0.082 1 0.122c0.348 0.05 0.774 0.171 1.281 0.359l-1.398 0.398c-0.375 0.106-0.773 0.282-1.203 0.52l-0.52 0.359c-0.453-0.293-0.879-0.437-1.277-0.437-0.242 0-0.602 0.066-1.082 0.199l-0.598 0.242 1.598-0.043c0.453 0 0.746 0.121 0.879 0.36l-1.559 1.043c-0.347 0.211-0.668 0.464-0.961 0.757l-0.32 0.403z" inkscape:connector-curvature="0"/>
          </g>
        </g>
      </g>
      <g id="g1376">
        <g id="g1378">
          <g id="g1384">
            <path id="path1404" style="fill-rule:evenodd;fill:url(#linearGradient1386)" d="m16.652 26.659c-0.09-0.187-0.187-0.472-0.3-0.859-0.082-0.32-0.161-0.625-0.243-0.918l0.403-0.242c0.105-0.028 0.359 0.121 0.758 0.441l-0.278-0.402c-0.082-0.106-0.242-0.199-0.48-0.278l-0.36-0.082-0.043-0.281c0-0.238 0.055-0.547 0.161-0.918 0.187-0.613 0.507-1.133 0.96-1.558l0.122 0.437 0.121-0.641c0.023-0.21 0.16-0.437 0.398-0.679l1.238-1.321c0.188-0.183 0.348-0.437 0.481-0.757-0.637 0.586-1.211 1.148-1.719 1.679-0.32 0.321-0.508 0.493-0.559 0.52 0-0.027-0.015-0.027-0.042 0l-0.797 0.441c-0.161 0.106-0.336 0.293-0.52 0.559l-0.242 0.398 0.641-0.476c0.293-0.242 0.464-0.336 0.519-0.282-0.348 0.375-0.641 0.868-0.879 1.481-0.16 0.371-0.242 0.746-0.242 1.117v0.442l-0.277 0.519c-0.11 0.188-0.137 0.469-0.082 0.84l0.121 0.48 0.039-0.519c0.027-0.371 0.16-0.602 0.402-0.68l0.238 0.762 0.461 0.777z" inkscape:connector-curvature="0"/>
          </g>
        </g>
      </g>
      <g id="g1406">
        <g id="g1408">
          <g id="g1414">
            <path id="path1432" style="fill-rule:evenodd;fill:url(#linearGradient1416)" d="m32.031 1.44c0-0.453-0.226-0.812-0.679-1.082-0.293-0.21-0.602-0.332-0.922-0.359-0.371 0-0.492 0.254-0.36 0.762 0.133 0.508 0.387 0.945 0.762 1.32 0.32 0.32 0.598 0.387 0.84 0.199 0.238-0.187 0.359-0.468 0.359-0.84z" inkscape:connector-curvature="0"/>
          </g>
        </g>
      </g>
    </g>
  </g>
<metadata><rdf:RDF><cc:Work><dc:format>image/svg+xml</dc:format><dc:type rdf:resource="http://purl.org/dc/dcmitype/StillImage"/><cc:license rdf:resource="http://creativecommons.org/licenses/publicdomain/"/><dc:publisher><cc:Agent rdf:about="http://openclipart.org/"><dc:title>Openclipart</dc:title></cc:Agent></dc:publisher></cc:Work><cc:License rdf:about="http://creativecommons.org/licenses/publicdomain/"><cc:permits rdf:resource="http://creativecommons.org/ns#Reproduction"/><cc:permits rdf:resource="http://creativecommons.org/ns#Distribution"/><cc:permits rdf:resource="http://creativecommons.org/ns#DerivativeWorks"/></cc:License></rdf:RDF></metadata></svg>
