<?xml version="1.0" encoding="UTF-8"?>
<!DOCTYPE svg PUBLIC "-//W3C//DTD SVG 1.1//EN" "http://www.w3.org/Graphics/SVG/1.1/DTD/svg11.dtd">
<svg version="1.1" xmlns="http://www.w3.org/2000/svg" xmlns:xlink="http://www.w3.org/1999/xlink" x="0" y="0" width="624" height="624" viewBox="0, 0, 624, 624">
  <defs>
    <linearGradient id="Gradient_1" gradientUnits="userSpaceOnUse" x1="534.868" y1="313.964" x2="230.638" y2="224">
      <stop offset="0" stop-color="#A75452"/>
      <stop offset="0.489" stop-color="#E57873"/>
      <stop offset="0.983" stop-color="#EC966B"/>
      <stop offset="1" stop-color="#EC966B"/>
    </linearGradient>
    <radialGradient id="Gradient_2" gradientUnits="userSpaceOnUse" cx="168.021" cy="333.015" r="303.822">
      <stop offset="0" stop-color="#A75452"/>
      <stop offset="0.489" stop-color="#E57873"/>
      <stop offset="0.983" stop-color="#EC966B"/>
      <stop offset="1" stop-color="#EC966B"/>
    </radialGradient>
    <radialGradient id="Gradient_3" gradientUnits="userSpaceOnUse" cx="168.021" cy="333.015" r="303.822">
      <stop offset="0" stop-color="#B46C66"/>
      <stop offset="0.489" stop-color="#E98E86"/>
      <stop offset="0.983" stop-color="#EFA880"/>
      <stop offset="1" stop-color="#EFA880"/>
    </radialGradient>
    <linearGradient id="Gradient_4" gradientUnits="userSpaceOnUse" x1="534.868" y1="313.964" x2="230.638" y2="224">
      <stop offset="0" stop-color="#B46C66"/>
      <stop offset="0.489" stop-color="#E98E86"/>
      <stop offset="0.983" stop-color="#EFA880"/>
      <stop offset="1" stop-color="#EFA880"/>
    </linearGradient>
    <radialGradient id="Gradient_5" gradientUnits="userSpaceOnUse" cx="168.021" cy="333.015" r="303.822">
      <stop offset="0" stop-color="#B46C66"/>
      <stop offset="0.489" stop-color="#E98E86"/>
      <stop offset="0.983" stop-color="#EFA880"/>
      <stop offset="1" stop-color="#EFA880"/>
    </radialGradient>
    <clipPath id="Clip_1">
      <path d="M341.449,252.522 C367.365,256.752 387.804,257.472 398.705,257.472 C401.84,257.472 404.187,257.412 405.648,257.36 C406.078,258.111 406.505,258.86 406.932,259.612 C405.759,259.667 402.94,259.775 398.705,259.775 C388.016,259.774 368.308,259.09 343.295,255.15 C342.678,254.266 342.063,253.391 341.449,252.522 z"/>
    </clipPath>
    <linearGradient id="Gradient_6" gradientUnits="userSpaceOnUse" x1="534.868" y1="313.964" x2="230.638" y2="224">
      <stop offset="0" stop-color="#B46C66"/>
      <stop offset="0.489" stop-color="#E98E86"/>
      <stop offset="0.983" stop-color="#EFA880"/>
      <stop offset="1" stop-color="#EFA880"/>
    </linearGradient>
    <radialGradient id="Gradient_7" gradientUnits="userSpaceOnUse" cx="168.021" cy="333.015" r="303.822">
      <stop offset="0" stop-color="#B46C66"/>
      <stop offset="0.489" stop-color="#E98E86"/>
      <stop offset="0.983" stop-color="#EFA880"/>
      <stop offset="1" stop-color="#EFA880"/>
    </radialGradient>
    <clipPath id="Clip_2">
      <path d="M366.446,196.431 C366.919,197.057 367.39,197.686 367.862,198.32 C363.46,203.37 351.469,214.036 324.19,221.78 C322.559,222.244 320.776,222.663 318.861,223.042 C318.294,222.362 317.728,221.688 317.165,221.021 C319.513,220.591 321.658,220.107 323.56,219.565 C351.215,211.697 362.656,200.937 366.446,196.431 z"/>
    </clipPath>
    <linearGradient id="Gradient_8" gradientUnits="userSpaceOnUse" x1="534.868" y1="313.964" x2="230.638" y2="224">
      <stop offset="0" stop-color="#B46C66"/>
      <stop offset="0.489" stop-color="#E98E86"/>
      <stop offset="0.983" stop-color="#EFA880"/>
      <stop offset="1" stop-color="#EFA880"/>
    </linearGradient>
    <radialGradient id="Gradient_9" gradientUnits="userSpaceOnUse" cx="168.021" cy="333.015" r="303.822">
      <stop offset="0" stop-color="#B46C66"/>
      <stop offset="0.489" stop-color="#E98E86"/>
      <stop offset="0.983" stop-color="#EFA880"/>
      <stop offset="1" stop-color="#EFA880"/>
    </radialGradient>
    <clipPath id="Clip_3">
      <path d="M339.889,166.652 C340.471,167.172 341.05,167.699 341.633,168.239 C334.72,173.153 318.982,183.603 299.998,191.418 C297.722,192.354 295.151,193.32 292.341,194.308 C291.714,193.7 291.097,193.106 290.48,192.518 C293.693,191.407 296.603,190.325 299.122,189.289 C317.492,181.731 332.862,171.616 339.889,166.652 z"/>
    </clipPath>
    <linearGradient id="Gradient_10" gradientUnits="userSpaceOnUse" x1="430.243" y1="369.09" x2="126.013" y2="279.126">
      <stop offset="0" stop-color="#A75452"/>
      <stop offset="0.489" stop-color="#E57873"/>
      <stop offset="0.983" stop-color="#EC966B"/>
      <stop offset="1" stop-color="#EC966B"/>
    </linearGradient>
    <radialGradient id="Gradient_11" gradientUnits="userSpaceOnUse" cx="63.395" cy="388.139" r="303.822">
      <stop offset="0" stop-color="#A75452"/>
      <stop offset="0.489" stop-color="#E57873"/>
      <stop offset="0.983" stop-color="#EC966B"/>
      <stop offset="1" stop-color="#EC966B"/>
    </radialGradient>
    <radialGradient id="Gradient_12" gradientUnits="userSpaceOnUse" cx="63.395" cy="388.139" r="303.822">
      <stop offset="0" stop-color="#B46C66"/>
      <stop offset="0.489" stop-color="#E98E86"/>
      <stop offset="0.983" stop-color="#EFA880"/>
      <stop offset="1" stop-color="#EFA880"/>
    </radialGradient>
    <clipPath id="Clip_4">
      <path d="M142.542,366.476 C169.761,381.477 201.458,402.346 225.858,428.391 C234.687,437.629 242.315,447.893 248.969,458.783 L245.448,457.405 C239.827,448.174 233.016,439.763 225.814,431.734 C209.018,413.382 188.41,397.508 168.143,384.417 C159.137,378.6 150.197,373.331 141.691,368.637 C142.003,367.944 142.286,367.222 142.542,366.476 z M94.578,344.549 L94.539,344.666 L94.553,344.624 L94.567,344.581 L94.578,344.549 z"/>
    </clipPath>
    <clipPath id="Clip_5">
      <path d="M367.089,292.313 C306.107,188.771 250.187,161.582 250.187,161.582 C250.187,161.582 200.026,187.583 179.453,207.103 C172.794,213.416 165.883,221.08 159.555,228.575 C152.277,236.261 145.197,245.38 138.489,255.322 C136.738,257.699 135.705,259.134 135.705,259.134 L135.88,259.316 C105.758,305.561 83.933,366.732 87.414,381.315 C93.426,406.579 393.632,512.525 393.632,512.525 C394.891,511.864 395.699,510.655 396.142,508.996 L432.697,457.611 C432.697,457.611 428.078,395.849 367.089,292.313 z"/>
    </clipPath>
    <radialGradient id="Gradient_13" gradientUnits="userSpaceOnUse" cx="63.395" cy="388.139" r="303.822">
      <stop offset="0" stop-color="#B46C66"/>
      <stop offset="0.489" stop-color="#E98E86"/>
      <stop offset="0.983" stop-color="#EFA880"/>
      <stop offset="1" stop-color="#EFA880"/>
    </radialGradient>
    <clipPath id="Clip_6">
      <path d="M143.75,336.405 C146.017,337.076 148.323,337.782 150.667,338.525 C188.016,350.372 234.531,371.579 271.159,409.114 C292.593,430.675 308.255,456.924 318.793,485.316 C317.098,484.688 318.041,485.038 315.966,484.264 C306.462,457.605 290.915,433.754 271.763,413.065 C248.628,388.639 221.192,370.973 194.554,358.247 C176.836,349.781 159.477,343.505 143.979,338.876 C143.908,338.059 143.831,337.238 143.75,336.405 z"/>
    </clipPath>
    <clipPath id="Clip_7">
      <path d="M367.089,292.313 C306.107,188.771 250.187,161.582 250.187,161.582 C250.187,161.582 200.026,187.583 179.453,207.103 C172.794,213.416 165.883,221.08 159.555,228.575 C152.277,236.261 145.197,245.38 138.489,255.322 C136.738,257.699 135.705,259.134 135.705,259.134 L135.88,259.316 C105.758,305.561 83.933,366.732 87.414,381.315 C93.426,406.579 393.632,512.525 393.632,512.525 C394.891,511.864 395.699,510.655 396.142,508.996 L432.697,457.611 C432.697,457.611 428.078,395.849 367.089,292.313 z"/>
    </clipPath>
    <radialGradient id="Gradient_14" gradientUnits="userSpaceOnUse" cx="63.395" cy="388.139" r="303.822">
      <stop offset="0" stop-color="#B46C66"/>
      <stop offset="0.489" stop-color="#E98E86"/>
      <stop offset="0.983" stop-color="#EFA880"/>
      <stop offset="1" stop-color="#EFA880"/>
    </radialGradient>
    <clipPath id="Clip_8">
      <path d="M367.089,292.313 C306.107,188.771 250.187,161.582 250.187,161.582 C250.187,161.582 200.026,187.583 179.453,207.103 C172.794,213.416 165.883,221.08 159.555,228.575 C152.277,236.261 145.197,245.38 138.489,255.322 C136.738,257.699 135.705,259.134 135.705,259.134 L135.88,259.316 C105.758,305.561 83.933,366.732 87.414,381.315 C93.426,406.579 393.632,512.525 393.632,512.525 C394.891,511.864 395.699,510.655 396.142,508.996 L432.697,457.611 C432.697,457.611 428.078,395.849 367.089,292.313 z"/>
    </clipPath>
    <linearGradient id="Gradient_15" gradientUnits="userSpaceOnUse" x1="430.243" y1="369.09" x2="126.013" y2="279.126">
      <stop offset="0" stop-color="#B46C66"/>
      <stop offset="0.489" stop-color="#E98E86"/>
      <stop offset="0.983" stop-color="#EFA880"/>
      <stop offset="1" stop-color="#EFA880"/>
    </linearGradient>
    <radialGradient id="Gradient_16" gradientUnits="userSpaceOnUse" cx="63.395" cy="388.139" r="303.822">
      <stop offset="0" stop-color="#B46C66"/>
      <stop offset="0.489" stop-color="#E98E86"/>
      <stop offset="0.983" stop-color="#EFA880"/>
      <stop offset="1" stop-color="#EFA880"/>
    </radialGradient>
    <clipPath id="Clip_9">
      <path d="M139.124,292.546 C168.634,296.86 212.077,303.32 231.768,306.789 C260.078,311.782 282.479,312.597 294.08,312.597 C297.215,312.597 299.562,312.537 301.023,312.485 C301.453,313.236 301.88,313.985 302.307,314.737 C301.134,314.792 298.315,314.9 294.08,314.9 C282.372,314.899 259.841,314.078 231.368,309.057 C211.844,305.617 168.775,299.209 139.278,294.896 C139.223,294.113 139.172,293.331 139.124,292.546 z"/>
    </clipPath>
    <clipPath id="Clip_10">
      <path d="M367.089,292.313 C306.107,188.771 250.187,161.582 250.187,161.582 C250.187,161.582 200.026,187.583 179.453,207.103 C172.794,213.416 165.883,221.08 159.555,228.575 C152.277,236.261 145.197,245.38 138.489,255.322 C136.738,257.699 135.705,259.134 135.705,259.134 L135.88,259.316 C105.758,305.561 83.933,366.732 87.414,381.315 C93.426,406.579 393.632,512.525 393.632,512.525 C394.891,511.864 395.699,510.655 396.142,508.996 L432.697,457.611 C432.697,457.611 428.078,395.849 367.089,292.313 z"/>
    </clipPath>
    <linearGradient id="Gradient_17" gradientUnits="userSpaceOnUse" x1="430.243" y1="369.09" x2="126.013" y2="279.126">
      <stop offset="0" stop-color="#B46C66"/>
      <stop offset="0.489" stop-color="#E98E86"/>
      <stop offset="0.983" stop-color="#EFA880"/>
      <stop offset="1" stop-color="#EFA880"/>
    </linearGradient>
    <radialGradient id="Gradient_18" gradientUnits="userSpaceOnUse" cx="63.395" cy="388.139" r="303.822">
      <stop offset="0" stop-color="#B46C66"/>
      <stop offset="0.489" stop-color="#E98E86"/>
      <stop offset="0.983" stop-color="#EFA880"/>
      <stop offset="1" stop-color="#EFA880"/>
    </radialGradient>
    <clipPath id="Clip_11">
      <path d="M261.821,251.556 C262.294,252.182 262.765,252.811 263.237,253.445 C258.835,258.495 246.844,269.161 219.565,276.905 C213.379,278.663 205.014,279.786 195.511,280.483 C186.011,281.178 175.382,281.44 164.733,281.44 C155.863,281.44 146.977,281.258 138.724,280.992 C138.719,280.223 138.72,279.457 138.726,278.688 C146.98,278.955 155.867,279.137 164.733,279.137 C164.736,279.137 164.738,279.137 164.741,279.137 C175.349,279.137 185.928,278.875 195.343,278.186 C204.758,277.499 213.022,276.375 218.935,274.69 C246.59,266.822 258.031,256.062 261.821,251.556 z"/>
    </clipPath>
    <clipPath id="Clip_12">
      <path d="M367.089,292.313 C306.107,188.771 250.187,161.582 250.187,161.582 C250.187,161.582 200.026,187.583 179.453,207.103 C172.794,213.416 165.883,221.08 159.555,228.575 C152.277,236.261 145.197,245.38 138.489,255.322 C136.738,257.699 135.705,259.134 135.705,259.134 L135.88,259.316 C105.758,305.561 83.933,366.732 87.414,381.315 C93.426,406.579 393.632,512.525 393.632,512.525 C394.891,511.864 395.699,510.655 396.142,508.996 L432.697,457.611 C432.697,457.611 428.078,395.849 367.089,292.313 z"/>
    </clipPath>
    <linearGradient id="Gradient_19" gradientUnits="userSpaceOnUse" x1="430.243" y1="369.09" x2="126.013" y2="279.126">
      <stop offset="0" stop-color="#B46C66"/>
      <stop offset="0.489" stop-color="#E98E86"/>
      <stop offset="0.983" stop-color="#EFA880"/>
      <stop offset="1" stop-color="#EFA880"/>
    </linearGradient>
    <radialGradient id="Gradient_20" gradientUnits="userSpaceOnUse" cx="63.395" cy="388.139" r="303.822">
      <stop offset="0" stop-color="#B46C66"/>
      <stop offset="0.489" stop-color="#E98E86"/>
      <stop offset="0.983" stop-color="#EFA880"/>
      <stop offset="1" stop-color="#EFA880"/>
    </radialGradient>
    <clipPath id="Clip_13">
      <path d="M235.264,221.777 C235.846,222.297 236.425,222.824 237.008,223.364 C230.095,228.278 214.357,238.728 195.373,246.543 C187.834,249.643 177.054,253.08 165.091,256.509 C156.927,258.849 148.216,261.184 139.628,263.393 C139.724,262.571 139.828,261.754 139.941,260.935 C148.225,258.797 156.6,256.548 164.457,254.296 C176.376,250.88 187.113,247.452 194.497,244.413 C212.868,236.856 228.238,226.741 235.264,221.777 z"/>
    </clipPath>
    <clipPath id="Clip_14">
      <path d="M367.089,292.313 C306.107,188.771 250.187,161.582 250.187,161.582 C250.187,161.582 200.026,187.583 179.453,207.103 C172.794,213.416 165.883,221.08 159.555,228.575 C152.277,236.261 145.197,245.38 138.489,255.322 C136.738,257.699 135.705,259.134 135.705,259.134 L135.88,259.316 C105.758,305.561 83.933,366.732 87.414,381.315 C93.426,406.579 393.632,512.525 393.632,512.525 C394.891,511.864 395.699,510.655 396.142,508.996 L432.697,457.611 C432.697,457.611 428.078,395.849 367.089,292.313 z"/>
    </clipPath>
  </defs>
  <g id="Layer_1">
    <path d="M500.812,453.808 C503.657,442.671 489.412,410.606 467.586,373.939 C455.638,353.866 433.281,305.996 406.932,259.612 C407.334,259.593 407.542,259.58 407.548,259.58 L408.072,259.547 L450.581,203.876 C450.126,203.212 449.666,202.543 449.213,201.887 L449.206,201.882 L406.884,257.309 C406.872,257.309 406.86,257.31 406.847,257.31 C406.557,257.324 406.156,257.342 405.648,257.36 C393.654,236.373 380.854,215.777 367.862,198.32 C369.149,196.843 369.788,195.846 369.97,195.543 L407.853,150.244 C407.319,149.676 406.787,149.115 406.259,148.561 L368.071,194.224 L368.02,194.314 C367.988,194.366 367.53,195.142 366.446,196.431 C358.197,185.504 349.874,175.876 341.633,168.239 C344.057,166.516 345.396,165.473 345.408,165.464 L345.505,165.389 L380.089,124.035 C379.487,123.538 378.89,123.051 378.305,122.579 L343.898,163.72 C343.866,163.745 343.825,163.777 343.775,163.815 C343.277,164.196 341.938,165.205 339.889,166.652 C330.898,158.62 322.016,153.026 313.44,150.774 C310.933,150.116 308.403,149.8 305.856,149.8 C292.623,149.8 278.951,158.333 265.872,171.672 C265.833,171.643 265.794,171.615 265.755,171.586 C271.642,164.699 277.975,157.766 284.078,151.977 C304.651,132.458 354.813,106.457 354.813,106.457 C354.813,106.457 410.732,133.646 471.714,237.188 C532.703,340.724 537.322,402.486 537.322,402.486 L500.812,453.808 z" fill="url(#Gradient_1)"/>
    <path d="M498.257,457.4 C498.257,457.4 497.82,457.246 496.982,456.949 C478.362,408.679 451.8,371.84 422.031,343.765 C407.361,329.93 391.916,318.222 376.259,308.312 C373.354,303.099 370.298,297.761 367.089,292.313 C359.031,278.631 351.059,266.28 343.295,255.15 C368.308,259.09 388.016,259.774 398.705,259.775 C402.94,259.775 405.759,259.667 406.932,259.612 C433.281,305.996 455.638,353.866 467.586,373.939 C489.412,410.606 503.657,442.671 500.812,453.808 C500.375,455.519 499.535,456.736 498.257,457.4 z M494.115,455.931 C484.62,452.553 459.621,443.607 427.825,431.827 C421.737,407.452 408.232,366.574 378.605,312.557 C392.92,321.892 407.017,332.77 420.451,345.44 C449.605,372.94 475.656,408.885 494.115,455.931 z M398.705,257.472 C387.804,257.472 367.365,256.752 341.449,252.522 C333.661,241.505 326.092,231.718 318.861,223.042 C320.776,222.663 322.559,222.244 324.19,221.78 C351.469,214.036 363.46,203.37 367.862,198.32 C380.854,215.777 393.654,236.373 405.648,257.36 C404.187,257.412 401.84,257.472 398.705,257.472 z M317.165,221.021 C308.283,210.5 299.931,201.668 292.341,194.308 C295.151,193.32 297.722,192.354 299.998,191.418 C318.982,183.603 334.72,173.153 341.633,168.239 C349.874,175.876 358.197,185.504 366.446,196.431 C362.656,200.937 351.215,211.697 323.56,219.565 C321.658,220.107 319.513,220.591 317.165,221.021 z M290.48,192.518 C280.805,183.289 272.435,176.499 265.872,171.672 C278.951,158.333 292.623,149.8 305.856,149.8 C308.403,149.8 310.933,150.116 313.44,150.774 C322.016,153.026 330.898,158.62 339.889,166.652 C332.862,171.616 317.492,181.731 299.122,189.289 C296.603,190.325 293.693,191.407 290.48,192.518 z" fill="url(#Gradient_2)"/>
    <path d="M246.552,195.275 C213.357,242.188 188.334,310.651 192.039,326.19 C192.109,326.493 192.426,326.872 192.587,327.21 C195.133,326.618 199.652,326.649 205.034,326.681 C218.192,326.757 236.505,326.834 243.726,317.802 C259.525,298.058 235.021,242.61 246.552,195.275" fill="#5D1A1E"/>
    <path d="M376.259,308.312 C391.916,318.222 407.361,329.93 422.031,343.765 C455.771,375.049 479.93,414.513 496.982,456.949 C496.026,456.61 495.07,456.27 494.115,455.93 C478.066,413.981 452.639,376.602 420.451,345.44 C407.017,332.77 392.92,321.892 378.605,312.557 C377.832,311.147 377.054,309.74 376.259,308.312 z" fill="url(#Gradient_3)"/>
    <path d="M449.194,201.898 L450.57,203.89 L408.072,259.547 L407.548,259.58 C407.542,259.58 407.334,259.593 406.932,259.612 C406.505,258.86 406.078,258.111 405.648,257.36 C406.156,257.342 406.557,257.324 406.847,257.31 C406.86,257.31 406.872,257.309 406.884,257.309 L449.194,201.898 z" fill="url(#Gradient_4)"/>
    <g clip-path="url(#Clip_1)">
      <path d="M341.449,252.522 C367.365,256.752 387.804,257.472 398.705,257.472 C401.84,257.472 404.187,257.412 405.648,257.36 C406.078,258.111 406.505,258.86 406.932,259.612 C405.759,259.667 402.94,259.775 398.705,259.775 C388.016,259.774 368.308,259.09 343.295,255.15 C342.678,254.266 342.063,253.391 341.449,252.522 z" fill="url(#Gradient_5)"/>
    </g>
    <path d="M406.254,148.567 L407.843,150.256 L369.97,195.543 C369.788,195.846 369.149,196.843 367.862,198.32 C367.39,197.686 366.919,197.057 366.446,196.431 C367.53,195.142 367.988,194.366 368.02,194.314 L368.071,194.224 L406.254,148.567 z" fill="url(#Gradient_6)"/>
    <g clip-path="url(#Clip_2)">
      <path d="M366.446,196.431 C366.919,197.057 367.39,197.686 367.862,198.32 C363.46,203.37 351.469,214.036 324.19,221.78 C322.559,222.244 320.776,222.663 318.861,223.042 C318.294,222.362 317.728,221.688 317.165,221.021 C319.513,220.591 321.658,220.107 323.56,219.565 C351.215,211.697 362.656,200.937 366.446,196.431 z" fill="url(#Gradient_7)"/>
    </g>
    <path d="M378.3,122.585 L380.085,124.04 L345.505,165.389 L345.408,165.464 C345.396,165.473 344.057,166.516 341.633,168.239 C341.05,167.699 340.471,167.172 339.889,166.652 C341.938,165.205 343.277,164.196 343.775,163.815 C343.825,163.777 343.866,163.745 343.898,163.72 L378.3,122.585 z" fill="url(#Gradient_8)"/>
    <g clip-path="url(#Clip_3)">
      <path d="M339.889,166.652 C340.471,167.172 341.05,167.699 341.633,168.239 C334.72,173.153 318.982,183.603 299.998,191.418 C297.722,192.354 295.151,193.32 292.341,194.308 C291.714,193.7 291.097,193.106 290.48,192.518 C293.693,191.407 296.603,190.325 299.122,189.289 C317.492,181.731 332.862,171.616 339.889,166.652 z" fill="url(#Gradient_9)"/>
    </g>
    <path d="M396.187,508.933 C399.032,497.796 384.787,465.731 362.961,429.064 C351.013,408.991 328.656,361.121 302.307,314.737 C302.709,314.718 302.917,314.705 302.923,314.705 L303.447,314.672 L345.956,259.001 C345.501,258.337 345.041,257.668 344.588,257.012 L344.581,257.007 L302.259,312.434 C302.247,312.434 302.235,312.435 302.222,312.436 C301.932,312.449 301.531,312.467 301.023,312.485 C289.029,291.498 276.229,270.902 263.237,253.445 C264.524,251.968 265.163,250.972 265.345,250.668 L303.228,205.369 C302.694,204.801 302.162,204.24 301.634,203.686 L263.447,249.348 L263.396,249.438 C263.365,249.486 262.908,250.264 261.821,251.556 C253.572,240.629 245.249,231.001 237.008,223.364 C239.432,221.641 240.771,220.598 240.783,220.589 L240.88,220.514 L275.464,179.16 C274.862,178.663 274.265,178.176 273.68,177.704 L239.274,218.845 C239.241,218.87 239.2,218.902 239.15,218.94 C238.652,219.321 237.312,220.33 235.264,221.777 C226.273,213.745 217.391,208.151 208.815,205.899 C206.308,205.241 203.778,204.925 201.231,204.925 C187.456,204.925 173.214,214.162 159.651,228.452 C165.948,221.001 172.835,213.38 179.453,207.103 C200.026,187.583 250.187,161.582 250.187,161.582 C250.187,161.582 255.935,164.376 265.755,171.586 C265.794,171.615 265.833,171.643 265.872,171.672 C272.435,176.499 280.805,183.289 290.48,192.518 C291.097,193.106 291.714,193.7 292.341,194.308 C299.931,201.668 308.283,210.5 317.165,221.021 C317.728,221.688 318.294,222.362 318.861,223.042 C326.092,231.718 333.661,241.505 341.449,252.522 C342.063,253.391 342.678,254.266 343.295,255.15 C351.059,266.28 359.031,278.631 367.089,292.313 C370.298,297.761 373.354,303.099 376.259,308.312 C377.054,309.74 377.832,311.147 378.605,312.557 C408.232,366.574 421.737,407.452 427.825,431.827 C432.026,448.646 432.697,457.611 432.697,457.611 L396.187,508.933 z M135.857,259.283 L135.705,259.134 C135.705,259.134 136.712,257.72 138.492,255.307 C137.605,256.621 136.73,257.943 135.857,259.283 z" fill="url(#Gradient_10)"/>
    <path d="M393.632,512.525 C393.632,512.525 393.195,512.371 392.357,512.074 C373.737,463.804 347.175,426.965 317.406,398.89 C270.683,354.825 216.088,332.331 171.846,320.845 C160.895,318.002 150.579,315.834 141.17,314.18 C140.433,307.924 139.738,301.458 139.278,294.896 C168.775,299.209 211.844,305.617 231.368,309.057 C259.841,314.078 282.372,314.899 294.08,314.9 C298.315,314.9 301.134,314.792 302.307,314.737 C328.656,361.121 351.013,408.991 362.961,429.064 C384.787,465.731 399.032,497.796 396.187,508.933 C395.75,510.644 394.91,511.861 393.632,512.525 z M389.49,511.056 C379.553,507.52 352.674,497.901 318.794,485.318 C307.835,454.442 290.945,429.39 271.159,409.114 C234.531,371.579 188.016,350.372 150.667,338.525 C148.323,337.782 146.017,337.076 143.75,336.405 C143.143,330.177 142.288,323.511 141.454,316.569 C163.279,320.446 189.946,327.103 217.995,338.524 C250.53,351.771 284.925,371.421 315.826,400.565 C344.98,428.065 371.031,464.01 389.49,511.056 z M315.967,484.267 C295.35,476.597 272.307,467.889 248.991,458.818 C242.626,448.009 234.721,437.855 225.858,428.391 C201.458,402.346 169.761,381.477 142.542,366.476 C144.984,359.345 144.941,349.846 143.979,338.876 C159.477,343.505 176.836,349.781 194.554,358.247 C221.192,370.973 248.628,388.639 271.763,413.065 C289.985,432.304 305.543,455.726 315.967,484.267 z M245.475,457.448 C168.822,427.539 90.493,394.113 87.416,381.324 C87.491,381.626 87.802,382 87.962,382.335 C89.937,381.876 93.099,381.792 96.931,381.792 C98.038,381.792 99.202,381.799 100.408,381.806 C101.615,381.813 102.867,381.82 104.147,381.82 C116.833,381.82 132.542,381.131 139.101,372.927 C140.128,371.643 140.984,370.21 141.691,368.637 C150.197,373.331 159.137,378.6 168.143,384.417 C188.41,397.508 209.018,413.382 225.814,431.734 C233.23,439.835 239.899,448.414 245.475,457.448 z M87.414,381.315 C87.412,381.309 87.41,381.301 87.409,381.295 C87.411,381.301 87.412,381.309 87.414,381.315 z M87.407,381.288 C87.406,381.283 87.405,381.278 87.404,381.273 C87.405,381.278 87.406,381.283 87.407,381.288 z M87.403,381.267 C87.401,381.261 87.4,381.257 87.399,381.251 C87.4,381.257 87.401,381.261 87.403,381.267 z M87.398,381.245 C87.396,381.239 87.394,381.231 87.393,381.225 C87.395,381.232 87.396,381.238 87.398,381.245 z M87.392,381.22 C87.391,381.215 87.389,381.209 87.388,381.204 C87.389,381.21 87.39,381.214 87.392,381.22 z M87.386,381.196 C87.386,381.193 87.384,381.186 87.383,381.183 C87.384,381.187 87.385,381.192 87.386,381.196 z M87.381,381.174 C87.38,381.168 87.379,381.163 87.377,381.156 C87.379,381.162 87.38,381.169 87.381,381.174 z M87.377,381.152 C87.375,381.146 87.374,381.14 87.372,381.133 C87.374,381.139 87.375,381.146 87.377,381.152 z M87.371,381.126 C87.37,381.121 87.369,381.117 87.368,381.112 C87.369,381.116 87.37,381.122 87.371,381.126 z M87.366,381.103 C87.365,381.099 87.364,381.094 87.363,381.089 C87.364,381.094 87.365,381.098 87.366,381.103 z M87.361,381.083 C87.36,381.075 87.359,381.07 87.357,381.062 C87.358,381.069 87.36,381.076 87.361,381.083 z M87.356,381.055 C87.355,381.05 87.353,381.045 87.352,381.04 C87.353,381.045 87.355,381.05 87.356,381.055 z M87.351,381.032 C87.35,381.027 87.349,381.024 87.348,381.019 C87.349,381.023 87.35,381.028 87.351,381.032 z M87.346,381.01 C87.345,381.005 87.343,380.996 87.342,380.991 C87.344,380.997 87.345,381.004 87.346,381.01 z M87.342,380.988 C87.34,380.981 87.339,380.974 87.338,380.967 C87.339,380.973 87.34,380.982 87.342,380.988 z M87.336,380.962 C87.335,380.957 87.334,380.95 87.333,380.945 C87.334,380.951 87.335,380.956 87.336,380.962 z M87.332,380.939 C87.331,380.933 87.329,380.927 87.328,380.92 C87.329,380.926 87.331,380.933 87.332,380.939 z M87.327,380.917 C87.326,380.91 87.324,380.9 87.323,380.894 C87.325,380.902 87.326,380.909 87.327,380.917 z M87.322,380.891 C87.321,380.885 87.32,380.878 87.319,380.872 C87.32,380.878 87.321,380.885 87.322,380.891 z M87.318,380.866 C87.316,380.86 87.315,380.853 87.314,380.847 C87.315,380.853 87.316,380.86 87.318,380.866 z M87.313,380.844 C87.311,380.829 87.307,380.812 87.305,380.797 C87.308,380.813 87.31,380.828 87.313,380.844 z M87.304,380.795 C87.303,380.787 87.302,380.781 87.3,380.772 C87.302,380.78 87.303,380.787 87.304,380.795 z M87.3,380.772 C84.459,365.272 106.099,304.983 135.857,259.283 C136.73,257.943 137.605,256.621 138.492,255.307 C145.224,245.328 152.341,236.154 159.651,228.452 C173.214,214.162 187.456,204.925 201.231,204.925 C203.778,204.925 206.308,205.241 208.815,205.899 C217.391,208.151 226.273,213.745 235.264,221.777 C228.238,226.741 212.868,236.856 194.497,244.413 C187.113,247.452 176.376,250.88 164.457,254.296 C156.6,256.548 148.225,258.797 139.941,260.935 C140.429,257.392 141.081,253.873 141.927,250.4 C121.673,279.025 104.46,315.676 94.959,343.429 C94.958,343.428 94.96,343.429 94.959,343.428 C94.707,344.166 94.461,344.891 94.22,345.616 L94.221,345.616 C88.823,361.813 86.19,374.712 87.3,380.772 z M294.08,312.597 C282.479,312.597 260.078,311.782 231.768,306.789 C212.077,303.32 168.634,296.86 139.124,292.546 C138.891,288.715 138.745,284.859 138.724,280.992 C146.977,281.258 155.863,281.44 164.733,281.44 C175.382,281.44 186.011,281.178 195.511,280.483 C205.014,279.786 213.379,278.663 219.565,276.905 C246.844,269.161 258.835,258.495 263.237,253.445 C276.229,270.902 289.029,291.498 301.023,312.485 C299.562,312.537 297.215,312.597 294.08,312.597 z M164.741,279.137 C164.738,279.137 164.736,279.137 164.733,279.137 C155.867,279.137 146.98,278.955 138.726,278.688 C138.766,273.579 139.038,268.461 139.628,263.393 C148.216,261.184 156.927,258.849 165.091,256.509 C177.054,253.08 187.834,249.643 195.373,246.543 C214.357,238.728 230.095,228.278 237.008,223.364 C245.249,231.001 253.572,240.629 261.821,251.556 C258.031,256.062 246.59,266.822 218.935,274.69 C213.022,276.375 204.758,277.499 195.343,278.186 C185.928,278.875 175.349,279.137 164.741,279.137 z" fill="url(#Gradient_11)"/>
    <path d="M141.927,250.4 C108.732,297.313 83.708,365.776 87.414,381.315 C87.484,381.618 87.801,381.997 87.962,382.335 C90.507,381.743 95.027,381.774 100.408,381.806 C113.566,381.882 131.88,381.959 139.101,372.927 C154.9,353.184 130.396,297.735 141.927,250.4" fill="#5D1A1E"/>
    <g clip-path="url(#Clip_4)">
      <path d="M142.542,366.476 C169.761,381.477 201.458,402.346 225.858,428.391 C234.687,437.629 242.315,447.893 248.969,458.783 L245.448,457.405 C239.827,448.174 233.016,439.763 225.814,431.734 C209.018,413.382 188.41,397.508 168.143,384.417 C159.137,378.6 150.197,373.331 141.691,368.637 C142.003,367.944 142.286,367.222 142.542,366.476 z M94.578,344.549 L94.539,344.666 L94.553,344.624 L94.567,344.581 L94.578,344.549 z" fill="url(#Gradient_12)"/>
    </g>
    <g clip-path="url(#Clip_5)">
      <path d="M141.691,368.637 C122.081,357.814 104.771,350.043 94.221,345.616 C94.461,344.893 94.708,344.164 94.959,343.429 C104.15,347.28 118.506,353.682 135.075,362.444 C137.519,363.737 140.01,365.081 142.542,366.476 C142.286,367.222 142.003,367.944 141.691,368.637" fill="#783734"/>
    </g>
    <g clip-path="url(#Clip_6)">
      <path d="M143.75,336.405 C146.017,337.076 148.323,337.782 150.667,338.525 C188.016,350.372 234.531,371.579 271.159,409.114 C292.593,430.675 308.255,456.924 318.793,485.316 C317.098,484.688 318.041,485.038 315.966,484.264 C306.462,457.605 290.915,433.754 271.763,413.065 C248.628,388.639 221.192,370.973 194.554,358.247 C176.836,349.781 159.477,343.505 143.979,338.876 C143.908,338.059 143.831,337.238 143.75,336.405 z" fill="url(#Gradient_13)"/>
    </g>
    <g clip-path="url(#Clip_7)">
      <path d="M143.979,338.876 C126.278,333.588 111.008,330.449 100.423,328.655 C100.71,327.93 101.002,327.199 101.297,326.468 C111.756,328.257 126.588,331.323 143.75,336.405 C143.831,337.238 143.908,338.059 143.979,338.876" fill="#783734"/>
    </g>
    <path d="M141.17,314.18 C150.579,315.834 160.895,318.002 171.846,320.845 C216.088,332.331 270.683,354.825 317.406,398.89 C351.146,430.174 375.305,469.638 392.357,512.074 C391.401,511.735 390.445,511.395 389.49,511.055 C373.441,469.106 348.014,431.727 315.826,400.565 C284.925,371.421 250.53,351.771 217.995,338.524 C189.946,327.103 163.279,320.446 141.454,316.569 C141.359,315.777 141.264,314.979 141.17,314.18 z" fill="url(#Gradient_14)"/>
    <g clip-path="url(#Clip_8)">
      <path d="M141.454,316.569 C127.994,314.178 116.378,312.845 107.409,312.102 C107.74,311.363 108.077,310.618 108.414,309.876 C117.173,310.622 128.326,311.922 141.17,314.18 C141.264,314.979 141.359,315.777 141.454,316.569" fill="#783734"/>
    </g>
    <path d="M344.568,257.023 L345.945,259.015 L303.447,314.672 L302.923,314.705 C302.917,314.705 302.709,314.718 302.307,314.737 C301.88,313.985 301.453,313.236 301.023,312.485 C301.531,312.467 301.932,312.449 302.222,312.436 C302.235,312.435 302.247,312.434 302.259,312.434 L344.568,257.023 z" fill="url(#Gradient_15)"/>
    <g clip-path="url(#Clip_9)">
      <path d="M139.124,292.546 C168.634,296.86 212.077,303.32 231.768,306.789 C260.078,311.782 282.479,312.597 294.08,312.597 C297.215,312.597 299.562,312.537 301.023,312.485 C301.453,313.236 301.88,313.985 302.307,314.737 C301.134,314.792 298.315,314.9 294.08,314.9 C282.372,314.899 259.841,314.078 231.368,309.057 C211.844,305.617 168.775,299.209 139.278,294.896 C139.223,294.113 139.172,293.331 139.124,292.546 z" fill="url(#Gradient_16)"/>
    </g>
    <g clip-path="url(#Clip_10)">
      <path d="M139.278,294.896 C130.327,293.587 122.625,292.47 117.212,291.689 C117.583,290.965 117.954,290.247 118.331,289.524 C123.59,290.284 130.806,291.33 139.124,292.546 C139.172,293.331 139.223,294.113 139.278,294.896" fill="#783734"/>
    </g>
    <path d="M301.629,203.692 L303.218,205.381 L265.345,250.668 C265.163,250.972 264.524,251.968 263.237,253.445 C262.765,252.811 262.294,252.182 261.821,251.556 C262.908,250.264 263.365,249.486 263.396,249.438 L263.447,249.348 L301.629,203.692 z" fill="url(#Gradient_17)"/>
    <g clip-path="url(#Clip_11)">
      <path d="M261.821,251.556 C262.294,252.182 262.765,252.811 263.237,253.445 C258.835,258.495 246.844,269.161 219.565,276.905 C213.379,278.663 205.014,279.786 195.511,280.483 C186.011,281.178 175.382,281.44 164.733,281.44 C155.863,281.44 146.977,281.258 138.724,280.992 C138.719,280.223 138.72,279.457 138.726,278.688 C146.98,278.955 155.867,279.137 164.733,279.137 C164.736,279.137 164.738,279.137 164.741,279.137 C175.349,279.137 185.928,278.875 195.343,278.186 C204.758,277.499 213.022,276.375 218.935,274.69 C246.59,266.822 258.031,256.062 261.821,251.556 z" fill="url(#Gradient_18)"/>
    </g>
    <g clip-path="url(#Clip_12)">
      <path d="M138.724,280.992 C133.22,280.814 127.997,280.6 123.247,280.376 C123.664,279.624 124.081,278.878 124.503,278.129 C128.911,278.332 133.702,278.526 138.726,278.688 C138.72,279.457 138.719,280.223 138.724,280.992" fill="#783734"/>
    </g>
    <path d="M273.675,177.71 L275.459,179.165 L240.88,220.514 L240.783,220.589 C240.771,220.598 239.432,221.641 237.008,223.364 C236.425,222.824 235.846,222.297 235.264,221.777 C237.312,220.33 238.652,219.321 239.15,218.94 C239.2,218.902 239.241,218.87 239.274,218.845 L273.675,177.71 z" fill="url(#Gradient_19)"/>
    <g clip-path="url(#Clip_13)">
      <path d="M235.264,221.777 C235.846,222.297 236.425,222.824 237.008,223.364 C230.095,228.278 214.357,238.728 195.373,246.543 C187.834,249.643 177.054,253.08 165.091,256.509 C156.927,258.849 148.216,261.184 139.628,263.393 C139.724,262.571 139.828,261.754 139.941,260.935 C148.225,258.797 156.6,256.548 164.457,254.296 C176.376,250.88 187.113,247.452 194.497,244.413 C212.868,236.856 228.238,226.741 235.264,221.777 z" fill="url(#Gradient_20)"/>
    </g>
    <g clip-path="url(#Clip_14)">
      <path d="M132.069,265.316 C132.654,264.373 133.246,263.428 133.838,262.495 C135.861,261.982 137.897,261.462 139.941,260.935 C139.828,261.754 139.724,262.571 139.628,263.393 C137.092,264.046 134.566,264.688 132.069,265.316" fill="#783734"/>
    </g>
  </g>
</svg>
