<?xml version="1.0"?>
<svg xmlns:rdf="http://www.w3.org/1999/02/22-rdf-syntax-ns#" xmlns="http://www.w3.org/2000/svg" xmlns:cc="http://web.resource.org/cc/" xmlns:xlink="http://www.w3.org/1999/xlink" xmlns:dc="http://purl.org/dc/elements/1.1/" xmlns:svg="http://www.w3.org/2000/svg" id="svg2" viewBox="0 0 506.84 512.03" version="1.0">
  <defs id="defs3">
    <radialGradient id="radialGradient2829" gradientUnits="userSpaceOnUse" cy="192.53" cx="244.81" gradientTransform="matrix(1 0 0 .90278 107.94 287.96)" r="120.68">
      <stop id="stop2825" stop-color="#ccc" offset="0"/>
      <stop id="stop2827" stop-color="#ccc" stop-opacity="0" offset="1"/>
    </radialGradient>
  </defs>
  <g id="layer1" transform="translate(-107.94 -243.07)">
    <g id="g2831">
      <path id="path2758" d="m607.62 516.65c22.45 63.88-12.99 134.22-65.78 171.33-31.04 22.38-68.5 32.91-104.16 45.48-67.73 20.39-139.63 25.65-209.83 17.97-29.92-21.07-7.91-58.15 4.59-82.61 18.4-26.34 4.43-61.63-26.03-69.83-47.37-24.96-85.25-69.94-93.51-123.8-22.254-94.74 37.32-205.44 134.69-227.37 82.82-16.5 163.99 16.33 241.7 40.76 51.29 18.2 103.22 53.42 119.55 107.98 10.71 39.53-8.79 80.08-1.22 120.09z" stroke="#000" stroke-width=".59529" fill="#f4f2ee"/>
      <path id="path1871" d="m473.42 461.64c0.66 50.74-41.05 94.59-89.18 105.25-55.22 14.2-120.76-11.88-144.08-65.52-18.4-41.18-4.26-92.57 31.01-120.1 51.46-43.24 137.71-36.81 179.57 16.81 14.25 17.93 22.9 40.55 22.68 63.56z" stroke="#000" stroke-width=".94345" fill="#eeaf05"/>
      <path id="path1934" opacity=".64953" d="m473.42 461.64c0.66 50.74-41.05 94.59-89.18 105.25-55.22 14.2-120.76-11.88-144.08-65.52-18.4-41.18-4.26-92.57 31.01-120.1 51.46-43.24 137.71-36.81 179.57 16.81 14.25 17.93 22.9 40.55 22.68 63.56z" fill="url(#radialGradient2829)"/>
    </g>
  </g>
  <metadata>
    <rdf:RDF>
      <cc:Work>
        <dc:format>image/svg+xml</dc:format>
        <dc:type rdf:resource="http://purl.org/dc/dcmitype/StillImage"/>
        <cc:license rdf:resource="http://creativecommons.org/licenses/publicdomain/"/>
        <dc:publisher>
          <cc:Agent rdf:about="http://openclipart.org/">
            <dc:title>Openclipart</dc:title>
          </cc:Agent>
        </dc:publisher>
        <dc:title>sunnyside-up egg</dc:title>
        <dc:date>2006-12-31T03:51:07</dc:date>
        <dc:description>breakfast, breakfast, clip art, clipart, egg, egg, food, food, fried, fried, image, media, png, public domain, svg, </dc:description>
        <dc:source>http://openclipart.org/detail/2613/sunnyside-up-egg-by-machovka</dc:source>
        <dc:creator>
          <cc:Agent>
            <dc:title>Machovka</dc:title>
          </cc:Agent>
        </dc:creator>
        <dc:subject>
          <rdf:Bag>
            <rdf:li>breakfast</rdf:li>
            <rdf:li>clip art</rdf:li>
            <rdf:li>clipart</rdf:li>
            <rdf:li>egg</rdf:li>
            <rdf:li>food</rdf:li>
            <rdf:li>fried</rdf:li>
            <rdf:li>image</rdf:li>
            <rdf:li>media</rdf:li>
            <rdf:li>png</rdf:li>
            <rdf:li>public domain</rdf:li>
            <rdf:li>svg</rdf:li>
          </rdf:Bag>
        </dc:subject>
      </cc:Work>
      <cc:License rdf:about="http://creativecommons.org/licenses/publicdomain/">
        <cc:permits rdf:resource="http://creativecommons.org/ns#Reproduction"/>
        <cc:permits rdf:resource="http://creativecommons.org/ns#Distribution"/>
        <cc:permits rdf:resource="http://creativecommons.org/ns#DerivativeWorks"/>
      </cc:License>
    </rdf:RDF>
  </metadata>
</svg>
