<?xml version="1.0" encoding="UTF-8" standalone="no"?>
<!-- Created with Inkscape (http://www.inkscape.org/) -->
<svg xmlns:inkscape="http://www.inkscape.org/namespaces/inkscape" xmlns:rdf="http://www.w3.org/1999/02/22-rdf-syntax-ns#" xmlns="http://www.w3.org/2000/svg" xmlns:xlink="http://www.w3.org/1999/xlink" xmlns:ns1="http://sozi.baierouge.fr" xmlns:cc="http://creativecommons.org/ns#" xmlns:sodipodi="http://sodipodi.sourceforge.net/DTD/sodipodi-0.dtd" xmlns:dc="http://purl.org/dc/elements/1.1/" id="svg2" xml:space="preserve" viewBox="0 0 35.101 18.6" version="1.1" inkscape:version="0.91 r13725">
  <defs id="defs6">
    <clipPath id="clipPath20">
      <path id="path22" d="m2-0.12h16v8h-16v-8z" inkscape:connector-curvature="0"/>
    </clipPath>
    <mask id="mask24">
      <g id="g26">
        <g id="g28" clip-path="url(#clipPath20)">
          <path id="path30" style="fill:#000000;fill-opacity:.71880" d="m2-0.12h16v8h-16v-8z" inkscape:connector-curvature="0"/>
        </g>
      </g>
    </mask>
    <clipPath id="clipPath36">
      <path id="path38" d="m2-0.12h16v8h-16v-8z" inkscape:connector-curvature="0"/>
    </clipPath>
    <clipPath id="clipPath40">
      <path id="path42" d="m2 0h16v8h-16v-8z" inkscape:connector-curvature="0"/>
    </clipPath>
    <linearGradient id="linearGradient48" y2="-32.381" gradientUnits="userSpaceOnUse" x2="-6.7579" gradientTransform="matrix(.6 -.00192 .00192 .6 18.357 23.347)" y1="-32.381" x1="-22.458">
      <stop id="stop50" style="stop-color:#ffffff" offset="0"/>
      <stop id="stop52" style="stop-color:#000000" offset="1"/>
    </linearGradient>
    <clipPath id="clipPath80">
      <path id="path82" d="m16-0.12h11v9h-11v-9z" inkscape:connector-curvature="0"/>
    </clipPath>
    <mask id="mask84">
      <g id="g86">
        <g id="g88" clip-path="url(#clipPath80)">
          <path id="path90" style="fill:#000000;fill-opacity:.16020" d="m16-0.12h11v9h-11v-9z" inkscape:connector-curvature="0"/>
        </g>
      </g>
    </mask>
    <clipPath id="clipPath96">
      <path id="path98" d="m16-0.12h11v9h-11v-9z" inkscape:connector-curvature="0"/>
    </clipPath>
    <clipPath id="clipPath100">
      <path id="path102" d="m16 0h11v9h-11v-9z" inkscape:connector-curvature="0"/>
    </clipPath>
    <clipPath id="clipPath124">
      <path id="path126" d="m0 0.88h8v8h-8v-8z" inkscape:connector-curvature="0"/>
    </clipPath>
    <mask id="mask128">
      <g id="g130">
        <g id="g132" clip-path="url(#clipPath124)">
          <path id="path134" style="fill:#000000;fill-opacity:.32030" d="m0 0.88h8v8h-8v-8z" inkscape:connector-curvature="0"/>
        </g>
      </g>
    </mask>
    <clipPath id="clipPath140">
      <path id="path142" d="m0 0.88h8v8h-8v-8z" inkscape:connector-curvature="0"/>
    </clipPath>
    <clipPath id="clipPath144">
      <path id="path146" d="m0 1h8v8h-8v-8z" inkscape:connector-curvature="0"/>
    </clipPath>
    <linearGradient id="linearGradient174" y2="8.5991" gradientUnits="userSpaceOnUse" x2="46.051" gradientTransform="matrix(.6 0 0 -.6 .00072001 14.88)" y1="8.5991" x1=".8003">
      <stop id="stop176" style="stop-color:#7d7d7d" offset="0"/>
      <stop id="stop178" style="stop-color:#d4d4d4" offset="1"/>
    </linearGradient>
    <linearGradient id="linearGradient194" y2="9.541" gradientUnits="userSpaceOnUse" x2="44.325" gradientTransform="matrix(.6 0 0 -.6 .00072001 14.88)" y1="9.541" x1="1.6748">
      <stop id="stop196" style="stop-color:#9c3c11" offset="0"/>
      <stop id="stop198" style="stop-color:#662516" offset="1"/>
    </linearGradient>
    <clipPath id="clipPath206">
      <path id="path208" d="m0 5.88h27v8h-27v-8z" inkscape:connector-curvature="0"/>
    </clipPath>
    <mask id="mask210">
      <g id="g212">
        <g id="g214" clip-path="url(#clipPath206)">
          <path id="path216" style="fill:#000000;fill-opacity:.21090" d="m0 5.88h27v8h-27v-8z" inkscape:connector-curvature="0"/>
        </g>
      </g>
    </mask>
    <clipPath id="clipPath222">
      <path id="path224" d="m0 5.88h27v8h-27v-8z" inkscape:connector-curvature="0"/>
    </clipPath>
    <clipPath id="clipPath226">
      <path id="path228" d="m0 6h27v8h-27v-8z" inkscape:connector-curvature="0"/>
    </clipPath>
    <clipPath id="clipPath290">
      <path id="path292" d="m13.832 12.06c0.32 0 0.59-0.121 0.809-0.36 0.218-0.242 0.332-0.519 0.332-0.84v-0.031c-0.262-0.301-0.641-0.449-1.141-0.449-0.48 0-0.852 0.129-1.109 0.391v0.089c0 0.321 0.109 0.598 0.328 0.84 0.219 0.239 0.48 0.36 0.781 0.36z" inkscape:connector-curvature="0"/>
    </clipPath>
    <clipPath id="clipPath298">
      <path id="path300" d="m-26.104 4.9156h6.8055v6.6168h-6.8055v-6.6168z" inkscape:connector-curvature="0"/>
    </clipPath>
    <radialGradient id="radialGradient302" gradientUnits="userSpaceOnUse" cy="7.9966" cx="-25.52" r="3.4843">
      <stop id="stop304" style="stop-color:#ffffff;stop-opacity:0" offset="0"/>
      <stop id="stop306" style="stop-color:#ffffff;stop-opacity:.37650" offset=".99220"/>
      <stop id="stop308" style="stop-color:#ffffff;stop-opacity:.37650" offset="1"/>
    </radialGradient>
    <mask id="mask310">
      <g id="g312">
        <g id="g314" clip-path="url(#clipPath298)">
          <path id="path316" style="fill:url(#radialGradient302)" d="m-26.104 4.9156h6.8055v6.6168h-6.8055v-6.6168z" inkscape:connector-curvature="0"/>
        </g>
      </g>
    </mask>
    <radialGradient id="radialGradient320" gradientUnits="userSpaceOnUse" cy="7.9966" cx="-25.52" r="3.4843">
      <stop id="stop322" style="stop-color:#ffffff" offset="0"/>
      <stop id="stop324" style="stop-color:#ffffff" offset="1"/>
    </radialGradient>
    <clipPath id="clipPath332">
      <path id="path334" d="m13 10.88h1v1h-1v-1z" inkscape:connector-curvature="0"/>
    </clipPath>
    <mask id="mask336">
      <g id="g338">
        <g id="g340" clip-path="url(#clipPath332)">
          <path id="path342" style="fill:#000000;fill-opacity:.44140" d="m13 10.88h1v1h-1v-1z" inkscape:connector-curvature="0"/>
        </g>
      </g>
    </mask>
    <clipPath id="clipPath348">
      <path id="path350" d="m13 10.88h1v1h-1v-1z" inkscape:connector-curvature="0"/>
    </clipPath>
    <clipPath id="clipPath352">
      <path id="path354" d="m13 11h1v1h-1v-1z" inkscape:connector-curvature="0"/>
    </clipPath>
    <clipPath id="clipPath388">
      <path id="path390" d="m9.812 10.501c0.219 0 0.399-0.082 0.54-0.242 0.16-0.16 0.238-0.359 0.238-0.598v-0.031c-0.199-0.199-0.457-0.301-0.778-0.301-0.3 0-0.562 0.09-0.781 0.27v0.062c0 0.239 0.078 0.438 0.239 0.598 0.14 0.16 0.32 0.242 0.542 0.242z" inkscape:connector-curvature="0"/>
    </clipPath>
    <clipPath id="clipPath396">
      <path id="path398" d="m-20.992 0.15814h4.5364v4.4061h-4.5364v-4.4061z" inkscape:connector-curvature="0"/>
    </clipPath>
    <radialGradient id="radialGradient400" gradientUnits="userSpaceOnUse" cy="2.4009" cx="-19.938" r="2.4303">
      <stop id="stop402" style="stop-color:#ffffff;stop-opacity:0" offset="0"/>
      <stop id="stop404" style="stop-color:#ffffff;stop-opacity:.37650" offset=".99220"/>
      <stop id="stop406" style="stop-color:#ffffff;stop-opacity:.37650" offset="1"/>
    </radialGradient>
    <mask id="mask408">
      <g id="g410">
        <g id="g412" clip-path="url(#clipPath396)">
          <path id="path414" style="fill:url(#radialGradient400)" d="m-20.992 0.15814h4.5364v4.4061h-4.5364v-4.4061z" inkscape:connector-curvature="0"/>
        </g>
      </g>
    </mask>
    <radialGradient id="radialGradient418" gradientUnits="userSpaceOnUse" cy="2.4009" cx="-19.938" r="2.4303">
      <stop id="stop420" style="stop-color:#ffffff" offset="0"/>
      <stop id="stop422" style="stop-color:#ffffff" offset="1"/>
    </radialGradient>
    <clipPath id="clipPath430">
      <path id="path432" d="m9 8.88h1v2h-1v-2z" inkscape:connector-curvature="0"/>
    </clipPath>
    <mask id="mask434">
      <g id="g436">
        <g id="g438" clip-path="url(#clipPath430)">
          <path id="path440" style="fill:#000000;fill-opacity:.44140" d="m9 8.88h1v2h-1v-2z" inkscape:connector-curvature="0"/>
        </g>
      </g>
    </mask>
    <clipPath id="clipPath446">
      <path id="path448" d="m9 8.88h1v2h-1v-2z" inkscape:connector-curvature="0"/>
    </clipPath>
    <clipPath id="clipPath450">
      <path id="path452" d="m9 9h1v2h-1v-2z" inkscape:connector-curvature="0"/>
    </clipPath>
    <clipPath id="clipPath474">
      <path id="path476" d="m10.441 9.81c0.379 0 0.7-0.149 0.961-0.45 0.278-0.281 0.418-0.632 0.418-1.05v-0.032c-0.34-0.378-0.808-0.57-1.41-0.57-0.539 0-0.988 0.16-1.348 0.481v0.121c0 0.418 0.129 0.769 0.387 1.05 0.281 0.301 0.613 0.45 0.992 0.45z" inkscape:connector-curvature="0"/>
    </clipPath>
    <clipPath id="clipPath482">
      <path id="path484" d="m-24.045-1.317h6.8008v6.6207h-6.8008v-6.6207z" inkscape:connector-curvature="0"/>
    </clipPath>
    <radialGradient id="radialGradient486" gradientUnits="userSpaceOnUse" cy="1.3906" cx="-22.934" r="4.3059">
      <stop id="stop488" style="stop-color:#ffffff;stop-opacity:0" offset="0"/>
      <stop id="stop490" style="stop-color:#ffffff;stop-opacity:.37650" offset=".99220"/>
      <stop id="stop492" style="stop-color:#ffffff;stop-opacity:.37650" offset="1"/>
    </radialGradient>
    <mask id="mask494">
      <g id="g496">
        <g id="g498" clip-path="url(#clipPath482)">
          <path id="path500" style="fill:url(#radialGradient486)" d="m-24.045-1.317h6.8008v6.6207h-6.8008v-6.6207z" inkscape:connector-curvature="0"/>
        </g>
      </g>
    </mask>
    <radialGradient id="radialGradient504" gradientUnits="userSpaceOnUse" cy="1.3906" cx="-22.934" r="4.3059">
      <stop id="stop506" style="stop-color:#ffffff" offset="0"/>
      <stop id="stop508" style="stop-color:#ffffff" offset="1"/>
    </radialGradient>
    <clipPath id="clipPath516">
      <path id="path518" d="m9 7.88h2v2h-2v-2z" inkscape:connector-curvature="0"/>
    </clipPath>
    <mask id="mask520">
      <g id="g522">
        <g id="g524" clip-path="url(#clipPath516)">
          <path id="path526" style="fill:#000000;fill-opacity:.44140" d="m9 7.88h2v2h-2v-2z" inkscape:connector-curvature="0"/>
        </g>
      </g>
    </mask>
    <clipPath id="clipPath532">
      <path id="path534" d="m9 7.88h2v2h-2v-2z" inkscape:connector-curvature="0"/>
    </clipPath>
    <clipPath id="clipPath536">
      <path id="path538" d="m9 8h2v2h-2v-2z" inkscape:connector-curvature="0"/>
    </clipPath>
    <clipPath id="clipPath560">
      <path id="path562" d="m3.422 10.29c0.301 0 0.558-0.121 0.777-0.359 0.223-0.242 0.332-0.52 0.332-0.84v-0.063c-0.281-0.277-0.66-0.418-1.14-0.418-0.481 0-0.848 0.129-1.11 0.391v0.09c0 0.32 0.11 0.598 0.332 0.84 0.219 0.238 0.489 0.359 0.809 0.359z" inkscape:connector-curvature="0"/>
    </clipPath>
    <clipPath id="clipPath568">
      <path id="path570" d="m-12.914-7.4621h6.8013v6.6138h-6.8013v-6.6138z" inkscape:connector-curvature="0"/>
    </clipPath>
    <radialGradient id="radialGradient572" gradientUnits="userSpaceOnUse" cy="-4.2515" cx="-11.526" r="3.4946">
      <stop id="stop574" style="stop-color:#ffffff;stop-opacity:0" offset="0"/>
      <stop id="stop576" style="stop-color:#ffffff;stop-opacity:.37650" offset=".99220"/>
      <stop id="stop578" style="stop-color:#ffffff;stop-opacity:.37650" offset="1"/>
    </radialGradient>
    <mask id="mask580">
      <g id="g582">
        <g id="g584" clip-path="url(#clipPath568)">
          <path id="path586" style="fill:url(#radialGradient572)" d="m-12.914-7.4621h6.8013v6.6138h-6.8013v-6.6138z" inkscape:connector-curvature="0"/>
        </g>
      </g>
    </mask>
    <radialGradient id="radialGradient590" gradientUnits="userSpaceOnUse" cy="-4.2515" cx="-11.526" r="3.4946">
      <stop id="stop592" style="stop-color:#ffffff" offset="0"/>
      <stop id="stop594" style="stop-color:#ffffff" offset="1"/>
    </radialGradient>
    <clipPath id="clipPath602">
      <path id="path604" d="m2 8.88h2v2h-2v-2z" inkscape:connector-curvature="0"/>
    </clipPath>
    <mask id="mask606">
      <g id="g608">
        <g id="g610" clip-path="url(#clipPath602)">
          <path id="path612" style="fill:#000000;fill-opacity:.44140" d="m2 8.88h2v2h-2v-2z" inkscape:connector-curvature="0"/>
        </g>
      </g>
    </mask>
    <clipPath id="clipPath618">
      <path id="path620" d="m2 8.88h2v2h-2v-2z" inkscape:connector-curvature="0"/>
    </clipPath>
    <clipPath id="clipPath622">
      <path id="path624" d="m2 9h2v2h-2v-2z" inkscape:connector-curvature="0"/>
    </clipPath>
    <clipPath id="clipPath646">
      <path id="path648" d="m21.512 8.458c0.32 0 0.59-0.117 0.808-0.359 0.219-0.239 0.332-0.52 0.332-0.84v-0.059c-0.281-0.281-0.66-0.422-1.14-0.422-0.481 0-0.852 0.133-1.11 0.391v0.09c0 0.32 0.11 0.601 0.328 0.84 0.219 0.242 0.481 0.359 0.782 0.359z" inkscape:connector-curvature="0"/>
    </clipPath>
    <clipPath id="clipPath654">
      <path id="path656" d="m-41.085 7.2694h6.8013v6.6138h-6.8013v-6.6138z" inkscape:connector-curvature="0"/>
    </clipPath>
    <radialGradient id="radialGradient658" gradientUnits="userSpaceOnUse" cy="10.11" cx="-39.717" r="3.4946">
      <stop id="stop660" style="stop-color:#ffffff;stop-opacity:0" offset="0"/>
      <stop id="stop662" style="stop-color:#ffffff;stop-opacity:.37650" offset=".99220"/>
      <stop id="stop664" style="stop-color:#ffffff;stop-opacity:.37650" offset="1"/>
    </radialGradient>
    <mask id="mask666">
      <g id="g668">
        <g id="g670" clip-path="url(#clipPath654)">
          <path id="path672" style="fill:url(#radialGradient658)" d="m-41.085 7.2694h6.8013v6.6138h-6.8013v-6.6138z" inkscape:connector-curvature="0"/>
        </g>
      </g>
    </mask>
    <radialGradient id="radialGradient676" gradientUnits="userSpaceOnUse" cy="10.11" cx="-39.717" r="3.4946">
      <stop id="stop678" style="stop-color:#ffffff" offset="0"/>
      <stop id="stop680" style="stop-color:#ffffff" offset="1"/>
    </radialGradient>
    <clipPath id="clipPath688">
      <path id="path690" d="m20 6.88h2v2h-2v-2z" inkscape:connector-curvature="0"/>
    </clipPath>
    <mask id="mask692">
      <g id="g694">
        <g id="g696" clip-path="url(#clipPath688)">
          <path id="path698" style="fill:#000000;fill-opacity:.44140" d="m20 6.88h2v2h-2v-2z" inkscape:connector-curvature="0"/>
        </g>
      </g>
    </mask>
    <clipPath id="clipPath704">
      <path id="path706" d="m20 6.88h2v2h-2v-2z" inkscape:connector-curvature="0"/>
    </clipPath>
    <clipPath id="clipPath708">
      <path id="path710" d="m20 7h2v2h-2v-2z" inkscape:connector-curvature="0"/>
    </clipPath>
    <clipPath id="clipPath732">
      <path id="path734" d="m19.652 11.821c0.36 0 0.668-0.14 0.93-0.421 0.238-0.258 0.359-0.59 0.359-0.989v-0.031c-0.3-0.34-0.742-0.508-1.32-0.508-0.539 0-0.961 0.149-1.262 0.449v0.09c0 0.399 0.133 0.731 0.391 0.989 0.242 0.281 0.543 0.421 0.902 0.421z" inkscape:connector-curvature="0"/>
    </clipPath>
    <clipPath id="clipPath740">
      <path id="path742" d="m-35.743 10.391h6.8031v6.6119h-6.8031v-6.6119z" inkscape:connector-curvature="0"/>
    </clipPath>
    <radialGradient id="radialGradient744" gradientUnits="userSpaceOnUse" cy="12.817" cx="-34.704" r="4.0355">
      <stop id="stop746" style="stop-color:#ffffff;stop-opacity:0" offset="0"/>
      <stop id="stop748" style="stop-color:#ffffff;stop-opacity:.37650" offset=".99220"/>
      <stop id="stop750" style="stop-color:#ffffff;stop-opacity:.37650" offset="1"/>
    </radialGradient>
    <mask id="mask752">
      <g id="g754">
        <g id="g756" clip-path="url(#clipPath740)">
          <path id="path758" style="fill:url(#radialGradient744)" d="m-35.743 10.391h6.8031v6.6119h-6.8031v-6.6119z" inkscape:connector-curvature="0"/>
        </g>
      </g>
    </mask>
    <radialGradient id="radialGradient762" gradientUnits="userSpaceOnUse" cy="12.817" cx="-34.704" r="4.0355">
      <stop id="stop764" style="stop-color:#ffffff" offset="0"/>
      <stop id="stop766" style="stop-color:#ffffff" offset="1"/>
    </radialGradient>
    <clipPath id="clipPath774">
      <path id="path776" d="m18 9.88h2v2h-2v-2z" inkscape:connector-curvature="0"/>
    </clipPath>
    <mask id="mask778">
      <g id="g780">
        <g id="g782" clip-path="url(#clipPath774)">
          <path id="path784" style="fill:#000000;fill-opacity:.44140" d="m18 9.88h2v2h-2v-2z" inkscape:connector-curvature="0"/>
        </g>
      </g>
    </mask>
    <clipPath id="clipPath790">
      <path id="path792" d="m18 9.88h2v2h-2v-2z" inkscape:connector-curvature="0"/>
    </clipPath>
    <clipPath id="clipPath794">
      <path id="path796" d="m18 10h2v2h-2v-2z" inkscape:connector-curvature="0"/>
    </clipPath>
  </defs>
  <g id="g10" transform="matrix(1.25,0,0,-1.25,0,18.6)">
    <g id="g12">
      <path id="path14" style="fill-rule:evenodd;fill:#d9d9d9" d="m27.633 8.521h0.117c-0.781-2.481-2.43-4.512-4.949-6.09-2.578-1.621-5.52-2.43-8.821-2.43-3.32 0-6.269 0.82-8.851 2.457-2.559 1.621-4.199 3.684-4.918 6.184l0.211-0.032c0.797-0.601 2.449-1.101 4.949-1.5 2.559-0.398 5.469-0.601 8.731-0.601 3.179 0 6.019 0.191 8.519 0.57 2.481 0.36 4.149 0.84 5.012 1.442z" inkscape:connector-curvature="0"/>
      <g id="g16">
        <g id="g32" mask="url(#mask24)">
          <g id="g54">
            <g id="g56" clip-path="url(#clipPath36)">
              <g id="g58" transform="translate(0 -.12)">
                <g id="g62">
                  <g id="g64" clip-path="url(#clipPath40)">
                    <g id="g66">
                      <g id="g68">
                        <g id="g70">
                          <g id="g72">
                            <path id="path74" style="fill-rule:evenodd;fill:url(#linearGradient48)" d="m17.301 6.738-1.918-6.539-1.41-0.058c-0.543 0-1.102 0.031-1.684 0.089-0.656 0.122-1.398 0.321-2.219 0.598-0.859 0.32-1.578 0.672-2.16 1.051-1.84 1.199-3.258 2.539-4.258 4.019-0.5 0.743-0.812 1.364-0.929 1.864l1.589-0.332c2.739-0.52 6-0.782 9.778-0.782 1.121 0 2.191 0.032 3.211 0.09z" inkscape:connector-curvature="0"/>
                          </g>
                        </g>
                      </g>
                    </g>
                  </g>
                </g>
              </g>
            </g>
          </g>
        </g>
      </g>
      <g id="g76">
        <g id="g92" mask="url(#mask84)">
          <g id="g104">
            <g id="g106" clip-path="url(#clipPath96)">
              <g id="g108" transform="translate(0 -.12)">
                <g id="g112">
                  <g id="g114" clip-path="url(#clipPath100)">
                    <g id="g116">
                      <path id="path118" style="fill-rule:evenodd;fill:#595959" d="m22.289 7.219c1.801 0.242 3.211 0.543 4.231 0.902-0.18-0.543-0.469-1.121-0.868-1.742-0.761-1.18-1.922-2.379-3.48-3.598-1.242-0.961-2.762-1.711-4.563-2.25l-1.41-0.242c2.383 0.859 4.082 2.109 5.102 3.75 0.461 0.742 0.75 1.422 0.871 2.039 0.078 0.344 0.117 0.723 0.117 1.141z" inkscape:connector-curvature="0"/>
                    </g>
                  </g>
                </g>
              </g>
            </g>
          </g>
        </g>
      </g>
      <g id="g120">
        <g id="g136" mask="url(#mask128)">
          <g id="g148">
            <g id="g150" clip-path="url(#clipPath140)">
              <g id="g152" transform="translate(0 -.12)">
                <g id="g156">
                  <g id="g158" clip-path="url(#clipPath144)">
                    <g id="g160">
                      <path id="path162" style="fill-rule:evenodd;fill:#595959" d="m7.852 1.23c-1.922 0.719-3.551 1.739-4.891 3.059-1.359 1.32-2.281 2.813-2.762 4.473l0.211-0.032 0.449-0.3c0.364-1 0.883-1.969 1.563-2.91 1.398-1.961 3.207-3.391 5.43-4.29z" inkscape:connector-curvature="0"/>
                    </g>
                  </g>
                </g>
              </g>
            </g>
          </g>
        </g>
      </g>
      <g id="g164">
        <g id="g166">
          <g id="g172">
            <path id="path180" style="fill-rule:evenodd;fill:url(#linearGradient174)" d="m23.641 13.321c2.66-1 3.988-2.203 3.988-3.601 0-1.418-1.328-2.621-3.988-3.602-2.641-1-5.84-1.5-9.602-1.5-3.738 0-6.937 0.5-9.598 1.5-2.64 0.981-3.961 2.184-3.961 3.602 0 1.398 1.321 2.601 3.961 3.601 2.661 1 5.86 1.5 9.598 1.5 3.762 0 6.961-0.5 9.602-1.5z" inkscape:connector-curvature="0"/>
          </g>
        </g>
      </g>
      <path id="path182" style="fill-rule:evenodd;fill:#f5f5f5" d="m28.02 10.11h-0.899c-0.18 1.239-1.519 2.282-4.019 3.118-2.52 0.863-5.52 1.293-9 1.293-3.481 0-6.469-0.43-8.969-1.293-2.524-0.84-3.871-1.879-4.051-3.118h-1.02c0.317 1.34 1.809 2.469 4.469 3.391 2.68 0.918 5.848 1.379 9.508 1.379s6.832-0.461 9.512-1.379c2.66-0.922 4.148-2.051 4.469-3.391z" inkscape:connector-curvature="0"/>
      <g id="g184">
        <g id="g186">
          <g id="g192">
            <path id="path200" style="fill-rule:evenodd;fill:url(#linearGradient194)" d="m26.371 8.251c-0.418-0.66-1.781-1.391-4.082-2.191-2.457-0.86-4.637-1.289-6.539-1.289-2.582 0-5.191 0.23-7.828 0.687-3.344 0.582-5.621 1.391-6.844 2.43-0.316 0.281 0.043 0.922 1.082 1.922 1.121 1.058 2.36 1.808 3.719 2.25 3.699 1.199 6.781 1.672 9.242 1.41 1.981-0.199 3.508-0.399 4.59-0.598 1.84-0.32 3.211-0.73 4.109-1.23 1.141-0.66 1.91-1.211 2.309-1.653 0.523-0.601 0.601-1.179 0.242-1.738z" inkscape:connector-curvature="0"/>
          </g>
        </g>
      </g>
      <g id="g202">
        <g id="g218" mask="url(#mask210)">
          <g id="g230">
            <g id="g232" clip-path="url(#clipPath222)">
              <g id="g234" transform="translate(0 -.12)">
                <g id="g238">
                  <g id="g240" clip-path="url(#clipPath226)">
                    <g id="g242">
                      <path id="path244" style="fill-rule:evenodd;fill:#000000" d="m26.102 10.141c0.519-0.602 0.597-1.18 0.238-1.743-0.258-0.418-1-0.898-2.219-1.437l0.27 0.18c1.101 0.66 1.421 1.379 0.961 2.16-0.161 0.258-0.629 0.699-1.411 1.32-0.218 0.16-0.609 0.348-1.171 0.57-0.7 0.278-1.188 0.489-1.469 0.629-0.442 0.239-1.098 0.391-1.981 0.45-0.359 0.019-1.14 0.031-2.34 0.031-0.46 0-1.328 0.097-2.609 0.301-1.141 0.179-1.879 0.238-2.219 0.179-0.48-0.062-1-0.191-1.562-0.39-0.481-0.18-0.848-0.352-1.11-0.512-0.101-0.059-0.89-0.277-2.371-0.66-1.48-0.379-2.449-0.707-2.91-0.989-0.457-0.281-0.828-0.769-1.109-1.468-0.219-0.602-0.328-1.184-0.328-1.742-0.723 0.339-1.289 0.679-1.711 1.019-0.321 0.281 0.039 0.922 1.082 1.922 1.117 1.059 2.359 1.809 3.719 2.25 3.699 1.199 6.781 1.668 9.238 1.41 4.422-0.461 7.32-1.07 8.699-1.832 1.141-0.66 1.91-1.211 2.313-1.648z" inkscape:connector-curvature="0"/>
                    </g>
                  </g>
                </g>
              </g>
            </g>
          </g>
        </g>
      </g>
      <path id="path246" style="fill-rule:evenodd;fill:#6b3207" d="m4.5 11.13 0.062 1.59 0.418 0.18c0.321 0.082 0.602 0.039 0.84-0.122 0.7-0.476 1.2-0.976 1.5-1.5 0.321-0.519 0.539-0.937 0.66-1.257-0.418-0.52-0.73-0.731-0.929-0.629l-1.11 0.597-1.441 1.141z" inkscape:connector-curvature="0"/>
      <path id="path248" style="fill-rule:evenodd;fill:#6b3207" d="m12.602 13.2-0.032 1.231 0.332 0.058c0.258 0.02 0.477-0.031 0.66-0.148l0.481-0.27 0.777-0.902c-0.14-0.461-0.25-0.68-0.328-0.66l-1.89 0.691z" inkscape:connector-curvature="0"/>
      <path id="path250" style="fill-rule:evenodd;fill:#803c08" d="m21.871 12.118c0-0.058-0.031-0.207-0.09-0.449-0.058-0.32-0.472-0.519-1.23-0.598-0.379-0.043-0.699 0.039-0.961 0.239-0.219 0.16-0.367 0.359-0.449 0.601l-0.149 0.809 0.481 0.09 1.047-0.09c0.703-0.082 1.101-0.16 1.203-0.242 0.097-0.098 0.148-0.219 0.148-0.36z" inkscape:connector-curvature="0"/>
      <path id="path252" style="fill-rule:evenodd;fill:#803c08" d="m21.332 7.982-0.301 0.089-0.48 0.45 0.179 0.359c0.161 0.281 0.352 0.551 0.571 0.809 0.242 0.32 0.519 0.543 0.84 0.66 0.32 0.16 0.601 0.172 0.839 0.031 0.34-0.18 0.602-0.531 0.782-1.051l-2.43-1.347z" inkscape:connector-curvature="0"/>
      <path id="path254" style="fill-rule:evenodd;fill:#803c08" d="m14.969 10.021 2.672 0.148v-0.75c-0.418-0.281-0.918-0.418-1.5-0.418-0.379 0-0.688 0.07-0.93 0.211l-0.242 0.207v0.602z" inkscape:connector-curvature="0"/>
      <path id="path256" style="fill-rule:evenodd;fill:#803c08" d="m12.422 7.739 0.148 0.93 0.36 0.121c0.3 0.059 0.621 0.051 0.961-0.031 0.48-0.098 0.851-0.399 1.109-0.899l0.09-0.121c-0.258-0.578-0.457-0.867-0.598-0.867l-1.113 0.238-0.957 0.629z" inkscape:connector-curvature="0"/>
      <path id="path258" style="fill-rule:evenodd;fill:#6b3207" d="m7.531 6.958-0.48 0.813 0.39 0.179c0.321 0.102 0.571 0.129 0.75 0.09 0.442-0.101 0.762-0.281 0.961-0.539l0.27-0.332c-0.281-0.559-0.492-0.82-0.633-0.781l-1.258 0.57z" inkscape:connector-curvature="0"/>
      <path id="path260" style="fill-rule:evenodd;fill:#b56126" d="m3.332 10.079c-0.062 0.981 0.098 1.703 0.48 2.16 0.618 0.782 1.34 0.672 2.161-0.328 0.558-0.699 0.918-1.539 1.078-2.519-0.559-0.063-1.199-0.032-1.918 0.09-0.383 0.058-0.801 0.179-1.262 0.359l-0.539 0.238z" inkscape:connector-curvature="0"/>
      <path id="path262" style="fill-rule:evenodd;fill:#b56126" d="m14.07 13.29c0.082-0.082 0.219-0.34 0.422-0.781-0.222-0.121-0.582-0.188-1.082-0.211-0.301-0.02-0.672-0.008-1.109 0.031l-0.602 0.059c-0.019 0.121-0.019 0.281 0 0.48 0.02 0.403 0.141 0.77 0.36 1.11 0.242 0.382 0.531 0.492 0.871 0.332 0.261-0.121 0.64-0.461 1.14-1.02z" inkscape:connector-curvature="0"/>
      <path id="path264" style="fill-rule:evenodd;fill:#b56126" d="m12.84 8.728c0.722 0.043 1.211-0.258 1.469-0.899 0.14-0.32 0.203-0.64 0.183-0.957-0.203-0.101-0.64-0.152-1.32-0.152-0.422 0-0.75 0.07-0.992 0.211l-0.239 0.238c0.02 0.262 0.071 0.52 0.153 0.781 0.156 0.5 0.406 0.762 0.746 0.778z" inkscape:connector-curvature="0"/>
      <path id="path266" style="fill-rule:evenodd;fill:#b56126" d="m16.172 10.771c0.519 0.019 0.93-0.071 1.23-0.27 0.317-0.18 0.368-0.383 0.149-0.601-0.219-0.219-0.559-0.368-1.02-0.45-0.48-0.082-0.91-0.031-1.289 0.149-0.383 0.16-0.422 0.39-0.121 0.691s0.649 0.461 1.051 0.481z" inkscape:connector-curvature="0"/>
      <path id="path268" style="fill-rule:evenodd;fill:#b56126" d="m20.43 13.259c0.863-0.258 1.32-0.578 1.382-0.957 0.059-0.344-0.191-0.59-0.75-0.754-0.441-0.137-0.851-0.09-1.23 0.152-0.199 0.141-0.441 0.371-0.723 0.688-0.179 0.242-0.136 0.472 0.121 0.691 0.262 0.262 0.661 0.321 1.2 0.18z" inkscape:connector-curvature="0"/>
      <path id="path270" style="fill-rule:evenodd;fill:#b56126" d="m23.371 10.079c0.438-0.14 0.649-0.679 0.629-1.617-0.18-0.141-0.57-0.301-1.168-0.48-0.363-0.102-0.773-0.122-1.23-0.063l-0.571 0.152 0.301 0.782c0.18 0.437 0.438 0.777 0.777 1.019 0.403 0.297 0.821 0.367 1.262 0.207z" inkscape:connector-curvature="0"/>
      <path id="path272" style="fill-rule:evenodd;fill:#b56126" d="m8.492 7.501c0.52-0.601 0.617-0.969 0.297-1.113-0.199-0.117-0.527-0.137-0.988-0.059-0.422 0.059-0.668 0.141-0.75 0.242-0.039 0.039-0.059 0.09-0.059 0.149 0.039 0.16 0.059 0.383 0.059 0.66 0 0.359 0.199 0.512 0.601 0.449 0.278-0.039 0.559-0.148 0.84-0.328z" inkscape:connector-curvature="0"/>
      <path id="path274" style="fill-rule:evenodd;fill:#c48137" d="m6.359 8.341c0.18 0 0.243-0.152 0.18-0.453l-0.387-0.149c-0.222-0.121-0.39-0.199-0.511-0.238-0.18-0.062-0.391-0.082-0.629-0.062-0.219 0.019-0.461 0.082-0.719 0.179l-0.301 0.153v0.601l2.367-0.031z" inkscape:connector-curvature="0"/>
      <path id="path276" style="fill-rule:evenodd;fill:#c48137" d="m10.23 11.372 0.692 0.059c0.48 0.039 0.789 0.051 0.93 0.027 0.238-0.019 0.339-0.117 0.3-0.297l-0.09-0.273c-0.039-0.098-0.109-0.156-0.21-0.18-0.141 0-0.25-0.008-0.332-0.027-0.098-0.02-0.579-0.27-1.438-0.754-0.18-0.098-0.402-0.098-0.66 0-0.199 0.062-0.34 0.152-0.422 0.273l-0.121 0.481 1.351 0.691z" inkscape:connector-curvature="0"/>
      <path id="path278" style="fill-rule:evenodd;fill:#c48137" d="m17.852 11.849 0.718-0.028c0.2-0.062 0.301-0.242 0.301-0.543 0-0.078-0.25-0.117-0.75-0.117l-1.172 0.059c-0.078 0-0.129 0.07-0.148 0.211l0.027 0.211 1.024 0.207z" inkscape:connector-curvature="0"/>
      <path id="path280" style="fill-rule:evenodd;fill:#c48137" d="m24.902 10.982c0.297-0.223 0.348-0.301 0.149-0.243l-0.629-0.328c-0.36-0.16-0.813-0.082-1.352 0.239-0.16 0.082-0.261 0.222-0.3 0.421v0.27l0.781-0.18 0.511 0.028c0.36 0 0.637-0.071 0.84-0.207z" inkscape:connector-curvature="0"/>
      <path id="path282" style="fill-rule:evenodd;fill:#c48137" d="m13.172 6.509c0.019-0.059 0.008-0.149-0.031-0.27 0-0.058-0.071-0.117-0.211-0.179l-0.508-0.211c-0.344-0.16-0.77-0.129-1.293 0.09-0.18 0.082-0.277 0.261-0.297 0.539l0.027 0.422 1.262 0.089c0.258 0.02 0.5-0.019 0.719-0.121 0.222-0.117 0.332-0.238 0.332-0.359z" inkscape:connector-curvature="0"/>
      <path id="path284" style="fill-rule:evenodd;fill:#c48137" d="m19.23 8.161c0.102 0 0.192-0.07 0.27-0.211 0.082-0.121 0.121-0.25 0.121-0.39 0-0.219-0.301-0.399-0.898-0.539-0.602-0.121-1.02-0.133-1.262-0.032-0.121 0.039-0.211 0.161-0.27 0.36l-0.089 0.301 0.3 0.089c0.258 0.059 0.481 0.09 0.66 0.09l1.168 0.332z" inkscape:connector-curvature="0"/>
      <g id="g286">
        <g id="g288" clip-path="url(#clipPath290)">
          <g id="g294" transform="matrix(-.4972 .33576 -.2992 -.55752 4.6736 23.587)">
            <g id="g318" mask="url(#mask310)">
              <path id="path326" style="fill-rule:evenodd;fill:url(#radialGradient320)" d="m13.832 12.06c0.32 0 0.59-0.121 0.809-0.36 0.218-0.242 0.332-0.519 0.332-0.84v-0.031c-0.262-0.301-0.641-0.449-1.141-0.449-0.48 0-0.852 0.129-1.109 0.391v0.089c0 0.321 0.109 0.598 0.328 0.84 0.219 0.239 0.48 0.36 0.781 0.36z" inkscape:connector-curvature="0"/>
            </g>
          </g>
        </g>
      </g>
      <g id="g328">
        <g id="g344" mask="url(#mask336)">
          <g id="g356">
            <g id="g358" clip-path="url(#clipPath348)">
              <g id="g360" transform="translate(0 -.12)">
                <g id="g364">
                  <g id="g366" clip-path="url(#clipPath352)">
                    <g id="g368">
                      <path id="path370" style="fill-rule:evenodd;fill:#ffffff" d="m13.621 11.859c0.18-0.121 0.16-0.289-0.059-0.507-0.222-0.204-0.371-0.223-0.453-0.063-0.078 0.16-0.047 0.32 0.09 0.481 0.141 0.16 0.281 0.191 0.422 0.089z" inkscape:connector-curvature="0"/>
                    </g>
                  </g>
                </g>
              </g>
            </g>
          </g>
        </g>
      </g>
      <path id="path372" style="fill-rule:evenodd;fill:#eda758" d="m11.281 11.821c0.461-0.121 0.699-0.273 0.719-0.453 0.02-0.097-0.008-0.179-0.09-0.238l-0.39-0.09c-0.098-0.019-0.379-0.16-0.84-0.418-0.418-0.242-0.711-0.363-0.868-0.363-0.203 0-0.41 0.07-0.632 0.211l-0.301 0.211 0.183 0.238c0.137 0.184 0.29 0.332 0.45 0.453 0.597 0.457 1.187 0.61 1.769 0.449z" inkscape:connector-curvature="0"/>
      <path id="path374" style="fill-rule:evenodd;fill:#eda758" d="m18.453 8.251c0.637 0.02 0.977-0.101 1.016-0.363 0.043-0.219-0.098-0.387-0.418-0.508-0.219-0.082-0.489-0.129-0.809-0.152l-0.449-0.028c-0.441 0.102-0.672 0.25-0.691 0.45-0.02 0.121 0.199 0.261 0.66 0.421 0.238 0.059 0.468 0.118 0.691 0.18z" inkscape:connector-curvature="0"/>
      <path id="path376" style="fill-rule:evenodd;fill:#eda758" d="m5.16 8.728c0.16 0 0.442-0.067 0.84-0.207 0.441-0.161 0.609-0.282 0.512-0.36-0.121-0.121-0.301-0.23-0.539-0.332-0.321-0.14-0.602-0.187-0.84-0.148-0.281 0.039-0.563 0.148-0.84 0.328-0.301 0.18-0.402 0.301-0.301 0.359 0.278 0.242 0.668 0.36 1.168 0.36z" inkscape:connector-curvature="0"/>
      <path id="path378" style="fill-rule:evenodd;fill:#eda758" d="m17.91 12.212c0.281-0.043 0.52-0.133 0.719-0.273 0.16-0.118 0.23-0.219 0.211-0.297-0.02-0.082-0.348-0.121-0.988-0.121-0.321 0-0.59 0.019-0.813 0.058l-0.207 0.063 0.238 0.328c0.239 0.199 0.52 0.281 0.84 0.242z" inkscape:connector-curvature="0"/>
      <path id="path380" style="fill-rule:evenodd;fill:#eda758" d="m24.539 11.458c0.34-0.117 0.461-0.277 0.363-0.48-0.261-0.137-0.441-0.219-0.543-0.239-0.078-0.039-0.281-0.031-0.597 0.032-0.34 0.058-0.582 0.148-0.723 0.269-0.18 0.117-0.258 0.219-0.238 0.301 0.039 0.098 0.187 0.16 0.449 0.18l0.453 0.027c0.336 0.023 0.617-0.008 0.836-0.09z" inkscape:connector-curvature="0"/>
      <path id="path382" style="fill-rule:evenodd;fill:#eda758" d="m13.082 6.571c-0.082-0.121-0.301-0.222-0.66-0.3-0.422-0.121-0.789-0.129-1.11-0.032-0.281 0.121-0.441 0.262-0.48 0.422l0.031 0.239 0.477 0.21c0.363 0.141 0.613 0.2 0.754 0.18 0.238-0.019 0.488-0.101 0.75-0.238 0.297-0.164 0.379-0.324 0.238-0.481z" inkscape:connector-curvature="0"/>
      <g id="g384">
        <g id="g386" clip-path="url(#clipPath388)">
          <g id="g392" transform="matrix(-.49688 .3364 -.29936 -.55856 1.4033 17.498)">
            <g id="g416" mask="url(#mask408)">
              <path id="path424" style="fill-rule:evenodd;fill:url(#radialGradient418)" d="m9.812 10.501c0.219 0 0.399-0.082 0.54-0.242 0.16-0.16 0.238-0.359 0.238-0.598v-0.031c-0.199-0.199-0.457-0.301-0.778-0.301-0.3 0-0.562 0.09-0.781 0.27v0.062c0 0.239 0.078 0.438 0.239 0.598 0.14 0.16 0.32 0.242 0.542 0.242z" inkscape:connector-curvature="0"/>
            </g>
          </g>
        </g>
      </g>
      <g id="g426">
        <g id="g442" mask="url(#mask434)">
          <g id="g454">
            <g id="g456" clip-path="url(#clipPath446)">
              <g id="g458" transform="translate(0 -.12)">
                <g id="g462">
                  <g id="g464" clip-path="url(#clipPath450)">
                    <g id="g466">
                      <path id="path468" style="fill-rule:evenodd;fill:#ffffff" d="m9.672 10.379c0.117-0.078 0.109-0.188-0.031-0.328-0.161-0.16-0.27-0.18-0.329-0.063-0.062 0.102-0.042 0.211 0.059 0.332 0.102 0.121 0.199 0.141 0.301 0.059z" inkscape:connector-curvature="0"/>
                    </g>
                  </g>
                </g>
              </g>
            </g>
          </g>
        </g>
      </g>
      <g id="g470">
        <g id="g472" clip-path="url(#clipPath474)">
          <g id="g478" transform="matrix(-.49816 .3344 -.29784 -.55736 .8096 16.394)">
            <g id="g502" mask="url(#mask494)">
              <path id="path510" style="fill-rule:evenodd;fill:url(#radialGradient504)" d="m10.441 9.81c0.379 0 0.7-0.149 0.961-0.45 0.278-0.281 0.418-0.632 0.418-1.05v-0.032c-0.34-0.378-0.808-0.57-1.41-0.57-0.539 0-0.988 0.16-1.348 0.481v0.121c0 0.418 0.129 0.769 0.387 1.05 0.281 0.301 0.613 0.45 0.992 0.45z" inkscape:connector-curvature="0"/>
            </g>
          </g>
        </g>
      </g>
      <g id="g512">
        <g id="g528" mask="url(#mask520)">
          <g id="g540">
            <g id="g542" clip-path="url(#clipPath532)">
              <g id="g544" transform="translate(0 -.12)">
                <g id="g548">
                  <g id="g550" clip-path="url(#clipPath536)">
                    <g id="g552">
                      <path id="path554" style="fill-rule:evenodd;fill:#ffffff" d="m10.18 9.539c0.199-0.16 0.172-0.371-0.09-0.629-0.238-0.262-0.418-0.289-0.539-0.09-0.102 0.2-0.059 0.399 0.121 0.602 0.16 0.219 0.328 0.258 0.508 0.117z" inkscape:connector-curvature="0"/>
                    </g>
                  </g>
                </g>
              </g>
            </g>
          </g>
        </g>
      </g>
      <g id="g556">
        <g id="g558" clip-path="url(#clipPath560)">
          <g id="g564" transform="matrix(-.49792 .3348 -.29832 -.558 -2.4763 10.246)">
            <g id="g588" mask="url(#mask580)">
              <path id="path596" style="fill-rule:evenodd;fill:url(#radialGradient590)" d="m3.422 10.29c0.301 0 0.558-0.121 0.777-0.359 0.223-0.242 0.332-0.52 0.332-0.84v-0.063c-0.281-0.277-0.66-0.418-1.14-0.418-0.481 0-0.848 0.129-1.11 0.391v0.09c0 0.32 0.11 0.598 0.332 0.84 0.219 0.238 0.489 0.359 0.809 0.359z" inkscape:connector-curvature="0"/>
            </g>
          </g>
        </g>
      </g>
      <g id="g598">
        <g id="g614" mask="url(#mask606)">
          <g id="g626">
            <g id="g628" clip-path="url(#clipPath618)">
              <g id="g630" transform="translate(0 -.12)">
                <g id="g634">
                  <g id="g636" clip-path="url(#clipPath622)">
                    <g id="g638">
                      <path id="path640" style="fill-rule:evenodd;fill:#ffffff" d="m3.18 10.059c0.179-0.118 0.16-0.278-0.059-0.481-0.199-0.199-0.351-0.219-0.449-0.058-0.082 0.16-0.051 0.32 0.09 0.48 0.14 0.16 0.281 0.18 0.418 0.059z" inkscape:connector-curvature="0"/>
                    </g>
                  </g>
                </g>
              </g>
            </g>
          </g>
        </g>
      </g>
      <g id="g642">
        <g id="g644" clip-path="url(#clipPath646)">
          <g id="g650" transform="matrix(-.49792 .3348 -.29832 -.558 5.8912 25.898)">
            <g id="g674" mask="url(#mask666)">
              <path id="path682" style="fill-rule:evenodd;fill:url(#radialGradient676)" d="m21.512 8.458c0.32 0 0.59-0.117 0.808-0.359 0.219-0.239 0.332-0.52 0.332-0.84v-0.059c-0.281-0.281-0.66-0.422-1.14-0.422-0.481 0-0.852 0.133-1.11 0.391v0.09c0 0.32 0.11 0.601 0.328 0.84 0.219 0.242 0.481 0.359 0.782 0.359z" inkscape:connector-curvature="0"/>
            </g>
          </g>
        </g>
      </g>
      <g id="g684">
        <g id="g700" mask="url(#mask692)">
          <g id="g712">
            <g id="g714" clip-path="url(#clipPath704)">
              <g id="g716" transform="translate(0 -.12)">
                <g id="g720">
                  <g id="g722" clip-path="url(#clipPath708)">
                    <g id="g724">
                      <path id="path726" style="fill-rule:evenodd;fill:#ffffff" d="m21.301 8.262c0.16-0.141 0.14-0.313-0.063-0.512-0.218-0.199-0.367-0.219-0.449-0.059-0.078 0.161-0.047 0.321 0.09 0.481 0.141 0.16 0.281 0.187 0.422 0.09z" inkscape:connector-curvature="0"/>
                    </g>
                  </g>
                </g>
              </g>
            </g>
          </g>
        </g>
      </g>
      <g id="g728">
        <g id="g730" clip-path="url(#clipPath732)">
          <g id="g736" transform="matrix(-.49808 .33456 -.2992 -.55752 7.4896 28.836)">
            <g id="g760" mask="url(#mask752)">
              <path id="path768" style="fill-rule:evenodd;fill:url(#radialGradient762)" d="m19.652 11.821c0.36 0 0.668-0.14 0.93-0.421 0.238-0.258 0.359-0.59 0.359-0.989v-0.031c-0.3-0.34-0.742-0.508-1.32-0.508-0.539 0-0.961 0.149-1.262 0.449v0.09c0 0.399 0.133 0.731 0.391 0.989 0.242 0.281 0.543 0.421 0.902 0.421z" inkscape:connector-curvature="0"/>
            </g>
          </g>
        </g>
      </g>
      <g id="g770">
        <g id="g786" mask="url(#mask778)">
          <g id="g798">
            <g id="g800" clip-path="url(#clipPath790)">
              <g id="g802" transform="translate(0 -.12)">
                <g id="g806">
                  <g id="g808" clip-path="url(#clipPath794)">
                    <g id="g810">
                      <path id="path812" style="fill-rule:evenodd;fill:#ffffff" d="m19.43 11.578c0.179-0.137 0.152-0.328-0.09-0.566-0.238-0.242-0.41-0.274-0.508-0.09-0.102 0.18-0.07 0.359 0.09 0.539 0.16 0.199 0.328 0.238 0.508 0.117z" inkscape:connector-curvature="0"/>
                    </g>
                  </g>
                </g>
              </g>
            </g>
          </g>
        </g>
      </g>
      <path id="path814" style="fill-rule:evenodd;fill:#f5f5f5" d="m27.121 10.11h0.899c0.042-0.101 0.062-0.261 0.062-0.48 0-1.441-1.371-2.68-4.113-3.719-2.739-1.019-6.047-1.531-9.93-1.531-3.879 0-7.187 0.512-9.93 1.531-2.738 1.039-4.109 2.278-4.109 3.719l0.059 0.48h1.023l-0.031-0.238c0-1.301 1.281-2.414 3.84-3.332 2.539-0.898 5.609-1.351 9.211-1.351 3.597 0 6.679 0.453 9.238 1.351 2.539 0.918 3.812 2.031 3.812 3.332l-0.031 0.238z" inkscape:connector-curvature="0"/>
    </g>
  </g>
<metadata><rdf:RDF><cc:Work><dc:format>image/svg+xml</dc:format><dc:type rdf:resource="http://purl.org/dc/dcmitype/StillImage"/><cc:license rdf:resource="http://creativecommons.org/licenses/publicdomain/"/><dc:publisher><cc:Agent rdf:about="http://openclipart.org/"><dc:title>Openclipart</dc:title></cc:Agent></dc:publisher></cc:Work><cc:License rdf:about="http://creativecommons.org/licenses/publicdomain/"><cc:permits rdf:resource="http://creativecommons.org/ns#Reproduction"/><cc:permits rdf:resource="http://creativecommons.org/ns#Distribution"/><cc:permits rdf:resource="http://creativecommons.org/ns#DerivativeWorks"/></cc:License></rdf:RDF></metadata></svg>
