<?xml version="1.0" encoding="UTF-8"?>
<!DOCTYPE svg  PUBLIC '-//W3C//DTD SVG 1.1//EN'  'http://www.w3.org/Graphics/SVG/1.1/DTD/svg11.dtd'>
<svg enable-background="new 0 0 72.75 37.35" version="1.1" viewBox="0 0 72.75 37.35" xml:space="preserve" xmlns="http://www.w3.org/2000/svg" xmlns:xlink="http://www.w3.org/1999/xlink">
<symbol id="c" viewBox="-0.003 -0.012 75.26 48.009">
	<g clip-rule="evenodd" fill-rule="evenodd">
		<path d="m62.479 20.602c0.122 0.457 0.362 1.078 0.72 1.864 0.28 0.74 0.356 1.3 0.229 1.676-0.121 0.522-0.994 1.621-2.617 3.297-0.17 0.159-0.337 0.326-0.502 0.502-1.576 1.548-3.279 3.049-5.11 4.502-0.313 0.23-0.606 0.448-0.877 0.651 0.034 7e-3 0.08-5e-3 0.137-0.037 1.836-0.884 2.885-1.507 3.146-1.871 0.202-0.282 0.771-0.777 1.708-1.485 0.747-0.56 1.384-1.016 1.91-1.368 0.186-0.099 0.399-0.214 0.643-0.344 0.14-0.086 0.305-0.171 0.494-0.255 0.262-0.119 0.665-0.292 1.208-0.52 0.417-0.209 0.773-0.402 1.068-0.58 0.337-0.204 0.587-0.427 0.752-0.666 0.406-0.615 0.742-1.097 1.008-1.445 0.53-0.763 1.04-1.389 1.529-1.878 0.475-0.421 1.344-1.258 2.607-2.511 1.045-1.096 1.596-1.839 1.655-2.23 0.023-0.218-0.014-0.478-0.111-0.778-0.056-0.148-0.146-0.361-0.269-0.638-8e-3 -0.031-0.016-0.061-0.024-0.091-0.223-0.528-0.101-1.018 0.365-1.469 0.234-0.226 0.586-0.492 1.06-0.798 0.204-0.153 0.504-0.372 0.9-0.658l0.023-6e-3c0.048-0.017 0.082-0.043 0.102-0.077 0.23-0.176 0.422-0.341 0.576-0.497 7e-3 -0.035 0.037-0.075 0.09-0.122l0.025-0.044c0.091-0.167 0.055-0.316-0.108-0.448-0.011 0.02-0.066 0.026-0.166 0.02-0.274 0.073-0.432 0.124-0.474 0.151-0.242 0.13-0.749 0.462-1.52 0.995-0.109 0.079-0.222 0.149-0.335 0.212 0.124-0.147 0.228-0.306 0.313-0.476-0.057 0.032-0.101 0.019-0.133-0.038-0.034-7e-3 -0.056-0.026-0.064-0.056-0.968 0.473-1.943 0.914-2.927 1.324-0.592 0.469-1.02 0.763-1.282 0.882-0.392 0.121-0.801 0.207-1.229 0.256-0.534 0.078-0.951 0.075-1.25-8e-3 -0.094 0.074-0.168 0.135-0.221 0.182-0.874 0.756-1.538 1.448-1.99 2.075-0.563 0.82-0.916 1.755-1.059 2.805z" fill="#88826A"/>
		<path d="m74.598 8.641c7e-3 -0.035 0.029-0.073 0.067-0.116 0.26-0.429 0.309-0.825 0.146-1.189-0.054-0.018-0.509-0.043-1.366-0.075-0.44 4e-3 -0.762-0.041-0.966-0.133-0.165 0.175-0.267 0.284-0.304 0.326-0.244 0.31-0.307 0.531-0.19 0.663 9e-3 0.095 0.428 0.195 1.255 0.3 0.828 0.105 1.278 0.172 1.351 0.201l7e-3 0.023zm0.324 4.086c0.01-0.017 0.024-0.041 0.042-0.072 0.146-0.186 0.239-0.358 0.278-0.515 0.042-0.207-7e-3 -0.39-0.147-0.548-0.066-0.063-0.239-0.099-0.518-0.106-0.393 0.057-0.698 0.073-0.917 0.05-0.596 0.029-1.058-0.018-1.385-0.143-0.049 0.062-0.094 0.106-0.135 0.134-0.312 0.361-0.376 0.574-0.195 0.64 0.231 0.134 0.77 0.194 1.614 0.179 0.55-0.017 0.914-0.033 1.089-0.047 0.1 6e-3 0.155 0 0.166-0.02 0.163 0.132 0.199 0.281 0.108 0.448zm-0.115 0.166c-0.154 0.156-0.346 0.321-0.576 0.497-0.02 0.034-0.054 0.06-0.102 0.077 0.065-0.021 0.123-0.053 0.17-0.095 0.151-0.106 0.321-0.266 0.508-0.479z" fill="#6A5A39"/>
		<path d="m1.937 31.635c-0.157 0.024-0.292 0.037-0.407 0.035-0.016 4e-3 -0.031 8e-3 -0.046 0.012-0.212 0.122-0.521 0.581-0.929 1.375-0.448 0.887-0.627 1.408-0.536 1.563 8e-3 0.03 0.047 0.085 0.117 0.164 0.079 0.11 0.206 0.247 0.38 0.413 0.308 0.357 0.476 0.558 0.503 0.6 0.163 0.364 0.259 1.211 0.289 2.541 0.015 0.176 0.027 0.344 0.037 0.505-7e-3 0.703 0.036 1.23 0.13 1.58 0.034 0.187 0.08 0.33 0.139 0.428 0.333 0.694 1.695 1.513 4.085 2.455 1.463 0.588 2.312 0.923 2.546 1.007 0.81 0.403 1.322 0.731 1.537 0.983 0.588 0.854 1.827 1.519 3.715 1.991 0.615 0.162 1.347 0.275 2.197 0.342 0.024 0.026 0.058 0.033 0.104 0.021 0.597 0.035 1.238 0.052 1.922 0.048 0.394 9e-3 0.799-2e-3 1.216-0.032 0.47-0.012 0.951-0.043 1.444-0.093-0.275 8e-3 -0.518 0.016-0.728 0.023-0.35-0.086-0.625-0.167-0.824-0.244-0.119-0.018-0.202-0.052-0.249-0.104l-0.052-0.011-0.023 6e-3c-0.028 1e-3 -0.056 4e-3 -0.083 0.01-0.027 0-0.051 2e-3 -0.072 7e-3l-0.011 3e-3c-0.03 9e-3 -0.056 7e-3 -0.075-4e-3l-0.023 6e-3c-0.426 0.015-0.824 0.023-1.192 0.026-0.65 0.011-1.207 5e-3 -1.669-0.019-0.241 0.016-0.453 0.016-0.637 0-0.658-0.02-1.057-0.076-1.196-0.17-0.563-0.273-1.001-0.629-1.314-1.067-0.055-0.083-0.122-0.18-0.2-0.289-0.152-0.204-0.321-0.469-0.507-0.795-0.333-0.449-0.93-0.885-1.794-1.306-0.535-0.232-1.328-0.542-2.379-0.93-0.069-0.014-0.13-0.03-0.184-0.049-1.204-0.411-2.02-0.715-2.447-0.91-0.763-0.351-1.243-0.712-1.441-1.083-0.125-0.228-0.176-0.508-0.151-0.841-0.04-0.087-0.079-0.175-0.12-0.262-0.073-0.274-0.061-0.652 0.039-1.136 0.099-0.484 0.12-0.832 0.063-1.045-0.048-0.118-0.179-0.394-0.393-0.825-0.244-0.425-0.377-0.707-0.398-0.849-0.167-0.559-0.25-1.051-0.249-1.476 0.011-0.264 0.055-0.496 0.132-0.696 0.025-0.088 0.088-0.187 0.19-0.295 0.153-0.221 0.414-0.438 0.78-0.65 0.758-0.398 1.249-0.701 1.47-0.908 0.589-0.483 1.04-1.176 1.354-2.076 0.091-0.269 0.056-0.854-0.104-1.759-0.029-0.775 0.331-1.23 1.078-1.365 0.988-0.151 1.64-0.276 1.956-0.377 0.723-0.227 1.105-0.565 1.147-1.018 0.079-1.229 0.68-2.182 1.804-2.858 0.644-0.4 1.774-0.899 3.394-1.496 0.766-0.369 1.36-0.83 1.783-1.384 0.228-0.306 0.489-0.792 0.784-1.458 0.281-0.598 0.551-1.021 0.81-1.27 0.403-0.386 0.987-0.64 1.754-0.764 0.389-0.072 0.919-0.042 1.59 0.087 0.192 0.047 0.843 0.19 1.952 0.432 1.831 0.439 3.294 0.57 4.388 0.391 0.782-0.128 1.535-0.485 2.259-1.07 0.513-0.398 1.102-1.005 1.765-1.819 0.851-1.028 1.357-1.604 1.52-1.729 0.526-0.532 1.019-0.828 1.477-0.885 0.911-0.13 1.578 0.042 1.999 0.517 0.238 0.279 0.467 0.83 0.687 1.652 0.201 0.811 0.445 1.358 0.733 1.64 0.467 0.462 1.213 0.597 2.238 0.404 3.163-0.619 5.878-1.876 8.144-3.773 0.558-0.476 1.261-1.113 2.108-1.911 0.674-0.589 1.24-0.944 1.697-1.066 0.533-0.143 0.893-0.109 1.08 0.102 0.117 0.132 0.172 0.37 0.167 0.714-6e-3 0.524-0.216 1.11-0.63 1.76-0.409 0.665-0.602 1.132-0.578 1.403 0.037 0.382 0.469 0.625 1.297 0.729 0.886 0.138 1.898 0.022 3.04-0.349 1.7-0.537 3.299-1.512 4.797-2.926 0.286-0.272 0.801-0.786 1.546-1.54 0.526-0.533 0.925-0.901 1.197-1.104 0.436-0.199 0.873-0.397 1.309-0.596-0.021 0.349-0.037 0.687-0.046 1.016-0.329 0.415-1.089 1.173-2.279 2.275-0.813 0.74-1.191 1.339-1.134 1.797 0.018 0.371 0.376 0.552 1.076 0.544 0.54 2e-3 0.983-0.076 1.333-0.235 0.418-0.145 1.374-0.751 2.866-1.82 1.5-1.104 2.319-1.698 2.459-1.785-0.109 0.813-0.448 1.466-1.017 1.961-0.828 0.564-1.468 1.038-1.92 1.42-0.52 0.498-0.932 0.968-1.238 1.409-0.116 0.178-0.446 0.772-0.991 1.783 0.113 0.116 0.266 0.198 0.458 0.245 0.3 0.083 0.716 0.085 1.25 8e-3 0.427-0.049 0.837-0.135 1.229-0.256 0.262-0.119 0.689-0.413 1.282-0.882 0.983-0.41 1.959-0.851 2.926-1.322 8e-3 0.03 0.03 0.049 0.064 0.056 0.032 0.057 0.076 0.07 0.133 0.038-0.085 0.169-0.189 0.328-0.313 0.476 0.113-0.063 0.226-0.134 0.335-0.212 0.771-0.533 1.278-0.864 1.52-0.995 0.042-0.027 0.2-0.078 0.474-0.151-0.175 0.014-0.539 0.03-1.089 0.047-0.845 0.015-1.383-0.045-1.614-0.179-0.181-0.066-0.116-0.279 0.195-0.64 0.042-0.027 0.086-0.072 0.135-0.134 0.192-0.199 0.525-0.508 1-0.929 0.2-0.168 0.383-0.339 0.548-0.514 0.245-0.245 0.431-0.434 0.559-0.566 0.262-0.364 0.334-0.611 0.217-0.743l-6e-3 -0.023c-0.073-0.029-0.523-0.096-1.351-0.201-0.828-0.104-1.246-0.205-1.255-0.3-0.117-0.132-0.054-0.353 0.19-0.663 0.037-0.042 0.139-0.151 0.304-0.326 0.132-0.117 0.307-0.286 0.525-0.508 0.361-0.358 0.62-0.672 0.776-0.942 0.216-0.352 0.281-0.687 0.195-1.007-0.068-0.194-0.218-0.325-0.448-0.394-0.134-0.013-0.281-0.014-0.442-4e-3 -0.328 0.055-0.847 0.219-1.558 0.491-0.813 0.316-1.347 0.483-1.603 0.503-0.5 0.085-0.75-0.027-0.751-0.337-0.01-0.161 0.089-0.399 0.298-0.716 0.202-0.283 0.31-0.581 0.323-0.895 0.018-0.543-0.119-0.841-0.411-0.894-0.517-0.041-1.663 0.372-3.438 1.239-0.936 0.463-1.899 0.982-2.887 1.557-0.871 0.527-1.344 0.801-1.42 0.821-0.768 0.304-1.399 0.416-1.893 0.336-0.253-0.03-0.646-0.186-1.178-0.468-0.501-0.225-0.97-0.36-1.407-0.406-0.677-0.031-1.539 0.102-2.585 0.399-0.917 0.294-1.731 0.603-2.445 0.924-0.447 0.218-0.987 0.518-1.619 0.899-0.659 0.405-1.172 0.682-1.541 0.829-0.683 0.313-1.449 0.56-2.299 0.738-0.887 0.221-1.784 0.315-2.69 0.28-0.52 9e-3 -1.313-0.056-2.378-0.195-1.031-0.132-1.87-0.217-2.517-0.256-1.021-0.036-2.04 0-3.055 0.109-1.473 0.167-2.61 0.462-3.409 0.889-0.47 0.257-1.04 0.72-1.709 1.389-0.628 0.641-1.245 1.108-1.852 1.401-0.963 0.487-2.27 0.82-3.918 1.001-0.896 0.126-1.749 0.11-2.558-0.049-0.487-0.049-0.792-0.09-0.915-0.122-0.379-0.013-0.744-5e-3 -1.095 0.024-1.419 0.185-2.501 0.499-3.248 0.944-0.59 0.354-1.02 0.82-1.29 1.398-0.24 0.685-0.421 1.198-0.542 1.54-0.211 0.612-0.523 1.062-0.935 1.352-0.313 0.231-0.869 0.502-1.667 0.814-0.98 0.36-1.704 0.645-2.171 0.851-0.885 0.352-1.511 0.666-1.877 0.944-0.494 0.409-0.678 0.817-0.553 1.225 0.11 0.411 0.109 0.771-4e-3 1.078-0.173 0.39-0.573 0.758-1.197 1.104-0.178 0.129-0.468 0.264-0.871 0.404-0.437 0.199-0.731 0.318-0.883 0.359-0.701 0.367-1.094 0.758-1.179 1.173-0.025 0.088 0.054 0.385 0.239 0.891 0.186 0.57 0.308 1.027 0.367 1.37 0.163 1.278-0.579 2.073-2.226 2.384-0.122 0.032-0.257 0.044-0.406 0.035-0.031 8e-3 -0.063 9e-3 -0.098 2e-3 -0.036 0.01-0.069 0.011-0.103 4e-3z" fill="#D3CCB2"/>
		<path d="m56.244 1.441c1.281 0.032 2.281 0.14 3 0.322 0.461 0.138 1.022 0.314 1.684 0.528 0.537 0.117 1.195 0.137 1.974 0.059 0.382-0.217 0.843-0.479 1.38-0.786 1.026-0.617 1.817-1.074 2.375-1.371-0.603 0.064-1.187 0.106-1.753 0.127-0.206 0.022-0.424 0.032-0.653 0.028-1.923 9e-3 -3.477 0.148-4.662 0.417-1.196 0.288-2.23 0.508-3.104 0.66-0.096 0.01-0.176 0.015-0.241 0.016zm13.097-1.184c-0.51 0.104-1.175 0.364-1.994 0.779-0.11 0.078-0.242 0.163-0.397 0.253-0.545 0.342-1.316 0.875-2.313 1.599-0.521 0.368-0.969 0.676-1.344 0.923-0.567 0.38-0.942 0.595-1.125 0.644-0.456 0.188-0.939 0.211-1.45 0.07-0.2-0.077-0.383-0.15-0.548-0.22-0.431-0.146-0.804-0.258-1.119-0.337-1.813-0.493-4.025-0.374-6.636 0.358-0.818 0.236-1.494 0.515-2.028 0.837-0.344 0.239-0.719 0.576-1.125 1.011-0.493 0.475-0.87 0.804-1.13 0.988l-0.062 0.043c-0.519 0.318-1.142 0.551-1.869 0.697-0.754 0.169-1.52 0.146-2.296-0.07-0.345-0.071-1.093-0.335-2.245-0.794-1.026-0.361-1.897-0.626-2.611-0.793-0.391-0.059-0.772-0.111-1.144-0.159-0.712-0.038-1.421-0.035-2.128 7e-3 -1.866 0.222-3.219 0.593-4.059 1.112-0.521 0.369-0.953 0.949-1.296 1.743-0.379 0.836-0.766 1.405-1.158 1.706-0.136 0.102-0.282 0.198-0.437 0.289-0.754 0.414-1.796 0.693-3.128 0.838-0.519 0.074-1.069 1e-3 -1.65-0.219-0.281-0.071-0.617-0.202-1.011-0.39-0.166-0.07-0.352-0.159-0.561-0.266-0.729-0.343-1.228-0.561-1.497-0.651-0.304-0.099-0.584-0.17-0.841-0.216-0.253-0.03-0.465-0.03-0.637 0-2.057 0.241-3.481 1.137-4.274 2.687-0.222 0.451-0.444 1.082-0.668 1.893-0.201 0.772-0.372 1.291-0.513 1.557l-0.023 6e-3c-0.371 0.687-0.915 1.183-1.632 1.49-0.258 0.134-0.739 0.288-1.444 0.46-0.217 0.042-0.455 0.098-0.714 0.167-0.99 0.265-1.753 0.551-2.292 0.859-0.829 0.499-1.476 1.219-1.942 2.16-0.2 0.412-0.3 0.921-0.302 1.524-0.037 0.777-0.057 1.248-0.062 1.412-0.068 0.296-0.236 0.521-0.505 0.674-0.167 0.11-0.471 0.225-0.912 0.343-0.434 0.148-0.758 0.276-0.975 0.384-0.353 0.208-0.59 0.476-0.715 0.804-0.24 0.505-0.268 1.132-0.083 1.882 0.235 0.753 0.376 1.222 0.425 1.404 0.06 0.588-0.122 1.068-0.543 1.442-0.094 0.074-0.166 0.143-0.214 0.205-0.086 0.104-0.146 0.186-0.18 0.244 0.035 7e-3 0.067 6e-3 0.098-2e-3 0.034 7e-3 0.067 6e-3 0.098-2e-3 0.149 9e-3 0.285-3e-3 0.406-0.035 1.646-0.311 2.389-1.105 2.226-2.384-0.059-0.343-0.182-0.8-0.367-1.37-0.185-0.506-0.264-0.803-0.239-0.891 0.085-0.415 0.478-0.806 1.179-1.173 0.152-0.041 0.447-0.16 0.883-0.359 0.402-0.141 0.693-0.275 0.871-0.404 0.625-0.347 1.024-0.715 1.197-1.104 0.113-0.308 0.115-0.667 4e-3 -1.078-0.125-0.407 0.059-0.815 0.553-1.225 0.366-0.278 0.992-0.593 1.877-0.944 0.467-0.206 1.19-0.49 2.171-0.851 0.798-0.312 1.354-0.583 1.667-0.814 0.412-0.29 0.723-0.74 0.935-1.352 0.121-0.342 0.302-0.855 0.542-1.54 0.27-0.579 0.7-1.044 1.29-1.398 0.746-0.445 1.828-0.759 3.248-0.944 0.352-0.029 0.716-0.037 1.095-0.024 0.123 0.032 0.428 0.073 0.915 0.122 0.809 0.159 1.662 0.175 2.558 0.049 1.649-0.181 2.955-0.514 3.918-1.001 0.606-0.293 1.224-0.76 1.852-1.401 0.669-0.669 1.239-1.132 1.709-1.389 0.799-0.426 1.936-0.722 3.409-0.889 1.015-0.109 2.034-0.145 3.055-0.109 0.647 0.039 1.486 0.125 2.517 0.256 1.065 0.139 1.858 0.204 2.378 0.195 0.906 0.035 1.804-0.059 2.69-0.28 0.85-0.179 1.617-0.425 2.299-0.738 0.368-0.147 0.882-0.424 1.541-0.829 0.632-0.381 1.172-0.681 1.619-0.899 0.714-0.322 1.528-0.63 2.445-0.924 1.046-0.297 1.908-0.43 2.585-0.399 0.437 0.046 0.905 0.182 1.407 0.406 0.532 0.282 0.925 0.438 1.178 0.468 0.494 0.08 1.125-0.032 1.893-0.336 0.076-0.02 0.549-0.294 1.42-0.821 0.988-0.575 1.951-1.094 2.887-1.557 1.775-0.867 2.921-1.28 3.438-1.239 0.292 0.052 0.428 0.35 0.411 0.894-0.014 0.313-0.122 0.612-0.323 0.895-0.209 0.317-0.308 0.556-0.298 0.716 1e-3 0.31 0.252 0.422 0.751 0.337 0.256-0.02 0.79-0.187 1.603-0.503 0.711-0.272 1.229-0.436 1.558-0.491 0.161-0.01 0.308-9e-3 0.442 4e-3 8e-3 -0.214-0.03-0.384-0.112-0.508-0.113-0.117-0.389-0.173-0.829-0.17-0.589 0.042-0.968 0.029-1.134-0.041-0.384-0.093-0.597-0.37-0.639-0.833-0.01-0.16-0.027-0.376-0.051-0.647-3e-3 -0.195-0.015-0.42-0.035-0.676-0.01-0.161-0.033-0.309-0.07-0.446-0.057-0.213-0.129-0.39-0.215-0.53-0.207-0.222-0.573-0.279-1.099-0.171zm-16.5 1.459c-0.371 0.018-0.751 0.03-1.141 0.036-3.803 0.791-7.696 1.426-11.68 1.906-0.996 0.12-1.938 0.226-2.828 0.317-0.332 0.04-0.642 0.074-0.928 0.102 1.116 0.207 2.499 0.432 4.146 0.676 0.912 0.115 1.643 0.343 2.191 0.686 0.263 0.19 0.451 0.312 0.562 0.363 4e-3 0.015 0.014 0.021 0.029 0.017 0.243 0.114 0.546 0.18 0.91 0.197 0.482 0.034 1.342 0.016 2.58-0.055 0.371-0.018 0.716-0.037 1.037-0.058l0.063-0.042c0.269-0.153 0.66-0.43 1.173-0.828 0.431-0.344 0.821-0.62 1.174-0.829 0.546-0.277 1.228-0.533 2.046-0.769 2.615-0.717 4.796-0.95 6.544-0.701 0.307 0.048 0.667 0.115 1.082 0.2-0.265-0.076-0.546-0.18-0.843-0.313-0.627-0.272-1.089-0.442-1.385-0.51-0.614-0.162-1.308-0.253-2.081-0.275-0.654-4e-3 -1.309 0.017-1.966 0.062-0.245-0.063-0.473-0.124-0.685-0.182z" fill="#6A665A"/>
		<path d="m3.13 39.833c0.032-0.367 0.156-0.817 0.373-1.349 0.202-0.526 0.335-0.849 0.402-0.964 0.087-0.285 0.076-0.51-0.035-0.677-0.46-0.562-0.412-1.447 0.145-2.658 0.055-0.161 0.138-0.339 0.25-0.531 0.648-1.234 1.72-2.411 3.215-3.53 0.741-0.524 1.59-1.282 2.548-2.273 1.252-1.233 2.111-2.051 2.574-2.452 2.318-2.009 5.167-3.588 8.547-4.738 1.757-0.568 3.582-1.065 5.475-1.491 2.042-0.482 4.031-0.852 5.969-1.11 1.026-0.128 2.592-0.466 4.698-1.014 2.036-0.562 3.504-0.931 4.403-1.106 2.063-0.34 4.715-0.643 7.957-0.908 1.395-0.096 3.028-0.24 4.902-0.432 0.542-0.047 1.098-0.106 1.667-0.177 0.366-0.033 0.706 0.015 1.018 0.144 0.44 0.241 0.854 0.449 1.244 0.622 1.279 0.571 2.184 1.022 2.712 1.354 0.458 0.367 0.779 0.925 0.963 1.676 0.074 0.764 0.146 1.364 0.214 1.803 0.027 0.222 0.061 0.408 0.102 0.561l6e-3 0.022c0.143-1.05 0.496-1.985 1.06-2.805 0.452-0.627 1.116-1.319 1.99-2.075 0.053-0.047 0.126-0.107 0.221-0.182-0.192-0.047-0.345-0.128-0.458-0.245 0.545-1.011 0.875-1.605 0.991-1.783 0.306-0.441 0.719-0.911 1.238-1.409 0.452-0.382 1.092-0.855 1.92-1.42 0.569-0.496 0.908-1.149 1.017-1.961-0.14 0.086-0.96 0.681-2.459 1.785-1.492 1.069-2.448 1.676-2.866 1.82-0.349 0.159-0.793 0.237-1.333 0.235-0.7 8e-3 -1.058-0.173-1.076-0.544-0.058-0.458 0.321-1.057 1.134-1.797 1.19-1.103 1.95-1.861 2.279-2.275 0.01-0.329 0.025-0.667 0.046-1.016-0.437 0.199-0.873 0.397-1.309 0.596-0.272 0.203-0.671 0.571-1.197 1.104-0.745 0.754-1.26 1.268-1.546 1.54-1.499 1.414-3.097 2.389-4.797 2.926-1.141 0.371-2.154 0.487-3.04 0.349-0.828-0.104-1.26-0.348-1.297-0.729-0.024-0.271 0.169-0.739 0.578-1.403 0.414-0.649 0.624-1.236 0.63-1.76 6e-3 -0.344-0.05-0.583-0.167-0.714-0.187-0.211-0.547-0.245-1.08-0.102-0.457 0.122-1.022 0.478-1.697 1.066-0.847 0.798-1.55 1.435-2.108 1.911-2.266 1.896-4.98 3.154-8.144 3.773-1.025 0.193-1.771 0.059-2.238-0.404-0.288-0.282-0.532-0.829-0.733-1.64-0.22-0.822-0.449-1.373-0.687-1.652-0.421-0.475-1.088-0.647-1.999-0.517-0.458 0.058-0.95 0.353-1.477 0.885-0.162 0.125-0.668 0.702-1.52 1.729-0.663 0.814-1.251 1.42-1.765 1.819-0.724 0.585-1.477 0.942-2.259 1.07-1.094 0.179-2.557 0.049-4.388-0.391-1.109-0.242-1.76-0.385-1.952-0.432-0.671-0.13-1.201-0.159-1.59-0.087-0.767 0.124-1.351 0.378-1.754 0.764-0.259 0.249-0.529 0.672-0.81 1.27-0.295 0.666-0.556 1.153-0.784 1.458-0.423 0.554-1.017 1.015-1.783 1.384-1.619 0.597-2.75 1.096-3.394 1.496-1.124 0.677-1.726 1.63-1.804 2.858-0.042 0.452-0.425 0.791-1.147 1.018-0.316 0.101-0.967 0.226-1.956 0.377-0.747 0.135-1.106 0.59-1.078 1.365 0.16 0.904 0.195 1.49 0.104 1.759-0.314 0.9-0.765 1.593-1.354 2.076-0.222 0.207-0.712 0.51-1.47 0.908-0.367 0.213-0.627 0.43-0.78 0.65-0.102 0.108-0.165 0.207-0.19 0.295-0.077 0.2-0.121 0.433-0.132 0.696-1e-3 0.425 0.082 0.917 0.249 1.476 0.021 0.142 0.154 0.424 0.398 0.849 0.213 0.432 0.345 0.707 0.393 0.825 0.057 0.213 0.036 0.561-0.063 1.045-0.099 0.483-0.112 0.861-0.039 1.136 0.044 0.083 0.083 0.171 0.123 0.258z" fill="#92836E"/>
		<path d="m1.674 21.154c0.179-0.489 0.355-0.96 0.527-1.414-0.259 0.493-0.454 0.864-0.583 1.11-0.527 0.957-0.816 2.039-0.869 3.244-0.058 0.88 0.01 1.988 0.205 3.323 0.301 1.976 0.458 3.051 0.473 3.227 0.033 0.367 0.052 0.713 0.058 1.037 0.015-4e-3 0.03-8e-3 0.046-0.012 0.115 2e-3 0.25-0.011 0.406-0.035 0.033-0.059 0.093-0.14 0.18-0.244 0.049-0.063 0.12-0.131 0.214-0.205 0.422-0.374 0.603-0.854 0.543-1.442-0.049-0.183-0.19-0.651-0.425-1.404-0.184-0.75-0.157-1.377 0.083-1.882 0.125-0.328 0.362-0.596 0.715-0.804 0.216-0.107 0.541-0.235 0.975-0.384 0.441-0.118 0.745-0.232 0.912-0.343 0.269-0.153 0.437-0.378 0.505-0.674 5e-3 -0.164 0.025-0.635 0.062-1.412 1e-3 -0.604 0.102-1.112 0.302-1.524 0.466-0.941 1.113-1.661 1.942-2.16 0.538-0.308 1.302-0.594 2.292-0.859 0.259-0.069 0.497-0.125 0.714-0.167 0.705-0.172 1.186-0.326 1.444-0.46 0.718-0.307 1.262-0.803 1.632-1.49l0.023-6e-3c0.141-0.266 0.312-0.785 0.513-1.557 0.224-0.811 0.446-1.441 0.668-1.893 0.792-1.55 2.217-2.446 4.274-2.687 0.171-0.03 0.384-0.029 0.637 0 0.257 0.045 0.537 0.117 0.841 0.216 0.269 0.091 0.768 0.308 1.497 0.651 0.208 0.107 0.395 0.196 0.561 0.266 0.394 0.188 0.73 0.318 1.011 0.39 0.581 0.22 1.131 0.293 1.65 0.219 1.332-0.145 2.375-0.424 3.128-0.838 0.155-0.091 0.301-0.187 0.437-0.289 0.393-0.301 0.779-0.869 1.158-1.706 0.343-0.793 0.775-1.374 1.296-1.743 0.84-0.519 2.193-0.89 4.059-1.112 0.707-0.042 1.416-0.045 2.128-7e-3 0.372 0.047 0.753 0.1 1.144 0.159 0.714 0.167 1.585 0.432 2.611 0.793 1.151 0.458 1.899 0.723 2.245 0.794 0.776 0.216 1.542 0.24 2.296 0.07 0.728-0.146 1.351-0.378 1.869-0.697l0.063-0.041c0.261-0.184 0.637-0.514 1.13-0.988 0.406-0.436 0.78-0.772 1.125-1.011 0.534-0.323 1.209-0.602 2.028-0.837 2.611-0.732 4.822-0.851 6.636-0.358 0.315 0.079 0.688 0.191 1.119 0.337 0.166 0.07 0.348 0.143 0.548 0.22 0.511 0.141 0.994 0.117 1.45-0.07 0.182-0.049 0.558-0.264 1.125-0.644 0.375-0.248 0.822-0.555 1.344-0.923 0.998-0.724 1.768-1.257 2.313-1.599 0.155-0.09 0.287-0.175 0.397-0.253 0.819-0.416 1.484-0.675 1.994-0.779-0.538-0.182-1.117-0.271-1.736-0.269-0.485 0.016-1.149 0.096-1.992 0.24-0.267 0.039-0.503 0.07-0.709 0.093 0.566-0.021 1.15-0.063 1.753-0.127-0.557 0.296-1.349 0.753-2.375 1.371-0.538 0.308-0.998 0.569-1.38 0.786-0.779 0.078-1.437 0.059-1.974-0.059-0.662-0.214-1.223-0.39-1.684-0.528-0.718-0.183-1.718-0.29-3-0.322-0.721 0.112-1.855 0.204-3.402 0.275 0.211 0.058 0.44 0.119 0.686 0.184 0.657-0.045 1.312-0.066 1.966-0.062 0.773 0.021 1.467 0.113 2.081 0.275 0.295 0.068 0.757 0.238 1.385 0.51 0.297 0.132 0.578 0.237 0.843 0.313-0.415-0.084-0.775-0.151-1.082-0.2-1.748-0.25-3.929-0.016-6.544 0.701-0.818 0.236-1.5 0.492-2.046 0.769-0.353 0.208-0.743 0.485-1.174 0.829-0.513 0.398-0.904 0.675-1.173 0.828l-0.063 0.042c-0.321 0.021-0.667 0.04-1.037 0.058-1.238 0.07-2.098 0.089-2.58 0.055-0.363-0.017-0.667-0.083-0.91-0.197-0.016 4e-3 -0.025-1e-3 -0.029-0.017-0.111-0.052-0.299-0.173-0.562-0.363-0.549-0.343-1.279-0.571-2.191-0.686-1.648-0.244-3.03-0.469-4.146-0.676-0.996 0.12-1.9 0.215-2.714 0.286 0.216 0.073 0.446 0.142 0.692 0.207 0.623 0.192 1.462 0.465 2.52 0.818 0.381 0.143 0.729 0.254 1.044 0.333-0.7 8e-3 -1.397 0.056-2.091 0.144-1.85 0.283-3.203 0.654-4.059 1.112-0.538 0.307-1 0.774-1.388 1.4-0.429 0.653-0.845 1.107-1.25 1.363-0.14 0.086-0.29 0.167-0.449 0.243-0.766 0.369-1.809 0.648-3.129 0.838-0.515 0.089-1.05 0.069-1.607-0.059-0.269-0.026-0.591-0.103-0.968-0.23-0.157-0.039-0.334-0.09-0.53-0.151-0.696-0.222-1.172-0.355-1.43-0.4-0.295-0.068-0.567-0.109-0.816-0.124-0.245 0-0.453 0.015-0.624 0.045-2.037 0.317-3.494 1.091-4.372 2.322-0.247 0.36-0.506 0.854-0.778 1.481-0.25 0.589-0.454 0.986-0.611 1.192 0.104-0.403 0.189-0.818 0.254-1.243 0.086-0.594 0.179-1.435 0.279-2.522-0.046-0.233-0.1-0.463-0.161-0.691-0.157 0.025-0.32 0.053-0.492 0.083-0.724 1.989-1.179 3.18-1.368 3.573-0.465 0.94-1.025 1.776-1.678 2.506-0.217 0.042-0.456 0.098-0.714 0.167-0.99 0.265-1.76 0.528-2.31 0.79-0.841 0.454-1.523 1.044-2.046 1.772-0.224 0.321-0.355 0.716-0.393 1.183-0.085 0.594-0.137 0.951-0.154 1.069-0.084 0.234-0.262 0.421-0.535 0.56-0.17 0.095-0.477 0.201-0.918 0.319-0.438 0.134-0.767 0.246-0.987 0.338-0.36 0.179-0.613 0.393-0.758 0.644-0.265 0.414-0.331 0.896-0.199 1.449 0.182 0.555 0.291 0.901 0.327 1.038 0.03 0.416-0.159 0.777-0.567 1.082-0.169-1.668-0.193-2.886-0.073-3.652 0.246-1.51 0.399-2.245 0.457-2.211z" fill="#3C3427"/>
		<path d="m53.951 33.267c0.559-0.411 1.11-0.853 1.653-1.324 0.871-0.707 2.072-1.828 3.603-3.364 0.494-0.41 0.883-1.363 1.167-2.858 0.178-1.468-0.025-2.531-0.61-3.19-0.459 1.086-1.206 2.199-2.238 3.341 0.195 0.241 0.327 0.492 0.396 0.751 0.179 0.604-0.015 1.374-0.58 2.31-0.758 1.067-1.278 1.811-1.557 2.229-0.403 0.63-1.058 1.197-1.968 1.702-1.126 0.547-1.974 0.978-2.542 1.293-2.295 1.301-4.149 2.36-5.562 3.179 0.316-0.101 0.652-0.215 1.009-0.344 0.955-0.337 1.775-0.654 2.462-0.953 0.604-0.243 1.118-0.487 1.542-0.731 0.261-0.119 0.519-0.253 0.773-0.403 0.835-0.487 1.652-1.033 2.452-1.638zm-3.805-1.502c0.263 0.859 0.117 1.625-0.438 2.296-0.416 0.519-1.201 1.121-2.355 1.806 0.933-0.479 1.764-0.938 2.495-1.378 4.171-2.521 5.952-4.435 5.341-5.739-0.066-0.064-0.135-0.201-0.208-0.41-1.421 1.213-3.033 2.354-4.835 3.425zm-6.793 5.344c2.948-1.426 4.303-2.458 4.066-3.097-0.077-0.225-0.171-0.428-0.286-0.609-0.933 0.479-2.208 1.017-3.827 1.613 0.182 0.131 0.303 0.278 0.363 0.441 0.19 0.587 0.085 1.137-0.316 1.652zm-7.748 0.681c1.008 0.171 1.597 0.511 1.766 1.021 0.029 0.106 0.042 0.217 0.04 0.332 0.794-0.327 1.482-0.65 2.065-0.97-0.019-0.012-6e-3 -0.023 0.04-0.035 1.007-0.563 1.47-1.03 1.387-1.4-0.123-0.276-0.316-0.511-0.58-0.701-1.459 0.521-2.613 0.937-3.46 1.245-0.425 0.179-0.844 0.349-1.258 0.508z" fill="#433629"/>
		<path d="m13.592 46.724c-0.109-0.167-0.215-0.407-0.316-0.724-0.102-0.38-3e-3 -0.774 0.295-1.181 0.273-0.383 0.362-0.75 0.269-1.1-0.138-0.453-0.884-1.077-2.239-1.872-1.356-0.796-2.091-1.406-2.205-1.833-0.041-0.152 0.123-1.004 0.49-2.555 0.43-1.747 0.898-2.86 1.407-3.339 0.753-0.724 1.931-1.472 3.536-2.245 0.899-0.42 2.196-0.972 3.889-1.653 0.687-0.299 1.611-0.75 2.771-1.354 1.327-0.649 2.325-1.129 2.992-1.438 2.635-1.13 5.566-2.006 8.794-2.626 1.742-0.319 3.866-0.555 6.372-0.703 2.746-0.165 5.375-0.249 7.888-0.253 0.409 4e-3 0.811 0.011 1.204 0.02 2.299 0.053 4.203 0.245 5.711 0.575 1.493 0.334 2.518 0.811 3.075 1.428 1.032-1.142 1.778-2.255 2.238-3.341 0.585 0.659 0.788 1.723 0.61 3.19-0.284 1.495-0.673 2.448-1.167 2.858-1.53 1.536-2.731 2.657-3.603 3.364-0.543 0.472-1.094 0.913-1.653 1.324 0.133-0.053 0.256-0.11 0.37-0.173 0.271-0.203 0.564-0.421 0.877-0.651 1.831-1.453 3.534-2.954 5.11-4.502 0.165-0.176 0.332-0.343 0.502-0.502 1.624-1.676 2.496-2.774 2.617-3.297 0.127-0.376 0.051-0.936-0.229-1.676-0.358-0.786-0.598-1.407-0.72-1.864l-6e-3 -0.022c-0.041-0.152-0.075-0.339-0.102-0.561-0.068-0.438-0.14-1.039-0.214-1.803-0.184-0.75-0.505-1.309-0.963-1.676-0.529-0.332-1.434-0.783-2.712-1.354-0.389-0.173-0.804-0.38-1.244-0.622-0.312-0.128-0.651-0.176-1.018-0.144-0.569 0.071-1.124 0.13-1.667 0.177-1.874 0.192-3.508 0.336-4.902 0.432-3.242 0.265-5.894 0.568-7.957 0.908-0.899 0.176-2.367 0.544-4.403 1.106-2.105 0.548-3.671 0.886-4.698 1.014-1.938 0.258-3.928 0.628-5.969 1.11-1.893 0.426-3.718 0.923-5.475 1.491-3.38 1.15-6.229 2.729-8.547 4.738-0.463 0.401-1.322 1.219-2.574 2.452-0.956 0.995-1.805 1.753-2.546 2.277-1.496 1.119-2.567 2.296-3.215 3.53-0.112 0.192-0.195 0.37-0.25 0.531-0.557 1.211-0.605 2.097-0.145 2.658 0.11 0.167 0.122 0.392 0.035 0.677-0.067 0.115-0.201 0.438-0.402 0.964-0.217 0.531-0.341 0.981-0.373 1.349-0.025 0.333 0.026 0.613 0.151 0.841 0.198 0.371 0.678 0.732 1.441 1.083 0.428 0.195 1.244 0.499 2.447 0.91 0.054 0.019 0.115 0.035 0.184 0.049 1.051 0.388 1.844 0.697 2.379 0.93 0.864 0.421 1.461 0.856 1.794 1.306 0.186 0.326 0.354 0.591 0.507 0.795-0.049-0.183-0.1-0.373-0.153-0.571 0.038-0.042 0.088-0.22 0.151-0.53 0.056-0.341 0.105-0.583 0.149-0.725-1.283-0.587-2.5-1.167-3.648-1.74-2.256-1.108-3.447-1.899-3.573-2.372-0.53-1.979 0.175-4.249 2.117-6.809 0.045-0.013 0.072-0.036 0.079-0.07 1.65-2.123 4.077-4.274 7.279-6.454 2.742-1.828 5.741-3.424 8.999-4.786 2.939-1.212 5.215-1.944 6.829-2.196 0.328-0.056 1.245-0.105 2.75-0.149 1.517-0.064 2.916-0.202 4.197-0.415 0.111-0.013 1.085-0.242 2.925-0.686 1.851-0.463 2.854-0.708 3.011-0.733 4.613-0.992 8.379-1.495 11.296-1.509 3.09 0.021 4.899 0.866 5.428 2.536 0.046 0.232 3e-3 0.407-0.129 0.524-0.143 0.136-0.2 0.258-0.171 0.364 0.025 0.156 0.282 0.536 0.77 1.14-0.104 0.648-0.295 1.303-0.575 1.966-0.027-0.042-0.064-0.089-0.111-0.142-0.435-0.406-0.96-0.755-1.578-1.046-1.668-0.745-3.978-1.081-6.928-1.008-3.92 0.169-9.402 0.724-16.444 1.664-2.945 0.397-5.654 0.977-8.127 1.737-2.012 0.653-4.013 1.467-6.004 2.44-1.004 0.515-2.616 1.411-4.835 2.691-1.924 1.103-3.423 1.904-4.497 2.404-0.785 0.357-1.443 0.737-1.971 1.14-0.721 0.536-1.205 1.106-1.451 1.711-0.271 0.692-0.259 1.53 0.036 2.512 0.042 0.217-0.143 0.838-0.553 1.861-0.422 1.044-0.606 1.607-0.551 1.69 0.096 0.235 0.471 0.51 1.126 0.824 0.271 0.156 0.936 0.476 1.995 0.958 0.116 0.067 0.235 0.117 0.358 0.149 1.654 0.813 2.583 1.445 2.785 1.897 0.152 0.384 0.144 0.81-0.024 1.279-0.198 0.478-0.254 0.786-0.168 0.927 0.072 0.21 0.329 0.377 0.77 0.504z" fill="#57493C"/>
		<path d="m47.353 35.866c-0.792 0.393-1.638 0.798-2.538 1.219-0.072 0.035-0.133 0.052-0.183 0.049-1.195 0.532-2.124 0.937-2.785 1.211-0.543 0.228-0.924 0.387-1.145 0.479-1.248 0.579-2.782 1.219-4.602 1.918-1.648 0.67-2.943 1.197-3.885 1.58-0.22 0.091-0.427 0.171-0.621 0.239-0.083 0.056-0.163 0.093-0.239 0.113 0.221-0.026 0.414-0.07 0.577-0.13l0.023-7e-3c0.293-0.062 1.171-0.411 2.632-1.048 0.881-0.366 1.707-0.727 2.477-1.079 0.277-0.124 0.805-0.314 1.585-0.572 0.475-0.176 0.935-0.348 1.379-0.516 0.24-0.081 0.478-0.169 0.713-0.265 0.376-0.117 1.205-0.405 2.486-0.862 0.692-0.218 1.521-0.505 2.486-0.862 1.413-0.818 3.267-1.878 5.562-3.179 0.568-0.315 1.416-0.746 2.542-1.293 0.91-0.505 1.565-1.072 1.968-1.702 0.279-0.418 0.799-1.161 1.557-2.229 0.565-0.936 0.759-1.705 0.58-2.31-0.069-0.259-0.201-0.51-0.396-0.751-0.203 0.218-0.412 0.445-0.625 0.682-0.586 0.614-1.226 1.21-1.92 1.787 0.073 0.209 0.142 0.346 0.208 0.41 0.611 1.305-1.169 3.218-5.341 5.739-0.731 0.442-1.562 0.901-2.495 1.379zm-29.002 11.394c0.012-3e-3 0.031-8e-3 0.057-0.015l0.015 8e-3c0.027-6e-3 0.055-9e-3 0.083-0.01l0.023-6e-3 0.052 0.011c-0.07-0.017-0.121-0.052-0.151-0.107-0.421-0.229-0.704-0.586-0.85-1.069-0.088-0.27-0.027-0.678 0.186-1.225 0.136-0.347 0.341-0.736 0.617-1.169 0.16-0.255 0.207-0.627 0.142-1.115-0.111-0.476-0.129-0.814-0.052-1.015 0.066-0.181 0.539-0.52 1.417-1.016 0.837-0.469 1.892-0.98 3.163-1.533 3.064-1.294 5.692-2.146 7.884-2.553 3.88-0.746 6.623-1.016 8.229-0.81 0.479 0.084 0.866 0.217 1.16 0.399 0.627-0.217 1.315-0.45 2.064-0.7 0.312-0.116 0.618-0.223 0.918-0.319-0.846-0.54-2.965-0.593-6.357-0.157-2.125 0.292-4.57 0.76-7.335 1.402-1.943 0.423-3.586 0.807-4.93 1.15-2.517 0.657-4.189 1.236-5.019 1.736-0.496 0.279-0.845 0.471-1.045 0.573-0.352 0.209-0.611 0.4-0.776 0.575-0.406 0.436-0.561 1.138-0.463 2.107 0.026 0.221-0.149 0.938-0.526 2.147-0.37 1.177-0.541 1.818-0.513 1.925 0.065 0.243 0.261 0.485 0.586 0.725 0.08-6e-3 0.155-1e-3 0.224 0.013 0.349 0.021 0.703 0.032 1.062 0.034 0.011 7e-3 0.021 0.012 0.029 0.017l0.023-6e-3c0.019 0.011 0.044 0.013 0.075 4e-3l8e-3 -1e-3z" fill="#918976"/>
		<path d="m15.192 47.029l-0.029-0.017c-0.419-0.165-0.663-0.313-0.73-0.441-0.077-0.224-0.091-0.889-0.045-1.995 0.039-1.071 0.046-1.652 0.022-1.744-0.094-0.17-0.539-0.581-1.334-1.233-0.088-0.025-0.175-0.075-0.261-0.15-0.991-0.714-1.522-1.143-1.593-1.286-0.222-0.463 0.825-1.519 3.142-3.168 2.07-1.469 3.973-2.59 5.708-3.365 0.19-0.083 0.657-0.29 1.4-0.62 0.694-0.332 1.36-0.617 1.999-0.854 1.865-0.712 3.554-1.14 5.065-1.283 1.065-0.106 2.798-0.432 5.198-0.978 2.651-0.579 4.032-0.876 4.143-0.89 1.473-0.23 3.457-0.469 5.954-0.714 1.355-0.118 3.15-0.362 5.384-0.732 0.409-0.061 0.921-0.067 1.537-0.021 8e-3 0.031 0.653 0.095 1.936 0.191 1.245 0.14 1.941 0.239 2.087 0.298 0.066 0.063 0.123 0.154 0.17 0.272 0.02 0.011 0.031 0.024 0.035 0.039 0.694-0.577 1.334-1.173 1.92-1.787 0.214-0.236 0.423-0.464 0.625-0.682-0.557-0.617-1.583-1.094-3.075-1.428-1.509-0.33-3.412-0.522-5.711-0.575-0.394-9e-3 -0.795-0.016-1.204-0.02-2.513 4e-3 -5.142 0.088-7.888 0.253-2.506 0.148-4.63 0.384-6.372 0.703-3.228 0.62-6.16 1.496-8.794 2.626-0.667 0.31-1.665 0.789-2.992 1.438-1.16 0.604-2.084 1.056-2.771 1.354-1.693 0.682-2.99 1.233-3.889 1.653-1.604 0.773-2.783 1.521-3.536 2.245-0.508 0.479-0.977 1.592-1.407 3.339-0.367 1.551-0.531 2.402-0.49 2.555 0.114 0.427 0.849 1.037 2.205 1.833 1.355 0.795 2.102 1.419 2.239 1.872 0.094 0.35 4e-3 0.717-0.269 1.1-0.299 0.406-0.397 0.801-0.295 1.181 0.101 0.316 0.207 0.557 0.316 0.724 0.392 0.125 0.926 0.227 1.6 0.307z" fill="#9E9785"/>
		<path d="m50.146 31.765c1.802-1.07 3.413-2.212 4.834-3.426-4e-3 -0.015-0.016-0.028-0.035-0.039-0.048-0.118-0.104-0.209-0.17-0.272-0.146-0.059-0.842-0.158-2.087-0.298-1.283-0.097-1.928-0.16-1.936-0.191-0.616-0.047-1.128-0.04-1.537 0.021-2.234 0.37-4.029 0.614-5.384 0.732-2.497 0.245-4.481 0.483-5.954 0.714-0.11 0.014-1.491 0.311-4.143 0.89-2.4 0.546-4.132 0.871-5.198 0.978-1.512 0.144-3.2 0.571-5.065 1.283-0.639 0.236-1.305 0.521-1.999 0.854-0.744 0.33-1.21 0.537-1.4 0.62-1.734 0.775-3.637 1.896-5.708 3.365-2.317 1.649-3.364 2.705-3.142 3.168 0.071 0.144 0.603 0.572 1.593 1.286 0.085 0.075 0.173 0.125 0.261 0.15 0.795 0.652 1.24 1.063 1.334 1.233 0.024 0.092 0.017 0.673-0.022 1.744-0.046 1.106-0.032 1.771 0.045 1.995 0.067 0.129 0.311 0.276 0.73 0.441-0.071-0.145-0.139-0.338-0.205-0.582-0.198-0.616-0.227-1.212-0.087-1.788 0.113-0.552 0.088-1.133-0.075-1.742-0.098-0.365-0.304-0.8-0.619-1.303-0.306-0.473-0.51-0.899-0.612-1.28-0.491-1.713 2.643-3.752 9.401-6.117 3.874-1.315 7.979-2.44 12.314-3.373 0.602-0.129 1.564-0.256 2.885-0.381 1.679-0.189 3.264-0.304 4.754-0.344 4.379-0.162 6.784 0.377 7.214 1.616 5e-3 0.014 9e-3 0.03 0.013 0.046zm-9.822 4.271c-0.294-0.183-0.68-0.315-1.16-0.399-1.605-0.206-4.348 0.063-8.229 0.81-2.191 0.407-4.82 1.259-7.884 2.553-1.271 0.553-2.326 1.064-3.163 1.533-0.878 0.496-1.351 0.835-1.417 1.016-0.077 0.2-0.059 0.539 0.052 1.015 0.065 0.488 0.018 0.86-0.142 1.115-0.276 0.433-0.481 0.822-0.617 1.169-0.213 0.547-0.274 0.955-0.186 1.225 0.146 0.483 0.429 0.84 0.85 1.069-0.343-0.364-0.565-0.737-0.667-1.118-0.125-0.407 0.201-1.318 0.98-2.735 0.832-1.463 1.629-2.354 2.393-2.673 1.417-0.559 4.101-1.384 8.051-2.476 1.459-0.342 3.031-0.502 4.718-0.48 0.658 0.02 1.225 0.063 1.7 0.132 0.414-0.159 0.833-0.329 1.259-0.509 0.849-0.31 2.003-0.725 3.462-1.247z" fill="#544434"/>
		<path d="m15.163 47.013l0.029 0.017 0.023-6e-3 6e-3 0.022 0.023-6e-3c0.222 0.038 0.468 0.07 0.736 0.097 0.037 0.021 0.095 0.022 0.172 3e-3 -0.031 7e-3 -0.048 3e-3 -0.052-0.011-0.281-0.137-0.468-0.315-0.56-0.535-0.176-0.476-0.112-1.211 0.192-2.206 0.297-0.961 0.34-1.683 0.13-2.165-0.012-0.045-0.149-0.221-0.411-0.526-0.19-0.161-0.307-0.293-0.351-0.396-0.042-0.037-0.068-0.071-0.076-0.102-0.274-0.596 0.01-1.243 0.851-1.941 0.766-0.613 2.248-1.418 4.445-2.415 1.021-0.453 3.738-1.214 8.152-2.282 2.182-0.503 4.273-0.981 6.273-1.436-0.251 0.034-0.498 0.06-0.738 0.075 2.739-0.375 4.954-0.634 6.646-0.777 1.665-0.12 2.979-0.146 3.944-0.078 0.889 0.089 1.557 0.269 2.005 0.54 0.202 0.143 0.378 0.314 0.531 0.519 0.046-0.012 0.097-0.034 0.154-0.065 0.989-0.51 1.942-1.034 2.859-1.573-4e-3 -0.016-8e-3 -0.031-0.012-0.046-0.43-1.239-2.835-1.778-7.214-1.616-1.49 0.04-3.075 0.154-4.754 0.344-1.321 0.125-2.283 0.252-2.885 0.381-4.335 0.933-8.44 2.058-12.314 3.373-6.759 2.365-9.893 4.404-9.401 6.117 0.102 0.381 0.307 0.808 0.612 1.28 0.315 0.503 0.521 0.938 0.619 1.303 0.163 0.609 0.188 1.19 0.075 1.742-0.139 0.576-0.11 1.172 0.087 1.788 0.065 0.243 0.133 0.436 0.204 0.581zm15.676-44.64c0.173 0.035 0.343 0.063 0.512 0.083-0.153-0.024-0.309-0.056-0.466-0.095-0.015 4e-3 -0.031 8e-3 -0.046 0.012z" fill="#594127"/>
		<path d="m59.764 22.529c0.279-0.663 0.471-1.317 0.575-1.966-0.488-0.604-0.745-0.983-0.77-1.14-0.028-0.106 0.028-0.229 0.171-0.364 0.132-0.117 0.175-0.292 0.129-0.524-0.529-1.669-2.338-2.515-5.428-2.536-2.917 0.015-6.683 0.518-11.296 1.509-0.157 0.025-1.16 0.27-3.011 0.733-1.839 0.444-2.814 0.673-2.925 0.686-1.281 0.213-2.681 0.351-4.197 0.415-1.506 0.044-2.422 0.094-2.75 0.149-1.613 0.252-3.89 0.984-6.829 2.196-3.258 1.362-6.257 2.958-8.999 4.786-3.202 2.18-5.628 4.331-7.279 6.454-7e-3 0.034-0.034 0.058-0.079 0.07-1.941 2.56-2.647 4.83-2.117 6.809 0.126 0.473 1.317 1.264 3.573 2.372 1.149 0.573 2.365 1.153 3.648 1.74-0.044 0.142-0.093 0.384-0.149 0.725-0.063 0.311-0.114 0.488-0.151 0.53 0.053 0.198 0.104 0.389 0.153 0.571 0.079 0.109 0.145 0.206 0.2 0.289 0.313 0.438 0.751 0.794 1.314 1.067 0.139 0.094 0.538 0.15 1.196 0.17 0.184 0.016 0.396 0.016 0.637 0 0.463 0.023 1.02 0.029 1.669 0.019 0.369-3e-3 0.766-0.012 1.192-0.026-8e-3 -5e-3 -0.018-0.01-0.029-0.017-0.359-2e-3 -0.713-0.013-1.062-0.034-0.069-0.014-0.144-0.019-0.224-0.013-0.279-7e-3 -0.538-0.027-0.775-0.062-0.077 0.02-0.135 0.019-0.172-3e-3 -0.268-0.026-0.514-0.059-0.736-0.097l-0.023 6e-3 -6e-3 -0.022-0.023 6e-3c-0.675-0.08-1.208-0.183-1.6-0.306-0.441-0.127-0.699-0.294-0.771-0.503-0.086-0.141-0.03-0.449 0.168-0.927 0.168-0.47 0.176-0.896 0.024-1.279-0.202-0.452-1.13-1.084-2.785-1.897-0.123-0.032-0.242-0.082-0.358-0.149-1.06-0.482-1.725-0.802-1.995-0.958-0.655-0.314-1.031-0.589-1.126-0.824-0.055-0.083 0.129-0.646 0.551-1.69 0.411-1.023 0.595-1.645 0.553-1.861-0.295-0.981-0.308-1.819-0.036-2.512 0.246-0.604 0.729-1.175 1.451-1.711 0.528-0.402 1.186-0.782 1.971-1.14 1.074-0.5 2.573-1.302 4.497-2.404 2.219-1.28 3.831-2.177 4.835-2.691 1.991-0.974 3.993-1.787 6.004-2.44 2.473-0.761 5.182-1.34 8.127-1.737 7.042-0.94 12.524-1.495 16.444-1.664 2.951-0.073 5.26 0.263 6.928 1.008 0.617 0.291 1.143 0.64 1.578 1.046 0.049 0.052 0.086 0.099 0.113 0.141z" fill="#706353"/>
		<path d="m43.353 37.109c-0.345 0.174-0.712 0.354-1.104 0.54-0.113 0.063-0.21 0.098-0.291 0.103-1.537 0.722-3.198 1.437-4.983 2.144-0.395 0.171-0.793 0.326-1.196 0.467-1.356 0.543-2.987 1.339-4.893 2.389 0.176-0.015 0.332-0.04 0.469-0.077 0.076-0.021 0.156-0.058 0.239-0.113 0.194-0.068 0.401-0.148 0.621-0.239 0.942-0.383 2.237-0.91 3.885-1.58 1.82-0.699 3.354-1.339 4.602-1.918 0.22-0.092 0.602-0.251 1.145-0.479 0.661-0.274 1.589-0.679 2.785-1.211 0.05 3e-3 0.111-0.014 0.183-0.049 0.899-0.421 1.745-0.826 2.538-1.219 1.155-0.685 1.94-1.287 2.355-1.806 0.555-0.671 0.701-1.437 0.438-2.296-0.917 0.539-1.87 1.063-2.859 1.573-0.057 0.031-0.108 0.054-0.154 0.065 0.114 0.182 0.209 0.385 0.286 0.609 0.237 0.639-1.118 1.672-4.066 3.097z" fill="#4B3A29"/>
		<path d="m43.307 35.017c-0.3 0.097-0.606 0.203-0.918 0.319-0.749 0.25-1.437 0.483-2.064 0.7 0.263 0.19 0.457 0.425 0.58 0.701 0.083 0.37-0.38 0.837-1.387 1.4-0.046 0.012-0.059 0.023-0.04 0.035-0.583 0.319-1.271 0.643-2.065 0.97-0.425 0.179-0.898 0.362-1.419 0.551-1.083 0.404-1.99 0.795-2.722 1.17-0.671 0.359-1.32 0.77-1.947 1.231-0.377 0.297-0.717 0.552-1.02 0.763 0.21-7e-3 0.405-0.043 0.583-0.106 1.906-1.05 3.537-1.846 4.893-2.389 0.403-0.141 0.802-0.296 1.196-0.467 1.785-0.707 3.446-1.422 4.983-2.144 0.08-5e-3 0.177-0.039 0.291-0.103 0.391-0.186 0.759-0.366 1.104-0.54 0.401-0.516 0.506-1.065 0.317-1.651-0.063-0.162-0.183-0.31-0.365-0.44z" fill="#807A6E"/>
		<path d="m37.411 39.143c2e-3 -0.115-0.011-0.226-0.04-0.332-0.169-0.51-0.758-0.85-1.766-1.021-1.497 0.63-2.729 1.237-3.698 1.823-0.348 0.224-0.673 0.441-0.975 0.653 0.54 0.067 0.854 0.203 0.942 0.408 0.079 0.354-0.413 0.927-1.474 1.717-0.245 0.18-0.527 0.378-0.844 0.594-0.563 0.396-1.282 0.882-2.155 1.458-0.212 0.122-0.491 0.36-0.837 0.714-0.229 0.241-0.423 0.432-0.581 0.572 0.015-4e-3 0.043-0.02 0.085-0.047 0.545-0.342 1.448-0.902 2.708-1.681 0.397-0.286 0.907-0.667 1.53-1.145 0.302-0.211 0.642-0.466 1.02-0.763 0.627-0.462 1.276-0.872 1.947-1.231 0.731-0.375 1.639-0.766 2.722-1.17 0.518-0.187 0.991-0.371 1.416-0.549z" fill="#6D6345"/>
		<path d="m30.932 40.267c-0.283-0.022-0.639-0.041-1.068-0.057-1.284 0.018-2.66 0.182-4.127 0.493-1.802 0.401-3.375 1.23-4.719 2.488-0.545 0.521-0.958 1.024-1.236 1.507s-0.373 0.834-0.28 1.054c-0.015 0.069 5e-3 0.113 0.059 0.132-0.174 0.323-0.219 0.58-0.136 0.771 0.078 0.289 0.457 0.579 1.139 0.87 0.02 0.011 0.056 0.025 0.11 0.044 0.037 0.021 0.079 0.026 0.126 0.015-0.017 5e-3 -0.032 9e-3 -0.045 0.013 0.031 0.057 0.08 0.085 0.145 0.083 0.17 0.085 0.349 0.144 0.537 0.175 0.568 0.174 1.087 0.19 1.555 0.049 0.583-0.141 1.294-0.592 2.134-1.355-0.572 0.365-0.989 0.575-1.251 0.629-0.061 0.017-0.173 0.022-0.338 0.018 4e-3 0.015-3e-3 0.017-0.022 6e-3 -0.031 8e-3 -0.051 0.021-0.063 0.041-0.037-0.021-0.083-0.042-0.139-0.061 0.056 0.018 0.121 0.017 0.195-3e-3 -0.054-0.019-0.083-0.067-0.088-0.148 0.244-0.065 0.514-0.153 0.81-0.266 0.045-0.013 0.104-0.036 0.177-0.072 0.439-0.248 0.965-0.568 1.578-0.961 0.158-0.141 0.352-0.331 0.581-0.572 0.346-0.354 0.625-0.592 0.837-0.714 0.874-0.576 1.592-1.063 2.155-1.458 0.317-0.216 0.599-0.414 0.844-0.594 1.061-0.79 1.553-1.362 1.474-1.717-0.09-0.207-0.404-0.343-0.944-0.41zm-3.442 3.051c0.076-0.021 0.16-0.043 0.251-0.067-0.038 0.043-0.066 0.059-0.085 0.047l-0.023 7e-3c-0.045 0.012-0.076 0.02-0.091 0.024-0.046 0.012-0.063 9e-3 -0.052-0.011z" fill="#CDCBBE"/>
		<path d="m18.58 47.248c0.046 0.053 0.129 0.087 0.249 0.104 0.2 0.077 0.475 0.158 0.824 0.244 0.21-8e-3 0.453-0.016 0.728-0.023 0.03-9e-3 0.091-0.024 0.182-0.049-0.682-0.291-1.061-0.581-1.139-0.87-0.083-0.19-0.038-0.447 0.136-0.771-0.054-0.019-0.074-0.063-0.059-0.132-0.092-0.22 1e-3 -0.571 0.28-1.054s0.691-0.985 1.236-1.507c1.344-1.258 2.917-2.087 4.719-2.488 1.467-0.312 2.843-0.476 4.127-0.493 0.429 0.016 0.785 0.034 1.068 0.057 0.302-0.212 0.627-0.43 0.975-0.653 0.97-0.586 2.202-1.193 3.698-1.823-0.476-0.068-1.042-0.112-1.7-0.132-1.687-0.021-3.259 0.139-4.718 0.48-3.95 1.092-6.634 1.917-8.051 2.476-0.763 0.319-1.561 1.21-2.393 2.673-0.779 1.417-1.106 2.328-0.98 2.735 0.102 0.381 0.324 0.754 0.667 1.118 0.03 0.056 0.081 0.091 0.151 0.108z" fill="#6B6559"/>
		<path d="m16.927 47.201c-0.325-0.239-0.521-0.481-0.586-0.725-0.028-0.106 0.143-0.748 0.513-1.925 0.377-1.21 0.553-1.927 0.526-2.147-0.097-0.97 0.058-1.672 0.463-2.107 0.165-0.175 0.424-0.366 0.776-0.575 0.201-0.103 0.55-0.294 1.045-0.573 0.829-0.5 2.502-1.079 5.019-1.736 1.344-0.344 2.987-0.728 4.93-1.15 2.765-0.643 5.21-1.11 7.335-1.402 3.392-0.436 5.511-0.383 6.357 0.157 1.619-0.597 2.895-1.135 3.827-1.613-0.152-0.204-0.329-0.376-0.531-0.519-0.448-0.271-1.116-0.451-2.005-0.54-0.965-0.067-2.28-0.042-3.944 0.078-1.692 0.144-3.907 0.402-6.646 0.777 0.24-0.016 0.487-0.041 0.738-0.075-2 0.454-4.091 0.933-6.273 1.436-4.414 1.068-7.131 1.829-8.152 2.282-2.197 0.997-3.679 1.802-4.445 2.415-0.841 0.698-1.125 1.346-0.851 1.941 8e-3 0.03 0.034 0.064 0.076 0.102 0.044 0.103 0.161 0.234 0.351 0.396 0.262 0.306 0.398 0.481 0.411 0.526 0.21 0.482 0.167 1.204-0.13 2.165-0.305 0.995-0.369 1.73-0.192 2.206 0.092 0.22 0.278 0.398 0.56 0.535 4e-3 0.014 0.021 0.018 0.052 0.011 0.239 0.033 0.497 0.053 0.776 0.06z" fill="#564533"/>
		<path d="m33.551 4.363c-2.623 0.262-4.546 0.541-5.773 0.837-1.268 0.323-2.277 0.577-3.027 0.762-0.762 0.204-1.916 0.554-3.464 1.051 0.323 0.109 0.59 0.225 0.803 0.348 0.271 0.156 0.709 0.455 1.317 0.896 0.588 0.43 1.059 0.753 1.41 0.969 1.163 0.684 2.414 0.936 3.752 0.757 0.159-0.075 0.309-0.156 0.449-0.243 0.405-0.255 0.822-0.709 1.25-1.363 0.387-0.626 0.85-1.093 1.388-1.4 0.856-0.458 2.209-0.829 4.059-1.112 0.694-0.088 1.392-0.136 2.091-0.144-0.315-0.079-0.663-0.19-1.044-0.333-1.058-0.353-1.897-0.625-2.52-0.818-0.245-0.065-0.475-0.133-0.691-0.207z" fill="#848172"/>
		<path d="m16.85 6.807c0.078 0.044 0.167 0.078 0.271 0.099 0.593 0.266 1.09 0.565 1.489 0.898 0.144 0.108 0.271 0.221 0.385 0.337-0.78 0.258-1.751 0.469-2.915 0.634-1.205 0.192-2.52 0.92-3.944 2.183-1.481 1.294-3.679 3.05-6.593 5.267-1.257 0.973-2.546 2.616-3.869 4.929-0.058-0.034-0.211 0.701-0.462 2.204-0.121 0.767-0.097 1.984 0.073 3.652 0.408-0.305 0.597-0.666 0.567-1.082-0.037-0.137-0.146-0.483-0.327-1.038-0.131-0.553-0.065-1.035 0.199-1.449 0.145-0.251 0.397-0.465 0.758-0.644 0.22-0.092 0.549-0.204 0.987-0.338 0.441-0.118 0.748-0.225 0.918-0.319 0.273-0.139 0.451-0.325 0.535-0.56 0.018-0.118 0.069-0.476 0.154-1.069 0.038-0.467 0.169-0.861 0.393-1.183 0.523-0.728 1.206-1.318 2.046-1.772 0.55-0.262 1.32-0.525 2.31-0.79 0.259-0.069 0.497-0.125 0.714-0.167 0.653-0.73 1.213-1.565 1.678-2.506 0.189-0.394 0.645-1.584 1.368-3.573 0.172-0.03 0.335-0.058 0.492-0.083 0.061 0.228 0.115 0.458 0.161 0.691-0.1 1.087-0.193 1.928-0.279 2.522-0.065 0.425-0.15 0.84-0.254 1.243 0.157-0.206 0.361-0.603 0.611-1.192 0.272-0.628 0.532-1.122 0.778-1.481 0.878-1.23 2.334-2.004 4.372-2.322 0.171-0.03 0.379-0.044 0.624-0.045 0.249 0.015 0.521 0.056 0.816 0.124 0.257 0.045 0.734 0.179 1.43 0.4 0.196 0.062 0.373 0.112 0.53 0.151 0.377 0.128 0.699 0.205 0.968 0.23 0.557 0.128 1.092 0.148 1.607 0.059 1.32-0.19 2.363-0.47 3.129-0.838-1.339 0.179-2.59-0.073-3.752-0.757-0.351-0.216-0.822-0.539-1.41-0.969-0.608-0.438-1.047-0.736-1.318-0.892-0.212-0.123-0.48-0.238-0.803-0.348-0.712-0.283-1.63-0.51-2.753-0.682 0.317-0.036 0.739-0.076 1.266-0.119 1.306-0.121 2.031-0.185 2.176-0.191 0.999-0.169 2.783-0.517 5.351-1.042 2.027-0.413 3.731-0.722 5.112-0.929 0.338 0.105 0.708 0.21 1.112 0.314 0.813-0.071 1.718-0.167 2.714-0.286 0.286-0.028 0.596-0.062 0.928-0.102 0.889-0.091 1.832-0.197 2.828-0.317 3.984-0.48 7.877-1.115 11.68-1.906 0.39-6e-3 0.77-0.019 1.141-0.036 1.547-0.072 2.682-0.164 3.402-0.275-1.128-8e-3 -3.087 0.052-5.876 0.179-1.051 0.037-2.264 0.231-3.638 0.583-2.024 0.542-3.589 0.766-4.691 0.669-0.872-0.027-2.901 0.043-6.088 0.211-0.505 4e-3 -1.051 4e-3 -1.64-1e-3 -1.174 5e-3 -2.228 0.091-3.162 0.26 0.149 9e-3 0.3 0.025 0.454 0.05-0.165-5e-3 -0.331-0.018-0.5-0.038-0.187 0.034-0.374 0.067-0.561 0.101-0.057 0.032-0.125 0.05-0.205 0.055-1.205 0.257-3.016 0.653-5.435 1.187-2.487 0.585-4.627 1.125-6.419 1.622-0.031 8e-3 -0.069 0.018-0.114 0.03-0.031 8e-3 -0.054 0.015-0.069 0.019-0.498 0.15-0.982 0.296-1.45 0.438z" fill="#797665"/>
		<path d="m1.674 21.154c1.323-2.313 2.612-3.956 3.869-4.929 2.915-2.217 5.112-3.973 6.593-5.267 1.424-1.263 2.739-1.99 3.944-2.183 1.163-0.165 2.135-0.376 2.915-0.634-0.113-0.116-0.241-0.229-0.385-0.337-0.399-0.333-0.896-0.633-1.489-0.898-0.104-0.021-0.194-0.054-0.271-0.099-0.076 0.02-0.145 0.039-0.206 0.055-1.27 0.438-2.495 0.921-3.675 1.45-1.696 0.797-2.949 1.418-3.76 1.864-0.825 0.45-1.642 1.027-2.448 1.733-0.803 0.721-1.594 1.725-2.375 3.011-0.663 1.059-1.391 2.666-2.185 4.821-0.172 0.453-0.347 0.924-0.527 1.413zm19.614-14.141c1.548-0.497 2.702-0.847 3.464-1.051 0.75-0.185 1.759-0.438 3.027-0.762 1.227-0.296 3.15-0.575 5.773-0.837-0.403-0.104-0.774-0.208-1.112-0.314-1.381 0.207-3.085 0.517-5.112 0.929-2.568 0.525-4.352 0.873-5.351 1.042-0.145 6e-3 -0.87 0.07-2.176 0.191-0.527 0.043-0.949 0.083-1.266 0.119 1.123 0.173 2.04 0.4 2.753 0.683z" fill="#A2A093"/>
		<path d="m20.038 47.665c-0.091 0.024-0.17 0.037-0.234 0.038 0.083 0.01 0.186-2e-3 0.309-0.034-0.032 8e-3 -0.057 6e-3 -0.075-4e-3z" fill="#E8D287"/>
		<path d="m18.422 47.253l-0.015-8e-3c-0.026 7e-3 -0.045 0.012-0.057 0.015 0.021-5e-3 0.045-7e-3 0.072-7e-3z" fill="#8F6336"/>
	</g>
</symbol>
<symbol id="d" viewBox="-0.001 -20.755 32.567 20.775">
			<use transform="matrix(.4327 0 0 .4327 0 -20.75)" x="-0.003" y="-0.012" width="75.26" height="48.009" xlink:href="#c"/>
</symbol>
<use transform="matrix(1 0 0 -1 20.1 16.6)" x="-0.001" y="-20.755" width="32.567" height="20.775" xlink:href="#d"/>
</svg>
